<svg version="1.1" viewBox="0.0 0.0 1276.005249343832 530.2650918635171" fill="none" stroke="none" stroke-linecap="square" stroke-miterlimit="10" xmlns:xlink="http://www.w3.org/1999/xlink" xmlns="http://www.w3.org/2000/svg"><clipPath id="p.0"><path d="m0 0l1276.0052 0l0 530.2651l-1276.0052 0l0 -530.2651z" clip-rule="nonzero"/></clipPath><g clip-path="url(#p.0)"><path fill="#000000" fill-opacity="0.0" d="m0 0l1276.0052 0l0 530.2651l-1276.0052 0z" fill-rule="evenodd"/><path fill="#ffffff" d="m7.1574802 216.63518l0 0c0 -12.741699 10.702862 -23.070877 23.905512 -23.070877l0 0c6.3401375 0 12.420597 2.4306793 16.903751 6.757309c4.4831505 4.3266144 7.0017586 10.194794 7.0017586 16.313568l0 0c0 12.741684 -10.702862 23.070862 -23.90551 23.070862l0 0c-13.20265 0 -23.905512 -10.329178 -23.905512 -23.070862z" fill-rule="evenodd"/><path stroke="#000000" stroke-width="4.0" stroke-linejoin="round" stroke-linecap="butt" d="m7.1574802 216.63518l0 0c0 -12.741699 10.702862 -23.070877 23.905512 -23.070877l0 0c6.3401375 0 12.420597 2.4306793 16.903751 6.757309c4.4831505 4.3266144 7.0017586 10.194794 7.0017586 16.313568l0 0c0 12.741684 -10.702862 23.070862 -23.90551 23.070862l0 0c-13.20265 0 -23.905512 -10.329178 -23.905512 -23.070862z" fill-rule="evenodd"/><path fill="#000000" d="m24.809956 223.55518l5.125 -13.359375l1.90625 0l5.46875 13.359375l-2.015625 0l-1.546875 -4.046875l-5.59375 0l-1.46875 4.046875l-1.875 0zm3.859375 -5.484375l4.53125 0l-1.40625 -3.703125q-0.625 -1.6875 -0.9375 -2.765625q-0.265625 1.28125 -0.71875 2.546875l-1.46875 3.921875z" fill-rule="nonzero"/><path fill="#ffffff" d="m127.15748 161.59842l0 0c0 -12.741684 10.702858 -23.070862 23.90551 -23.070862l0 0c6.3401337 0 12.420593 2.4306793 16.903748 6.757309c4.4831543 4.3266144 7.00177 10.194778 7.00177 16.313553l0 0c0 12.741699 -10.702866 23.070877 -23.905518 23.070877l0 0c-13.202652 0 -23.90551 -10.329178 -23.90551 -23.070877z" fill-rule="evenodd"/><path stroke="#000000" stroke-width="4.0" stroke-linejoin="round" stroke-linecap="butt" d="m127.15748 161.59842l0 0c0 -12.741684 10.702858 -23.070862 23.90551 -23.070862l0 0c6.3401337 0 12.420593 2.4306793 16.903748 6.757309c4.4831543 4.3266144 7.00177 10.194778 7.00177 16.313553l0 0c0 12.741699 -10.702866 23.070877 -23.905518 23.070877l0 0c-13.202652 0 -23.90551 -10.329178 -23.90551 -23.070877z" fill-rule="evenodd"/><path fill="#000000" d="m146.30995 168.51842l0 -13.359375l9.65625 0l0 1.578125l-7.875 0l0 4.09375l7.375 0l0 1.5625l-7.375 0l0 4.546875l8.1875 0l0 1.578125l-9.96875 0z" fill-rule="nonzero"/><path fill="#000000" d="m144.8412 169.73175l12.443573 0l0 1.6800079l-12.443573 0l0 -1.6800079z" fill-rule="nonzero"/><path fill="#ffffff" d="m231.15749 257.59842l0 0c0 -12.741684 10.70285 -23.070862 23.905502 -23.070862l0 0c6.340149 0 12.420593 2.4306793 16.903748 6.757309c4.4831543 4.3266144 7.00177 10.194778 7.00177 16.313553l0 0c0 12.741699 -10.70285 23.070862 -23.905518 23.070862l0 0c-13.202652 0 -23.905502 -10.329163 -23.905502 -23.070862z" fill-rule="evenodd"/><path stroke="#000000" stroke-width="4.0" stroke-linejoin="round" stroke-linecap="butt" d="m231.15749 257.59842l0 0c0 -12.741684 10.70285 -23.070862 23.905502 -23.070862l0 0c6.340149 0 12.420593 2.4306793 16.903748 6.757309c4.4831543 4.3266144 7.00177 10.194778 7.00177 16.313553l0 0c0 12.741699 -10.70285 23.070862 -23.905518 23.070862l0 0c-13.202652 0 -23.905502 -10.329163 -23.905502 -23.070862z" fill-rule="evenodd"/><path fill="#000000" d="m250.20058 264.51843l0 -13.35939l5.015625 0q1.5312653 0 2.4531403 0.40625q0.921875 0.40625 1.4375 1.25q0.53125 0.84375 0.53125 1.765625q0 0.859375 -0.46875 1.6250153q-0.453125 0.75 -1.390625 1.203125q1.203125 0.359375 1.859375 1.21875q0.65625 0.859375 0.65625 2.015625q0 0.9375 -0.40625 1.75q-0.390625 0.796875 -0.984375 1.234375q-0.578125 0.4375 -1.453125 0.671875q-0.875 0.21875 -2.1562653 0.21875l-5.09375 0zm1.78125 -7.75l2.875 0q1.1875153 0 1.6875153 -0.140625q0.671875 -0.203125 1.015625 -0.67189026q0.34375 -0.46875 0.34375 -1.171875q0 -0.65625 -0.328125 -1.15625q-0.3125 -0.515625 -0.90625 -0.703125q-0.59375 -0.1875 -2.0312653 -0.1875l-2.65625 0l0 4.0312653zm0 6.171875l3.3125 0q0.85939026 0 1.2031403 -0.0625q0.609375 -0.109375 1.015625 -0.359375q0.421875 -0.265625 0.6875 -0.75q0.265625 -0.484375 0.265625 -1.125q0 -0.75 -0.390625 -1.296875q-0.375 -0.546875 -1.0625 -0.765625q-0.671875 -0.234375 -1.9531403 -0.234375l-3.078125 0l0 4.59375z" fill-rule="nonzero"/><path fill="#ffffff" d="m175.15749 361.59842l0 0c0 -12.741669 10.70285 -23.070862 23.905502 -23.070862l0 0c6.3401337 0 12.420593 2.430664 16.903748 6.7572937c4.4831543 4.3266296 7.00177 10.194794 7.00177 16.313568l0 0c0 12.741699 -10.702866 23.070862 -23.905518 23.070862l0 0c-13.202652 0 -23.905502 -10.329163 -23.905502 -23.070862z" fill-rule="evenodd"/><path stroke="#000000" stroke-width="4.0" stroke-linejoin="round" stroke-linecap="butt" d="m175.15749 361.59842l0 0c0 -12.741669 10.70285 -23.070862 23.905502 -23.070862l0 0c6.3401337 0 12.420593 2.430664 16.903748 6.7572937c4.4831543 4.3266296 7.00177 10.194794 7.00177 16.313568l0 0c0 12.741699 -10.702866 23.070862 -23.905518 23.070862l0 0c-13.202652 0 -23.905502 -10.329163 -23.905502 -23.070862z" fill-rule="evenodd"/><path fill="#000000" d="m193.76402 368.51843l0 -13.359375l4.609375 0q1.546875 0 2.375 0.203125q1.140625 0.25 1.953125 0.953125q1.0625 0.890625 1.578125 2.28125q0.53125 1.390625 0.53125 3.171875q0 1.515625 -0.359375 2.703125q-0.359375 1.171875 -0.921875 1.9375q-0.546875 0.765625 -1.203125 1.21875q-0.65625 0.4375 -1.59375 0.671875q-0.9375 0.21875 -2.140625 0.21875l-4.828125 0zm1.765625 -1.578125l2.859375 0q1.3125 0 2.0625 -0.234375q0.75 -0.25 1.203125 -0.703125q0.625 -0.625 0.96875 -1.6875q0.359375 -1.0625 0.359375 -2.578125q0 -2.09375 -0.6875 -3.21875q-0.6875 -1.125 -1.671875 -1.5q-0.703125 -0.28125 -2.28125 -0.28125l-2.8125 0l0 10.203125z" fill-rule="nonzero"/><path fill="#ffffff" d="m30.614174 348.063l0 0c0 -12.741669 10.702862 -23.070862 23.90551 -23.070862l0 0c6.3401375 0 12.420601 2.430664 16.903748 6.7572937c4.4831543 4.3266296 7.0017624 10.194794 7.0017624 16.313568l0 0c0 12.741699 -10.702858 23.070862 -23.90551 23.070862l0 0c-13.202648 0 -23.90551 -10.329163 -23.90551 -23.070862z" fill-rule="evenodd"/><path stroke="#000000" stroke-width="4.0" stroke-linejoin="round" stroke-linecap="butt" d="m30.614174 348.063l0 0c0 -12.741669 10.702862 -23.070862 23.90551 -23.070862l0 0c6.3401375 0 12.420601 2.430664 16.903748 6.7572937c4.4831543 4.3266296 7.0017624 10.194794 7.0017624 16.313568l0 0c0 12.741699 -10.702858 23.070862 -23.90551 23.070862l0 0c-13.202648 0 -23.90551 -10.329163 -23.90551 -23.070862z" fill-rule="evenodd"/><path fill="#000000" d="m58.75196 350.2955l1.765625 0.453125q-0.5625 2.171875 -2.0 3.328125q-1.4375 1.140625 -3.53125 1.140625q-2.15625 0 -3.515625 -0.875q-1.34375 -0.890625 -2.0625 -2.546875q-0.703125 -1.671875 -0.703125 -3.59375q0 -2.078125 0.796875 -3.625q0.796875 -1.5625 2.265625 -2.359375q1.484375 -0.8125 3.25 -0.8125q2.0 0 3.359375 1.015625q1.375 1.015625 1.90625 2.875l-1.734375 0.40625q-0.46875 -1.453125 -1.359375 -2.109375q-0.875 -0.671875 -2.203125 -0.671875q-1.546875 0 -2.578125 0.734375q-1.03125 0.734375 -1.453125 1.984375q-0.421875 1.234375 -0.421875 2.5625q0 1.703125 0.5 2.96875q0.5 1.265625 1.546875 1.90625q1.046875 0.625 2.265625 0.625q1.484375 0 2.515625 -0.859375q1.03125 -0.859375 1.390625 -2.546875z" fill-rule="nonzero"/><path fill="#000000" d="m47.78321 356.19632l13.472946 0l0 1.6799927l-13.472946 0l0 -1.6799927z" fill-rule="nonzero"/><path fill="#000000" fill-opacity="0.0" d="m54.412075 206.55905l73.95274 -36.40944" fill-rule="evenodd"/><path stroke="#000000" stroke-width="4.0" stroke-linejoin="round" stroke-linecap="butt" d="m54.412075 206.55905l52.42088 -25.808578" fill-rule="evenodd"/><path fill="#000000" stroke="#000000" stroke-width="4.0" stroke-linecap="butt" d="m109.75126 186.67796l13.367325 -13.94545l-19.203926 2.0904846z" fill-rule="evenodd"/><path fill="#000000" fill-opacity="0.0" d="m167.96674 177.91199l70.20473 63.370087" fill-rule="evenodd"/><path stroke="#000000" stroke-width="4.0" stroke-linejoin="round" stroke-linecap="butt" d="m167.96674 177.91199l52.38913 47.28891" fill-rule="evenodd"/><path fill="#000000" stroke="#000000" stroke-width="4.0" stroke-linecap="butt" d="m215.92891 230.10532l17.90178 7.25856l-9.047852 -17.067429z" fill-rule="evenodd"/><path fill="#000000" fill-opacity="0.0" d="m244.61417 279.0l-33.795273 60.91339" fill-rule="evenodd"/><path stroke="#000000" stroke-width="4.0" stroke-linejoin="round" stroke-linecap="butt" d="m244.61417 279.0l-22.15181 39.92697" fill-rule="evenodd"/><path fill="#000000" stroke="#000000" stroke-width="4.0" stroke-linecap="butt" d="m216.68503 315.72165l-3.0292053 19.0784l14.583847 -12.667786z" fill-rule="evenodd"/><path fill="#000000" fill-opacity="0.0" d="m175.15749 361.59842l-96.72442 -13.543304" fill-rule="evenodd"/><path stroke="#000000" stroke-width="4.0" stroke-linejoin="round" stroke-linecap="butt" d="m175.15749 361.59842l-72.956276 -10.2153015" fill-rule="evenodd"/><path fill="#000000" stroke="#000000" stroke-width="4.0" stroke-linecap="butt" d="m103.11737 344.84003l-18.89318 4.0259705l17.06086 9.060211z" fill-rule="evenodd"/><path fill="#000000" fill-opacity="0.0" d="m46.968502 326.91864l-15.90551 -87.2126" fill-rule="evenodd"/><path stroke="#000000" stroke-width="4.0" stroke-linejoin="round" stroke-linecap="butt" d="m46.968502 326.91864l-11.599506 -63.60205" fill-rule="evenodd"/><path fill="#000000" stroke="#000000" stroke-width="4.0" stroke-linecap="butt" d="m41.868717 262.1312l-9.756565 -16.67244l-3.2428741 19.043228z" fill-rule="evenodd"/><path fill="#ffffff" d="m455.15747 216.63518l0 0c0 -12.741699 10.702881 -23.070877 23.905518 -23.070877l0 0c6.340149 0 12.420593 2.4306793 16.903748 6.757309c4.4831543 4.3266144 7.00177 10.194794 7.00177 16.313568l0 0c0 12.741684 -10.70285 23.070862 -23.905518 23.070862l0 0c-13.202637 0 -23.905518 -10.329178 -23.905518 -23.070862z" fill-rule="evenodd"/><path stroke="#000000" stroke-width="4.0" stroke-linejoin="round" stroke-linecap="butt" d="m455.15747 216.63518l0 0c0 -12.741699 10.702881 -23.070877 23.905518 -23.070877l0 0c6.340149 0 12.420593 2.4306793 16.903748 6.757309c4.4831543 4.3266144 7.00177 10.194794 7.00177 16.313568l0 0c0 12.741684 -10.70285 23.070862 -23.905518 23.070862l0 0c-13.202637 0 -23.905518 -10.329178 -23.905518 -23.070862z" fill-rule="evenodd"/><path fill="#000000" d="m472.80997 223.55518l5.125 -13.359375l1.90625 0l5.46875 13.359375l-2.015625 0l-1.546875 -4.046875l-5.59375 0l-1.46875 4.046875l-1.875 0zm3.859375 -5.484375l4.53125 0l-1.40625 -3.703125q-0.625 -1.6875 -0.9375 -2.765625q-0.265625 1.28125 -0.71875 2.546875l-1.46875 3.921875z" fill-rule="nonzero"/><path fill="#ffffff" d="m575.1575 161.59842l0 0c0 -12.741684 10.702881 -23.070862 23.905518 -23.070862l0 0c6.340149 0 12.420593 2.4306793 16.903748 6.757309c4.4831543 4.3266144 7.00177 10.194778 7.00177 16.313553l0 0c0 12.741699 -10.702881 23.070877 -23.905518 23.070877l0 0c-13.202637 0 -23.905518 -10.329178 -23.905518 -23.070877z" fill-rule="evenodd"/><path stroke="#000000" stroke-width="4.0" stroke-linejoin="round" stroke-linecap="butt" d="m575.1575 161.59842l0 0c0 -12.741684 10.702881 -23.070862 23.905518 -23.070862l0 0c6.340149 0 12.420593 2.4306793 16.903748 6.757309c4.4831543 4.3266144 7.00177 10.194778 7.00177 16.313553l0 0c0 12.741699 -10.702881 23.070877 -23.905518 23.070877l0 0c-13.202637 0 -23.905518 -10.329178 -23.905518 -23.070877z" fill-rule="evenodd"/><path fill="#000000" d="m594.30994 168.51842l0 -13.359375l9.65625 0l0 1.578125l-7.875 0l0 4.09375l7.375 0l0 1.5625l-7.375 0l0 4.546875l8.1875 0l0 1.578125l-9.96875 0z" fill-rule="nonzero"/><path fill="#000000" d="m592.8412 169.73175l12.4436035 0l0 1.6800079l-12.4436035 0l0 -1.6800079z" fill-rule="nonzero"/><path fill="#ffffff" d="m679.1575 257.59842l0 0c0 -12.741684 10.702881 -23.070862 23.905518 -23.070862l0 0c6.340149 0 12.420593 2.4306793 16.903748 6.757309c4.4831543 4.3266144 7.00177 10.194778 7.00177 16.313553l0 0c0 12.741699 -10.702881 23.070862 -23.905518 23.070862l0 0c-13.202637 0 -23.905518 -10.329163 -23.905518 -23.070862z" fill-rule="evenodd"/><path stroke="#000000" stroke-width="4.0" stroke-linejoin="round" stroke-linecap="butt" d="m679.1575 257.59842l0 0c0 -12.741684 10.702881 -23.070862 23.905518 -23.070862l0 0c6.340149 0 12.420593 2.4306793 16.903748 6.757309c4.4831543 4.3266144 7.00177 10.194778 7.00177 16.313553l0 0c0 12.741699 -10.702881 23.070862 -23.905518 23.070862l0 0c-13.202637 0 -23.905518 -10.329163 -23.905518 -23.070862z" fill-rule="evenodd"/><path fill="#000000" d="m698.20056 264.51843l0 -13.35939l5.015625 0q1.53125 0 2.453125 0.40625q0.921875 0.40625 1.4375 1.25q0.53125 0.84375 0.53125 1.765625q0 0.859375 -0.46875 1.6250153q-0.453125 0.75 -1.390625 1.203125q1.203125 0.359375 1.859375 1.21875q0.65625 0.859375 0.65625 2.015625q0 0.9375 -0.40625 1.75q-0.390625 0.796875 -0.984375 1.234375q-0.578125 0.4375 -1.453125 0.671875q-0.875 0.21875 -2.15625 0.21875l-5.09375 0zm1.78125 -7.75l2.875 0q1.1875 0 1.6875 -0.140625q0.671875 -0.203125 1.015625 -0.67189026q0.34375 -0.46875 0.34375 -1.171875q0 -0.65625 -0.328125 -1.15625q-0.3125 -0.515625 -0.90625 -0.703125q-0.59375 -0.1875 -2.03125 -0.1875l-2.65625 0l0 4.0312653zm0 6.171875l3.3125 0q0.859375 0 1.203125 -0.0625q0.609375 -0.109375 1.015625 -0.359375q0.421875 -0.265625 0.6875 -0.75q0.265625 -0.484375 0.265625 -1.125q0 -0.75 -0.390625 -1.296875q-0.375 -0.546875 -1.0625 -0.765625q-0.671875 -0.234375 -1.953125 -0.234375l-3.078125 0l0 4.59375z" fill-rule="nonzero"/><path fill="#ffffff" d="m623.1575 361.59842l0 0c0 -12.741669 10.702881 -23.070862 23.905518 -23.070862l0 0c6.340149 0 12.420593 2.430664 16.903748 6.7572937c4.4831543 4.3266296 7.00177 10.194794 7.00177 16.313568l0 0c0 12.741699 -10.702881 23.070862 -23.905518 23.070862l0 0c-13.202637 0 -23.905518 -10.329163 -23.905518 -23.070862z" fill-rule="evenodd"/><path stroke="#000000" stroke-width="4.0" stroke-linejoin="round" stroke-linecap="butt" d="m623.1575 361.59842l0 0c0 -12.741669 10.702881 -23.070862 23.905518 -23.070862l0 0c6.340149 0 12.420593 2.430664 16.903748 6.7572937c4.4831543 4.3266296 7.00177 10.194794 7.00177 16.313568l0 0c0 12.741699 -10.702881 23.070862 -23.905518 23.070862l0 0c-13.202637 0 -23.905518 -10.329163 -23.905518 -23.070862z" fill-rule="evenodd"/><path fill="#000000" d="m641.76404 368.51843l0 -13.359375l4.609375 0q1.546875 0 2.375 0.203125q1.140625 0.25 1.953125 0.953125q1.0625 0.890625 1.578125 2.28125q0.53125 1.390625 0.53125 3.171875q0 1.515625 -0.359375 2.703125q-0.359375 1.171875 -0.921875 1.9375q-0.546875 0.765625 -1.203125 1.21875q-0.65625 0.4375 -1.59375 0.671875q-0.9375 0.21875 -2.140625 0.21875l-4.828125 0zm1.765625 -1.578125l2.859375 0q1.3125 0 2.0625 -0.234375q0.75 -0.25 1.203125 -0.703125q0.625 -0.625 0.96875 -1.6875q0.359375 -1.0625 0.359375 -2.578125q0 -2.09375 -0.6875 -3.21875q-0.6875 -1.125 -1.671875 -1.5q-0.703125 -0.28125 -2.28125 -0.28125l-2.8125 0l0 10.203125z" fill-rule="nonzero"/><path fill="#ffffff" d="m478.61417 348.063l0 0c0 -12.741669 10.702881 -23.070862 23.905518 -23.070862l0 0c6.340149 0 12.420624 2.430664 16.903778 6.7572937c4.4831543 4.3266296 7.001709 10.194794 7.001709 16.313568l0 0c0 12.741699 -10.70282 23.070862 -23.905487 23.070862l0 0c-13.202637 0 -23.905518 -10.329163 -23.905518 -23.070862z" fill-rule="evenodd"/><path stroke="#000000" stroke-width="4.0" stroke-linejoin="round" stroke-linecap="butt" d="m478.61417 348.063l0 0c0 -12.741669 10.702881 -23.070862 23.905518 -23.070862l0 0c6.340149 0 12.420624 2.430664 16.903778 6.7572937c4.4831543 4.3266296 7.001709 10.194794 7.001709 16.313568l0 0c0 12.741699 -10.70282 23.070862 -23.905487 23.070862l0 0c-13.202637 0 -23.905518 -10.329163 -23.905518 -23.070862z" fill-rule="evenodd"/><path fill="#000000" d="m506.75195 350.2955l1.765625 0.453125q-0.5625 2.171875 -2.0 3.328125q-1.4375 1.140625 -3.53125 1.140625q-2.15625 0 -3.515625 -0.875q-1.34375 -0.890625 -2.0625 -2.546875q-0.703125 -1.671875 -0.703125 -3.59375q0 -2.078125 0.796875 -3.625q0.796875 -1.5625 2.265625 -2.359375q1.484375 -0.8125 3.25 -0.8125q2.0 0 3.359375 1.015625q1.375 1.015625 1.90625 2.875l-1.734375 0.40625q-0.46875 -1.453125 -1.359375 -2.109375q-0.875 -0.671875 -2.203125 -0.671875q-1.546875 0 -2.578125 0.734375q-1.03125 0.734375 -1.453125 1.984375q-0.421875 1.234375 -0.421875 2.5625q0 1.703125 0.5 2.96875q0.5 1.265625 1.546875 1.90625q1.046875 0.625 2.265625 0.625q1.484375 0 2.515625 -0.859375q1.03125 -0.859375 1.390625 -2.546875z" fill-rule="nonzero"/><path fill="#000000" d="m495.7832 356.19632l13.472961 0l0 1.6799927l-13.472961 0l0 -1.6799927z" fill-rule="nonzero"/><path fill="#000000" fill-opacity="0.0" d="m502.41208 206.55905l73.95273 -36.40944" fill-rule="evenodd"/><path stroke="#000000" stroke-width="4.0" stroke-linejoin="round" stroke-linecap="butt" d="m502.41208 206.55905l52.420868 -25.808578" fill-rule="evenodd"/><path fill="#000000" stroke="#000000" stroke-width="4.0" stroke-linecap="butt" d="m557.7513 186.67796l13.36731 -13.94545l-19.203918 2.0904846z" fill-rule="evenodd"/><path fill="#000000" fill-opacity="0.0" d="m692.6142 279.0l-33.795288 60.91339" fill-rule="evenodd"/><path stroke="#000000" stroke-width="4.0" stroke-linejoin="round" stroke-linecap="butt" d="m692.6142 279.0l-22.151855 39.92697" fill-rule="evenodd"/><path fill="#000000" stroke="#000000" stroke-width="4.0" stroke-linecap="butt" d="m664.685 315.72165l-3.0291748 19.0784l14.583862 -12.667786z" fill-rule="evenodd"/><path fill="#000000" fill-opacity="0.0" d="m623.1575 361.59842l-96.72443 -13.543304" fill-rule="evenodd"/><path stroke="#000000" stroke-width="4.0" stroke-linejoin="round" stroke-linecap="butt" d="m623.1575 361.59842l-72.9563 -10.2153015" fill-rule="evenodd"/><path fill="#000000" stroke="#000000" stroke-width="4.0" stroke-linecap="butt" d="m551.1174 344.84003l-18.893188 4.0259705l17.060852 9.060211z" fill-rule="evenodd"/><path fill="#ffffff" d="m991.1575 88.63517l0 0c0 -12.741684 10.702881 -23.070862 23.905518 -23.070862l0 0c6.340149 0 12.420654 2.4306717 16.903809 6.7572937c4.4831543 4.3266296 7.001709 10.194794 7.001709 16.313568l0 0c0 12.741692 -10.702881 23.07087 -23.905518 23.07087l0 0c-13.202637 0 -23.905518 -10.329178 -23.905518 -23.07087z" fill-rule="evenodd"/><path stroke="#000000" stroke-width="4.0" stroke-linejoin="round" stroke-linecap="butt" d="m991.1575 88.63517l0 0c0 -12.741684 10.702881 -23.070862 23.905518 -23.070862l0 0c6.340149 0 12.420654 2.4306717 16.903809 6.7572937c4.4831543 4.3266296 7.001709 10.194794 7.001709 16.313568l0 0c0 12.741692 -10.702881 23.07087 -23.905518 23.07087l0 0c-13.202637 0 -23.905518 -10.329178 -23.905518 -23.07087z" fill-rule="evenodd"/><path fill="#000000" d="m1008.80994 95.55517l5.125 -13.359375l1.90625 0l5.46875 13.359375l-2.015625 0l-1.546875 -4.046875l-5.59375 0l-1.46875 4.046875l-1.875 0zm3.859375 -5.484375l4.53125 0l-1.40625 -3.703125q-0.625 -1.6875 -0.9375 -2.765625q-0.265625 1.28125 -0.71875 2.546875l-1.46875 3.921875z" fill-rule="nonzero"/><path fill="#ffffff" d="m1111.1575 33.598427l0 0c0 -12.74169 10.702881 -23.070868 23.905518 -23.070868l0 0c6.340088 0 12.420654 2.4306736 16.903809 6.7572994c4.4831543 4.3266277 7.001709 10.194792 7.001709 16.313568l0 0c0 12.741688 -10.702881 23.070866 -23.905518 23.070866l0 0c-13.202637 0 -23.905518 -10.329178 -23.905518 -23.070866z" fill-rule="evenodd"/><path stroke="#000000" stroke-width="4.0" stroke-linejoin="round" stroke-linecap="butt" d="m1111.1575 33.598427l0 0c0 -12.74169 10.702881 -23.070868 23.905518 -23.070868l0 0c6.340088 0 12.420654 2.4306736 16.903809 6.7572994c4.4831543 4.3266277 7.001709 10.194792 7.001709 16.313568l0 0c0 12.741688 -10.702881 23.070866 -23.905518 23.070866l0 0c-13.202637 0 -23.905518 -10.329178 -23.905518 -23.070866z" fill-rule="evenodd"/><path fill="#000000" d="m1130.3099 40.518425l0 -13.359377l9.65625 0l0 1.578125l-7.875 0l0 4.093752l7.375 0l0 1.5625l-7.375 0l0 4.546875l8.1875 0l0 1.578125l-9.96875 0z" fill-rule="nonzero"/><path fill="#ffffff" d="m1215.1575 129.59842l0 0c0 -12.741684 10.702881 -23.070862 23.905518 -23.070862l0 0c6.340088 0 12.420654 2.4306717 16.903809 6.7573013c4.4831543 4.3266296 7.001709 10.194794 7.001709 16.31356l0 0c0 12.741699 -10.702881 23.070877 -23.905518 23.070877l0 0c-13.202637 0 -23.905518 -10.329178 -23.905518 -23.070877z" fill-rule="evenodd"/><path stroke="#000000" stroke-width="4.0" stroke-linejoin="round" stroke-linecap="butt" d="m1215.1575 129.59842l0 0c0 -12.741684 10.702881 -23.070862 23.905518 -23.070862l0 0c6.340088 0 12.420654 2.4306717 16.903809 6.7573013c4.4831543 4.3266296 7.001709 10.194794 7.001709 16.31356l0 0c0 12.741699 -10.702881 23.070877 -23.905518 23.070877l0 0c-13.202637 0 -23.905518 -10.329178 -23.905518 -23.070877z" fill-rule="evenodd"/><path fill="#000000" d="m1234.2006 136.51842l0 -13.359367l5.015625 0q1.53125 0 2.453125 0.40625q0.921875 0.40625 1.4375 1.25q0.53125 0.84375 0.53125 1.765625q0 0.859375 -0.46875 1.6249924q-0.453125 0.75 -1.390625 1.203125q1.203125 0.359375 1.859375 1.21875q0.65625 0.859375 0.65625 2.015625q0 0.9375 -0.40625 1.75q-0.390625 0.796875 -0.984375 1.234375q-0.578125 0.4375 -1.453125 0.671875q-0.875 0.21875 -2.15625 0.21875l-5.09375 0zm1.78125 -7.75l2.875 0q1.1875 0 1.6875 -0.140625q0.671875 -0.203125 1.015625 -0.6718674q0.34375 -0.46875 0.34375 -1.171875q0 -0.65625 -0.328125 -1.15625q-0.3125 -0.515625 -0.90625 -0.703125q-0.59375 -0.1875 -2.03125 -0.1875l-2.65625 0l0 4.0312424zm0 6.171875l3.3125 0q0.859375 0 1.203125 -0.0625q0.609375 -0.109375 1.015625 -0.359375q0.421875 -0.265625 0.6875 -0.75q0.265625 -0.484375 0.265625 -1.125q0 -0.75 -0.390625 -1.296875q-0.375 -0.546875 -1.0625 -0.765625q-0.671875 -0.234375 -1.953125 -0.234375l-3.078125 0l0 4.59375z" fill-rule="nonzero"/><path fill="#ffffff" d="m1159.1575 233.59842l0 0c0 -12.741684 10.702881 -23.070862 23.905518 -23.070862l0 0c6.340088 0 12.420654 2.4306793 16.903809 6.757309c4.4831543 4.3266144 7.001709 10.194778 7.001709 16.313553l0 0c0 12.741699 -10.702881 23.070862 -23.905518 23.070862l0 0c-13.202637 0 -23.905518 -10.329163 -23.905518 -23.070862z" fill-rule="evenodd"/><path stroke="#000000" stroke-width="4.0" stroke-linejoin="round" stroke-linecap="butt" d="m1159.1575 233.59842l0 0c0 -12.741684 10.702881 -23.070862 23.905518 -23.070862l0 0c6.340088 0 12.420654 2.4306793 16.903809 6.757309c4.4831543 4.3266144 7.001709 10.194778 7.001709 16.313553l0 0c0 12.741699 -10.702881 23.070862 -23.905518 23.070862l0 0c-13.202637 0 -23.905518 -10.329163 -23.905518 -23.070862z" fill-rule="evenodd"/><path fill="#000000" d="m1177.764 240.51842l0 -13.359375l4.609375 0q1.546875 0 2.375 0.203125q1.140625 0.25 1.953125 0.953125q1.0625 0.890625 1.578125 2.28125q0.53125 1.390625 0.53125 3.171875q0 1.515625 -0.359375 2.703125q-0.359375 1.171875 -0.921875 1.9375q-0.546875 0.765625 -1.203125 1.21875q-0.65625 0.4375 -1.59375 0.671875q-0.9375 0.21875 -2.140625 0.21875l-4.828125 0zm1.765625 -1.578125l2.859375 0q1.3125 0 2.0625 -0.234375q0.75 -0.25 1.203125 -0.703125q0.625 -0.625 0.96875 -1.6875q0.359375 -1.0625 0.359375 -2.578125q0 -2.09375 -0.6875 -3.21875q-0.6875 -1.125 -1.671875 -1.5q-0.703125 -0.28125 -2.28125 -0.28125l-2.8125 0l0 10.203125z" fill-rule="nonzero"/><path fill="#ffffff" d="m1014.6142 220.06299l0 0c0 -12.741684 10.70282 -23.070862 23.905457 -23.070862l0 0c6.34021 0 12.420654 2.4306793 16.903809 6.7572937c4.4831543 4.3266296 7.001709 10.194794 7.001709 16.313568l0 0c0 12.741684 -10.702881 23.070877 -23.905518 23.070877l0 0c-13.202637 0 -23.905457 -10.329193 -23.905457 -23.070877z" fill-rule="evenodd"/><path stroke="#000000" stroke-width="4.0" stroke-linejoin="round" stroke-linecap="butt" d="m1014.6142 220.06299l0 0c0 -12.741684 10.70282 -23.070862 23.905457 -23.070862l0 0c6.34021 0 12.420654 2.4306793 16.903809 6.7572937c4.4831543 4.3266296 7.001709 10.194794 7.001709 16.313568l0 0c0 12.741684 -10.702881 23.070877 -23.905518 23.070877l0 0c-13.202637 0 -23.905457 -10.329193 -23.905457 -23.070877z" fill-rule="evenodd"/><path fill="#000000" d="m1042.752 222.29549l1.765625 0.453125q-0.5625 2.171875 -2.0 3.328125q-1.4375 1.140625 -3.53125 1.140625q-2.15625 0 -3.515625 -0.875q-1.34375 -0.890625 -2.0625 -2.546875q-0.703125 -1.671875 -0.703125 -3.59375q0 -2.078125 0.796875 -3.625q0.796875 -1.5625 2.265625 -2.359375q1.484375 -0.8125 3.25 -0.8125q2.0 0 3.359375 1.015625q1.375 1.015625 1.90625 2.875l-1.734375 0.40625q-0.46875 -1.453125 -1.359375 -2.109375q-0.875 -0.671875 -2.203125 -0.671875q-1.546875 0 -2.578125 0.734375q-1.03125 0.734375 -1.453125 1.984375q-0.421875 1.234375 -0.421875 2.5625q0 1.703125 0.5 2.96875q0.5 1.265625 1.546875 1.90625q1.046875 0.625 2.265625 0.625q1.484375 0 2.515625 -0.859375q1.03125 -0.859375 1.390625 -2.546875z" fill-rule="nonzero"/><path fill="#000000" d="m1031.7832 228.19632l13.4729 0l0 1.6800079l-13.4729 0l0 -1.6800079z" fill-rule="nonzero"/><path fill="#000000" fill-opacity="0.0" d="m1038.4121 78.55905l73.95276 -36.409447" fill-rule="evenodd"/><path stroke="#000000" stroke-width="4.0" stroke-linejoin="round" stroke-linecap="butt" d="m1038.4121 78.55905l52.420776 -25.808575" fill-rule="evenodd"/><path fill="#000000" stroke="#000000" stroke-width="4.0" stroke-linecap="butt" d="m1093.7512 58.67796l13.36731 -13.945446l-19.203857 2.0904808z" fill-rule="evenodd"/><path fill="#000000" fill-opacity="0.0" d="m1151.9668 49.91199l70.20471 63.370075" fill-rule="evenodd"/><path stroke="#000000" stroke-width="4.0" stroke-linejoin="round" stroke-linecap="butt" d="m1151.9668 49.91199l52.389038 47.28889" fill-rule="evenodd"/><path fill="#000000" stroke="#000000" stroke-width="4.0" stroke-linecap="butt" d="m1199.929 102.105316l17.901733 7.258568l-9.047852 -17.067436z" fill-rule="evenodd"/><path fill="#000000" fill-opacity="0.0" d="m1228.6141 151.0l-33.795288 60.91339" fill-rule="evenodd"/><path stroke="#000000" stroke-width="4.0" stroke-linejoin="round" stroke-linecap="butt" d="m1228.6141 151.0l-22.151733 39.926956" fill-rule="evenodd"/><path fill="#000000" stroke="#000000" stroke-width="4.0" stroke-linecap="butt" d="m1200.685 187.72165l-3.0291748 19.078384l14.58374 -12.667755z" fill-rule="evenodd"/><path fill="#000000" fill-opacity="0.0" d="m1159.1575 233.59842l-96.724365 -13.543304" fill-rule="evenodd"/><path stroke="#000000" stroke-width="4.0" stroke-linejoin="round" stroke-linecap="butt" d="m1159.1575 233.59842l-72.9563 -10.2153015" fill-rule="evenodd"/><path fill="#000000" stroke="#000000" stroke-width="4.0" stroke-linecap="butt" d="m1087.1173 216.84003l-18.893066 4.025955l17.060791 9.060242z" fill-rule="evenodd"/><path fill="#000000" fill-opacity="0.0" d="m1030.9685 198.91864l-15.905518 -87.2126" fill-rule="evenodd"/><path stroke="#000000" stroke-width="4.0" stroke-linejoin="round" stroke-linecap="butt" d="m1030.9685 198.91864l-11.599487 -63.60205" fill-rule="evenodd"/><path fill="#000000" stroke="#000000" stroke-width="4.0" stroke-linecap="butt" d="m1025.8688 134.1312l-9.756592 -16.67244l-3.24292 19.043228z" fill-rule="evenodd"/><path fill="#000000" fill-opacity="0.0" d="m308.3071 245.44357l90.2677 0l0 -15.228348l30.456696 30.45668l-30.456696 30.456696l0 -15.2283325l-90.2677 0z" fill-rule="evenodd"/><path stroke="#000000" stroke-width="4.0" stroke-linejoin="round" stroke-linecap="butt" d="m308.3071 245.44357l90.2677 0l0 -15.228348l30.456696 30.45668l-30.456696 30.456696l0 -15.2283325l-90.2677 0z" fill-rule="evenodd"/><path fill="#000000" d="m317.88522 264.7013l1.625 -0.25q0.125 0.96875 0.75 1.5q0.625 0.515625 1.75 0.515625q1.125 0 1.671875 -0.453125q0.546875 -0.46875 0.546875 -1.09375q0 -0.546875 -0.484375 -0.875q-0.328125 -0.21875 -1.671875 -0.546875q-1.8125 -0.46875 -2.515625 -0.796875q-0.6875 -0.328125 -1.046875 -0.90625q-0.359375 -0.59375 -0.359375 -1.3125q0 -0.640625 0.296875 -1.1875q0.296875 -0.5625 0.8125 -0.921875q0.375 -0.28125 1.03125 -0.46875q0.671875 -0.203125 1.421875 -0.203125q1.140625 0 2.0 0.328125q0.859375 0.328125 1.265625 0.890625q0.421875 0.5625 0.578125 1.5l-1.609375 0.21875q-0.109375 -0.75 -0.640625 -1.171875q-0.515625 -0.421875 -1.46875 -0.421875q-1.140625 0 -1.625 0.375q-0.46875 0.375 -0.46875 0.875q0 0.3125 0.1875 0.578125q0.203125 0.265625 0.640625 0.4375q0.234375 0.09375 1.4375 0.421875q1.75 0.453125 2.4375 0.75q0.6875 0.296875 1.078125 0.859375q0.390625 0.5625 0.390625 1.40625q0 0.828125 -0.484375 1.546875q-0.46875 0.71875 -1.375 1.125q-0.90625 0.390625 -2.046875 0.390625q-1.875 0 -2.875 -0.78125q-0.984375 -0.78125 -1.25 -2.328125zm9.984375 6.59375l0 -13.375l1.484375 0l0 1.25q0.53125 -0.734375 1.1875 -1.09375q0.671875 -0.375 1.625 -0.375q1.234375 0 2.171875 0.640625q0.953125 0.625 1.4375 1.796875q0.484375 1.15625 0.484375 2.546875q0 1.484375 -0.53125 2.671875q-0.53125 1.1875 -1.546875 1.828125q-1.015625 0.625 -2.140625 0.625q-0.8125 0 -1.46875 -0.34375q-0.65625 -0.34375 -1.0625 -0.875l0 4.703125l-1.640625 0zm1.484375 -8.484375q0 1.859375 0.75 2.765625q0.765625 0.890625 1.828125 0.890625q1.09375 0 1.875 -0.921875q0.78125 -0.9375 0.78125 -2.875q0 -1.84375 -0.765625 -2.765625q-0.75 -0.921875 -1.8125 -0.921875q-1.046875 0 -1.859375 0.984375q-0.796875 0.96875 -0.796875 2.84375zm8.844452 4.78125l0 -13.359375l1.640625 0l0 13.359375l-1.640625 0zm4.1917114 -11.46875l0 -1.890625l1.640625 0l0 1.890625l-1.640625 0zm0 11.46875l0 -9.671875l1.640625 0l0 9.671875l-1.640625 0zm7.722931 -1.46875l0.234375 1.453125q-0.6875 0.140625 -1.234375 0.140625q-0.890625 0 -1.390625 -0.28125q-0.484375 -0.28125 -0.6875 -0.734375q-0.203125 -0.46875 -0.203125 -1.9375l0 -5.578125l-1.203125 0l0 -1.265625l1.203125 0l0 -2.390625l1.625 -0.984375l0 3.375l1.65625 0l0 1.265625l-1.65625 0l0 5.671875q0 0.6875 0.078125 0.890625q0.09375 0.203125 0.28125 0.328125q0.203125 0.109375 0.578125 0.109375q0.265625 0 0.71875 -0.0625zm13.116608 1.46875l0 -1.421875q-1.125 1.640625 -3.0625 1.640625q-0.859375 0 -1.609375 -0.328125q-0.734375 -0.328125 -1.09375 -0.828125q-0.359375 -0.5 -0.5 -1.21875q-0.109375 -0.46875 -0.109375 -1.53125l0 -5.984375l1.640625 0l0 5.359375q0 1.28125 0.109375 1.734375q0.15625 0.640625 0.65625 1.015625q0.5 0.375 1.234375 0.375q0.734375 0 1.375 -0.375q0.65625 -0.390625 0.921875 -1.03125q0.265625 -0.65625 0.265625 -1.890625l0 -5.1875l1.640625 0l0 9.671875l-1.46875 0zm4.0476074 3.703125l0 -13.375l1.484375 0l0 1.25q0.53125 -0.734375 1.1875 -1.09375q0.671875 -0.375 1.625 -0.375q1.234375 0 2.171875 0.640625q0.953125 0.625 1.4375 1.796875q0.484375 1.15625 0.484375 2.546875q0 1.484375 -0.53125 2.671875q-0.53125 1.1875 -1.546875 1.828125q-1.015625 0.625 -2.140625 0.625q-0.8125 0 -1.46875 -0.34375q-0.65625 -0.34375 -1.0625 -0.875l0 4.703125l-1.640625 0zm1.484375 -8.484375q0 1.859375 0.75 2.765625q0.765625 0.890625 1.828125 0.890625q1.09375 0 1.875 -0.921875q0.78125 -0.9375 0.78125 -2.875q0 -1.84375 -0.765625 -2.765625q-0.75 -0.921875 -1.8125 -0.921875q-1.046875 0 -1.859375 0.984375q-0.796875 0.96875 -0.796875 2.84375z" fill-rule="nonzero"/><path fill="#000000" fill-opacity="0.0" d="m772.30707 247.04723l79.433105 0l0 -16.832l41.29132 41.291336l-41.29132 41.29135l0 -16.832l-79.433105 0z" fill-rule="evenodd"/><path stroke="#000000" stroke-width="4.0" stroke-linejoin="round" stroke-linecap="butt" d="m772.30707 247.04723l79.433105 0l0 -16.832l41.29132 41.291336l-41.29132 41.29135l0 -16.832l-79.433105 0z" fill-rule="evenodd"/><path fill="#000000" d="m782.54144 271.1297l0 -13.375l1.484375 0l0 1.25q0.53125 -0.734375 1.1875 -1.09375q0.671875 -0.375 1.625 -0.375q1.234375 0 2.171875 0.640625q0.953125 0.625 1.4375 1.796875q0.484375 1.15625 0.484375 2.546875q0 1.484375 -0.53125 2.671875q-0.53125 1.1875 -1.546875 1.828125q-1.015625 0.625 -2.140625 0.625q-0.8125 0 -1.46875 -0.34375q-0.65625 -0.34375 -1.0625 -0.875l0 4.703125l-1.640625 0zm1.484375 -8.484375q0 1.859375 0.75 2.765625q0.765625 0.890625 1.828125 0.890625q1.09375 0 1.875 -0.921875q0.78125 -0.9375 0.78125 -2.875q0 -1.84375 -0.765625 -2.765625q-0.75 -0.921875 -1.8125 -0.921875q-1.046875 0 -1.859375 0.984375q-0.796875 0.96875 -0.796875 2.84375zm15.219482 4.78125l0 -1.421875q-1.125 1.640625 -3.0625 1.640625q-0.859375 0 -1.609375 -0.328125q-0.734375 -0.328125 -1.09375 -0.828125q-0.359375 -0.5 -0.5 -1.21875q-0.109375 -0.46875 -0.109375 -1.53125l0 -5.984375l1.640625 0l0 5.359375q0 1.28125 0.109375 1.734375q0.15625 0.640625 0.65625 1.015625q0.5 0.375 1.234375 0.375q0.734375 0 1.375 -0.375q0.65625 -0.390625 0.921875 -1.03125q0.265625 -0.65625 0.265625 -1.890625l0 -5.1875l1.640625 0l0 9.671875l-1.46875 0zm7.6257324 -1.46875l0.234375 1.453125q-0.6875 0.140625 -1.234375 0.140625q-0.890625 0 -1.390625 -0.28125q-0.484375 -0.28125 -0.6875 -0.734375q-0.203125 -0.46875 -0.203125 -1.9375l0 -5.578125l-1.203125 0l0 -1.265625l1.203125 0l0 -2.3906403l1.625 -0.984375l0 3.3750153l1.65625 0l0 1.265625l-1.65625 0l0 5.671875q0 0.6875 0.078125 0.890625q0.09375 0.203125 0.28125 0.328125q0.203125 0.109375 0.578125 0.109375q0.265625 0 0.71875 -0.0625z" fill-rule="nonzero"/><path fill="#000000" d="m786.11957 287.9578l0.234375 1.453125q-0.6875 0.140625 -1.234375 0.140625q-0.890625 0 -1.390625 -0.28125q-0.484375 -0.28125 -0.6875 -0.734375q-0.203125 -0.46875 -0.203125 -1.9375l0 -5.578125l-1.203125 0l0 -1.265625l1.203125 0l0 -2.390625l1.625 -0.984375l0 3.375l1.65625 0l0 1.265625l-1.65625 0l0 5.671875q0 0.6875 0.078125 0.890625q0.09375 0.203125 0.28125 0.328125q0.203125 0.109375 0.578125 0.109375q0.265625 0 0.71875 -0.0625zm0.9958496 -3.375q0 -2.6875 1.484375 -3.96875q1.25 -1.078125 3.046875 -1.078125q2.0 0 3.265625 1.3125q1.265625 1.296875 1.265625 3.609375q0 1.859375 -0.5625 2.9375q-0.5625 1.0625 -1.640625 1.65625q-1.0625 0.59375 -2.328125 0.59375q-2.03125 0 -3.28125 -1.296875q-1.25 -1.3125 -1.25 -3.765625zm1.6875 0q0 1.859375 0.796875 2.796875q0.8125 0.921875 2.046875 0.921875q1.21875 0 2.03125 -0.921875q0.8125 -0.9375 0.8125 -2.84375q0 -1.796875 -0.8125 -2.71875q-0.8125 -0.921875 -2.03125 -0.921875q-1.234375 0 -2.046875 0.921875q-0.796875 0.90625 -0.796875 2.765625zm8.985046 5.640625l1.59375 0.234375q0.109375 0.75 0.5625 1.078125q0.609375 0.453125 1.671875 0.453125q1.140625 0 1.75 -0.453125q0.625 -0.453125 0.84375 -1.265625q0.125 -0.5 0.109375 -2.109375q-1.0625 1.265625 -2.671875 1.265625q-2.0 0 -3.09375 -1.4375q-1.09375 -1.4375 -1.09375 -3.453125q0 -1.390625 0.5 -2.5625q0.515625 -1.171875 1.453125 -1.796875q0.953125 -0.640625 2.25 -0.640625q1.703125 0 2.8125 1.375l0 -1.15625l1.515625 0l0 8.359375q0 2.265625 -0.46875 3.203125q-0.453125 0.9375 -1.453125 1.484375q-0.984375 0.546875 -2.453125 0.546875q-1.71875 0 -2.796875 -0.78125q-1.0625 -0.765625 -1.03125 -2.34375zm1.359375 -5.8125q0 1.90625 0.75 2.78125q0.765625 0.875 1.90625 0.875q1.125 0 1.890625 -0.859375q0.765625 -0.875 0.765625 -2.734375q0 -1.78125 -0.796875 -2.671875q-0.78125 -0.90625 -1.890625 -0.90625q-1.09375 0 -1.859375 0.890625q-0.765625 0.875 -0.765625 2.625zm15.953857 1.90625l1.6875 0.203125q-0.40625 1.484375 -1.484375 2.3125q-1.078125 0.8125 -2.765625 0.8125q-2.125 0 -3.375 -1.296875q-1.234375 -1.3125 -1.234375 -3.671875q0 -2.453125 1.25 -3.796875q1.265625 -1.34375 3.265625 -1.34375q1.9375 0 3.15625 1.328125q1.234375 1.3125 1.234375 3.703125q0 0.15625 0 0.4375l-7.21875 0q0.09375 1.59375 0.90625 2.453125q0.8125 0.84375 2.015625 0.84375q0.90625 0 1.546875 -0.46875q0.640625 -0.484375 1.015625 -1.515625zm-5.390625 -2.65625l5.40625 0q-0.109375 -1.21875 -0.625 -1.828125q-0.78125 -0.953125 -2.03125 -0.953125q-1.125 0 -1.90625 0.765625q-0.765625 0.75 -0.84375 2.015625zm12.719482 4.296875l0.234375 1.453125q-0.6875 0.140625 -1.234375 0.140625q-0.890625 0 -1.390625 -0.28125q-0.484375 -0.28125 -0.6875 -0.734375q-0.203125 -0.46875 -0.203125 -1.9375l0 -5.578125l-1.203125 0l0 -1.265625l1.203125 0l0 -2.390625l1.625 -0.984375l0 3.375l1.65625 0l0 1.265625l-1.65625 0l0 5.671875q0 0.6875 0.078125 0.890625q0.09375 0.203125 0.28125 0.328125q0.203125 0.109375 0.578125 0.109375q0.265625 0 0.71875 -0.0625zm1.6051636 1.46875l0 -13.359375l1.640625 0l0 4.796875q1.140625 -1.328125 2.890625 -1.328125q1.078125 0 1.859375 0.421875q0.796875 0.421875 1.140625 1.171875q0.34375 0.75 0.34375 2.171875l0 6.125l-1.640625 0l0 -6.125q0 -1.234375 -0.53125 -1.796875q-0.53125 -0.5625 -1.515625 -0.5625q-0.71875 0 -1.359375 0.390625q-0.640625 0.375 -0.921875 1.015625q-0.265625 0.640625 -0.265625 1.78125l0 5.296875l-1.640625 0zm17.000732 -3.109375l1.6875 0.203125q-0.40625 1.484375 -1.484375 2.3125q-1.078125 0.8125 -2.765625 0.8125q-2.125 0 -3.375 -1.296875q-1.234375 -1.3125 -1.234375 -3.671875q0 -2.453125 1.25 -3.796875q1.265625 -1.34375 3.265625 -1.34375q1.9375 0 3.15625 1.328125q1.234375 1.3125 1.234375 3.703125q0 0.15625 0 0.4375l-7.21875 0q0.09375 1.59375 0.90625 2.453125q0.8125 0.84375 2.015625 0.84375q0.90625 0 1.546875 -0.46875q0.640625 -0.484375 1.015625 -1.515625zm-5.390625 -2.65625l5.40625 0q-0.109375 -1.21875 -0.625 -1.828125q-0.78125 -0.953125 -2.03125 -0.953125q-1.125 0 -1.90625 0.765625q-0.765625 0.75 -0.84375 2.015625zm9.125732 5.765625l0 -9.671875l1.46875 0l0 1.46875q0.5625 -1.03125 1.03125 -1.359375q0.484375 -0.328125 1.0625 -0.328125q0.828125 0 1.6875 0.53125l-0.5625 1.515625q-0.609375 -0.359375 -1.203125 -0.359375q-0.546875 0 -0.96875 0.328125q-0.421875 0.328125 -0.609375 0.890625q-0.28125 0.875 -0.28125 1.921875l0 5.0625l-1.625 0z" fill-rule="nonzero"/><path fill="#000000" fill-opacity="0.0" d="m855.09015 234.9775l56.15747 -56.157486l-11.901794 -11.901794l58.393677 0l0 58.393692l-11.901794 -11.901794l-56.15747 56.157486z" fill-rule="evenodd"/><path stroke="#000000" stroke-width="4.0" stroke-linejoin="round" stroke-linecap="butt" d="m855.09015 234.9775l56.15747 -56.157486l-11.901794 -11.901794l58.393677 0l0 58.393692l-11.901794 -11.901794l-56.15747 56.157486z" fill-rule="evenodd"/><path fill="#000000" d="m879.68695 245.56474q-2.3533325 -2.3533325 -2.4196167 -4.93869q-0.07739258 -2.596405 1.9224243 -4.5961914q1.3037109 -1.3037415 2.9830933 -1.723587q1.668335 -0.43089294 3.3477173 0.14363098q1.668335 0.56347656 3.0825195 1.9776917q1.4363403 1.4363098 1.9887695 3.1598816q0.5524292 1.701477 0.07733154 3.3477173q-0.47509766 1.646225 -1.7125244 2.883667q-1.3258057 1.3258209 -3.0162354 1.7346191q-1.701477 0.39775085 -3.3587646 -0.17677307q-1.6572876 -0.5745239 -2.8947144 -1.811966zm1.2926636 -1.2705841q1.7125244 1.7125244 3.612854 1.7788239q1.9003906 0.06628418 3.2924805 -1.3258209q1.4142456 -1.4142151 1.3258667 -3.3145752q-0.08843994 -1.9003448 -1.911438 -3.7233582q-1.1490479 -1.1490479 -2.397522 -1.6241302q-1.2484741 -0.4750824 -2.4638062 -0.18782043q-1.2263794 0.2762146 -2.15448 1.2042847q-1.336853 1.3368683 -1.3811035 3.2151337q-0.044189453 1.8561554 2.0771484 3.9774628zm16.415161 -2.0078583l-9.45752 -9.45755l1.0496216 -1.0496216l0.8838501 0.8838806q-0.14361572 -0.894928 0.06628418 -1.6130829q0.20996094 -0.74024963 0.88391113 -1.4142151q0.87280273 -0.87283325 1.9887085 -1.0827484q1.1159058 -0.23202515 2.2870483 0.2541046q1.1600952 0.47509766 2.1434326 1.4584198q1.0496216 1.0496063 1.5136719 2.2649384q0.46398926 1.2153473 0.19885254 2.3864899q-0.27624512 1.1600952 -1.0717163 1.9555969q-0.5745239 0.5745239 -1.2816162 0.79548645q-0.7070923 0.22097778 -1.3700562 0.13258362l3.3256226 3.3256226l-1.1600952 1.1600952zm-4.949707 -7.0489807q1.3147583 1.3147888 2.4859009 1.4252625q1.1711426 0.088394165 1.9224243 -0.66290283q0.7734375 -0.773407 0.6739502 -1.9776917q-0.11047363 -1.2153473 -1.4804688 -2.5853577q-1.3037109 -1.3037262 -2.4969482 -1.4142151q-1.182251 -0.121536255 -1.9335327 0.62976074q-0.7402344 0.7402649 -0.6187134 2.0108337q0.121520996 1.2484894 1.4473877 2.5743103zm11.159485 -6.474945l1.1932983 0.8617859q-0.38671875 0.5855713 -0.7734375 0.9722748q-0.62976074 0.62976074 -1.18219 0.7844391q-0.54138184 0.14363098 -1.0054321 -0.03314209q-0.47509766 -0.18782043 -1.5136108 -1.2263947l-3.944336 -3.9443207l-0.85076904 0.8507385l-0.89489746 -0.89494324l0.850708 -0.85072327l-1.6904297 -1.6904297l0.45300293 -1.845108l2.3864746 2.3864746l1.1711426 -1.1711426l0.8949585 0.89494324l-1.1711426 1.1711426l4.01062 4.01062q0.48614502 0.48612976 0.68499756 0.5745239q0.2098999 0.07733154 0.4309082 0.03314209q0.22094727 -0.06628418 0.48614502 -0.33145142q0.18780518 -0.1878357 0.46398926 -0.5524292zm-5.936035 -8.2061l-1.336853 -1.3368835l1.1600952 -1.1600952l1.336853 1.3368835l-1.1600952 1.1600952zm8.10968 8.109634l-6.8390503 -6.8390503l1.1600952 -1.1600952l6.8390503 6.8390503l-1.1600952 1.1600952zm-0.92510986 -5.924988q-1.9003906 -1.9003601 -1.7567139 -3.8559418q0.121520996 -1.6462402 1.3920898 -2.9168243q1.4141846 -1.4142151 3.2372437 -1.3810577q1.8119507 0.022094727 3.4471436 1.6572723q1.3147583 1.3147736 1.6793823 2.474884q0.35351562 1.1490479 0.011047363 2.3312378q-0.33148193 1.1711426 -1.2264404 2.0660706q-1.4362793 1.4363098 -3.2371826 1.4031677q-1.8119507 -0.044189453 -3.5465698 -1.7788086zm1.1932373 -1.1932526q1.3147583 1.3147888 2.5411377 1.4142151q1.2263794 0.0773468 2.0992432 -0.79548645q0.8617554 -0.8617859 0.7844238 -2.0881805q-0.088378906 -1.237442 -1.4362793 -2.5853577q-1.2706299 -1.2705841 -2.4970093 -1.3479156q-1.2263794 -0.0773468 -2.0881348 0.7844391q-0.87286377 0.87283325 -0.7955322 2.099228q0.07733154 1.2042847 1.3921509 2.5190582zm9.99939 -3.1493378l-6.8389893 -6.8390503l1.0385132 -1.038559l0.97229004 0.9722748q-0.3756714 -1.8782501 1.0496216 -3.3035126q0.6187134 -0.61872864 1.3589478 -0.91703796q0.7402954 -0.29830933 1.3590088 -0.18782043q0.6187134 0.088394165 1.215332 0.48612976q0.3866577 0.25411987 1.1932373 1.060669l4.2094727 4.209488l-1.1600952 1.1600952l-4.165283 -4.1652985q-0.7070923 -0.70710754 -1.1932373 -0.90597534q-0.48614502 -0.22097778 -1.0385742 -0.088394165q-0.5524292 0.13258362 -1.0164795 0.59661865q-0.7402344 0.7402649 -0.80651855 1.7567291q-0.06628418 0.9943695 1.2484741 2.309143l3.734436 3.7344055l-1.1601562 1.1600952zm15.045715 -15.045654l-1.1601562 1.1600952l-7.3914185 -7.3914795q-0.022094727 0.81759644 -0.29833984 1.9114075q-0.27618408 1.071701 -0.6187134 1.8119507l-1.1269531 -1.1269379q0.5192871 -1.4252625 0.59661865 -2.8063354q0.07733154 -1.381073 -0.23199463 -2.2870483l0.75128174 -0.751297l9.479675 9.479645z" fill-rule="nonzero"/><path fill="#000000" fill-opacity="0.0" d="m891.23926 274.50244l56.15753 56.15747l11.901794 -11.901794l0 58.393677l-58.393738 0l11.901855 -11.901794l-56.15753 -56.15747z" fill-rule="evenodd"/><path stroke="#000000" stroke-width="4.0" stroke-linejoin="round" stroke-linecap="butt" d="m891.23926 274.50244l56.15753 56.15747l11.901794 -11.901794l0 58.393677l-58.393738 0l11.901855 -11.901794l-56.15753 -56.15747z" fill-rule="evenodd"/><path fill="#000000" d="m880.65204 299.09924q2.3533325 -2.353363 4.9387207 -2.4196472q2.5963745 -0.07733154 4.5961914 1.9224548q1.3037109 1.3037415 1.7235718 2.9830933q0.43084717 1.668335 -0.14367676 3.3477173q-0.56347656 1.668335 -1.9776611 3.08255q-1.4363403 1.4363098 -3.159912 1.988739q-1.701477 0.5524292 -3.3477173 0.07733154q-1.6461792 -0.47506714 -2.883667 -1.7125244q-1.3258057 -1.3258057 -1.7346191 -3.0162354q-0.39770508 -1.701477 0.17681885 -3.3587646q0.5745239 -1.6572876 1.8119507 -2.8947144zm1.2705688 1.2926636q-1.7125244 1.7125244 -1.7788086 3.6128845q-0.06628418 1.9003601 1.3258057 3.29245q1.4142456 1.4142151 3.3145752 1.3258362q1.9003296 -0.088378906 3.7233887 -1.9114075q1.1490479 -1.1490479 1.6240845 -2.397522q0.47509766 -1.2484741 0.18786621 -2.4638367q-0.27624512 -1.2263794 -1.2042847 -2.1544495q-1.3369141 -1.3368835 -3.215149 -1.381073q-1.8561401 -0.044189453 -3.977478 2.077118zm2.0078735 16.415161l9.457581 -9.45755l1.0495605 1.0496216l-0.8838501 0.8838806q0.89489746 -0.14361572 1.6130981 0.06628418q0.7402344 0.20993042 1.4141846 0.8838806q0.87286377 0.87286377 1.0827637 1.988739q0.23199463 1.1159058 -0.25408936 2.2870483q-0.47509766 1.1601257 -1.458435 2.1434326q-1.0496216 1.0496216 -2.2649536 1.5136414q-1.215332 0.4640503 -2.3864746 0.19888306q-1.1600952 -0.2762146 -1.9556274 -1.0717163q-0.5745239 -0.5745239 -0.7954712 -1.2816162q-0.22094727 -0.7071228 -0.13256836 -1.3700256l-3.3256226 3.3256226l-1.1600952 -1.1601257zm7.04895 -4.9497375q-1.3147583 1.3147888 -1.4252319 2.4859314q-0.088378906 1.1711426 0.66290283 1.9224548q0.77337646 0.77337646 1.9776611 0.6739502q1.2153931 -0.11047363 2.5853882 -1.4804993q1.3037109 -1.3037415 1.4141846 -2.4969788q0.12158203 -1.18219 -0.62976074 -1.9335022q-0.7402344 -0.7402344 -2.0108032 -0.6187134q-1.2484741 0.12155151 -2.5743408 1.4473572zm6.4749756 11.159546l-0.8618164 1.1932373q-0.5855713 -0.38668823 -0.972229 -0.773407q-0.62976074 -0.62976074 -0.78448486 -1.18219q-0.14361572 -0.54138184 0.03314209 -1.0054016q0.18786621 -0.47509766 1.2264404 -1.5136719l3.944275 -3.9443054l-0.850708 -0.8507385l0.8949585 -0.8949585l0.850708 0.8507385l1.6904297 -1.6903992l1.8450928 0.4529724l-2.3864746 2.3864746l1.1711426 1.1711731l-0.89489746 0.894928l-1.1711426 -1.1711426l-4.010681 4.01062q-0.48608398 0.4861145 -0.5745239 0.68499756q-0.07733154 0.20993042 -0.03314209 0.4309082q0.066345215 0.22094727 0.33148193 0.4861145q0.18780518 0.1878357 0.5524292 0.4640503zm8.206116 -5.936035l1.336853 -1.3368835l1.1600952 1.1600952l-1.336853 1.3368835l-1.1600952 -1.1600952zm-8.109619 8.109619l6.8389893 -6.8390503l1.1601562 1.1600952l-6.8390503 6.8390503l-1.1600952 -1.1600952zm5.924988 -0.92510986q1.9003296 -1.9003296 3.855896 -1.7567139q1.6462402 0.121520996 2.916809 1.3921204q1.4142456 1.4142151 1.3811035 3.2372131q-0.022094727 1.8119812 -1.6572876 3.4471436q-1.3147583 1.3147888 -2.4748535 1.6793823q-1.1490479 0.35354614 -2.3312988 0.011047363q-1.1711426 -0.33145142 -2.06604 -1.2263794q-1.4363403 -1.4363098 -1.4031982 -3.2372131q0.044189453 -1.8119812 1.7788696 -3.5466003zm1.1932373 1.1932373q-1.3148193 1.3147888 -1.4142456 2.5411682q-0.07733154 1.2264099 0.7955322 2.0992432q0.8617554 0.8617859 2.0881348 0.7844238q1.2374268 -0.088378906 2.5853882 -1.4363098q1.2705688 -1.2705688 1.3479004 -2.4969482q0.07733154 -1.2264099 -0.7844238 -2.0881958q-0.87286377 -0.87283325 -2.0992432 -0.7954712q-1.2042847 0.07733154 -2.519043 1.3920898zm3.149292 9.999451l6.8390503 -6.8390503l1.0385742 1.0385742l-0.97229004 0.9722595q1.8782959 -0.37564087 3.3035278 1.0496216q0.6187134 0.6187134 0.9170532 1.3589783q0.2982788 0.7402344 0.18780518 1.3589478q-0.088378906 0.6187134 -0.48614502 1.2153625q-0.25408936 0.38668823 -1.0606079 1.1932373l-4.2095337 4.2094727l-1.1600952 -1.1600952l4.165283 -4.165283q0.7071533 -0.7071228 0.90600586 -1.1932373q0.22094727 -0.48614502 0.088378906 -1.0385742q-0.13256836 -0.5524292 -0.59661865 -1.0164795q-0.7402344 -0.7402344 -1.7567139 -0.80651855q-0.99438477 -0.0663147 -2.309143 1.2484741l-3.734436 3.7344055l-1.1600952 -1.1600952zm17.885132 15.65332l-1.1159058 1.1159058l-6.2423706 -6.2424316q0.40875244 -0.4308777 0.9390869 -0.6739502q0.88391113 -0.3977661 2.0219116 -0.49719238q1.1490479 -0.088378906 2.9499512 0.09942627q2.795288 0.2762146 4.0769043 0.07736206q1.2816162 -0.19888306 1.9334717 -0.8507385q0.69610596 -0.69607544 0.66296387 -1.6572876q-0.011047363 -0.96121216 -0.8065796 -1.7567139q-0.83966064 -0.83969116 -1.8561401 -0.83969116q-0.99438477 0 -1.8782349 0.8838806l-1.0717163 -1.3147888q1.458374 -1.215332 2.9499512 -1.1159058q1.5026245 0.11050415 2.8394775 1.4473877q1.3589478 1.3589478 1.4031372 2.9057617q0.044189453 1.5467834 -1.0717163 2.6626892q-0.56347656 0.56347656 -1.3479004 0.8838806q-0.7844238 0.32040405 -1.9334717 0.38668823q-1.1269531 0.0663147 -3.4471436 -0.13256836q-1.911438 -0.16574097 -2.5301514 -0.14361572q-0.607666 0.011047363 -1.1048584 0.13256836l4.6293335 4.6293335z" fill-rule="nonzero"/><path fill="#ffffff" d="m999.1575 400.63516l0 0c0 -12.741669 10.702881 -23.070862 23.905518 -23.070862l0 0c6.340088 0 12.420654 2.430664 16.903809 6.7572937c4.4831543 4.3266296 7.001709 10.194794 7.001709 16.313568l0 0c0 12.741699 -10.702881 23.070862 -23.905518 23.070862l0 0c-13.202637 0 -23.905518 -10.329163 -23.905518 -23.070862z" fill-rule="evenodd"/><path stroke="#000000" stroke-width="4.0" stroke-linejoin="round" stroke-linecap="butt" d="m999.1575 400.63516l0 0c0 -12.741669 10.702881 -23.070862 23.905518 -23.070862l0 0c6.340088 0 12.420654 2.430664 16.903809 6.7572937c4.4831543 4.3266296 7.001709 10.194794 7.001709 16.313568l0 0c0 12.741699 -10.702881 23.070862 -23.905518 23.070862l0 0c-13.202637 0 -23.905518 -10.329163 -23.905518 -23.070862z" fill-rule="evenodd"/><path fill="#000000" d="m1016.80994 407.55518l5.125 -13.359375l1.90625 0l5.46875 13.359375l-2.015625 0l-1.546875 -4.046875l-5.59375 0l-1.46875 4.046875l-1.875 0zm3.859375 -5.484375l4.53125 0l-1.40625 -3.703125q-0.625 -1.6875 -0.9375 -2.765625q-0.265625 1.28125 -0.71875 2.546875l-1.46875 3.921875z" fill-rule="nonzero"/><path fill="#ffffff" d="m1111.1575 337.59842l0 0c0 -12.741669 10.702881 -23.070862 23.905518 -23.070862l0 0c6.340088 0 12.420654 2.430664 16.903809 6.7572937c4.4831543 4.3266296 7.001709 10.194794 7.001709 16.313568l0 0c0 12.741699 -10.702881 23.070862 -23.905518 23.070862l0 0c-13.202637 0 -23.905518 -10.329163 -23.905518 -23.070862z" fill-rule="evenodd"/><path stroke="#000000" stroke-width="4.0" stroke-linejoin="round" stroke-linecap="butt" d="m1111.1575 337.59842l0 0c0 -12.741669 10.702881 -23.070862 23.905518 -23.070862l0 0c6.340088 0 12.420654 2.430664 16.903809 6.7572937c4.4831543 4.3266296 7.001709 10.194794 7.001709 16.313568l0 0c0 12.741699 -10.702881 23.070862 -23.905518 23.070862l0 0c-13.202637 0 -23.905518 -10.329163 -23.905518 -23.070862z" fill-rule="evenodd"/><path fill="#000000" d="m1130.3099 344.51843l0 -13.359375l9.65625 0l0 1.578125l-7.875 0l0 4.09375l7.375 0l0 1.5625l-7.375 0l0 4.546875l8.1875 0l0 1.578125l-9.96875 0z" fill-rule="nonzero"/><path fill="#000000" d="m1128.8412 345.73175l12.4436035 0l0 1.6799927l-12.4436035 0l0 -1.6799927z" fill-rule="nonzero"/><path fill="#ffffff" d="m1159.1575 380.13123l0 0c0 -12.741669 10.702881 -23.070862 23.905518 -23.070862l0 0c6.340088 0 12.420654 2.430664 16.903809 6.7572937c4.4831543 4.3266296 7.001709 10.194794 7.001709 16.313568l0 0c0 12.741699 -10.702881 23.070862 -23.905518 23.070862l0 0c-13.202637 0 -23.905518 -10.329163 -23.905518 -23.070862z" fill-rule="evenodd"/><path stroke="#000000" stroke-width="4.0" stroke-linejoin="round" stroke-linecap="butt" d="m1159.1575 380.13123l0 0c0 -12.741669 10.702881 -23.070862 23.905518 -23.070862l0 0c6.340088 0 12.420654 2.430664 16.903809 6.7572937c4.4831543 4.3266296 7.001709 10.194794 7.001709 16.313568l0 0c0 12.741699 -10.702881 23.070862 -23.905518 23.070862l0 0c-13.202637 0 -23.905518 -10.329163 -23.905518 -23.070862z" fill-rule="evenodd"/><path fill="#000000" d="m1178.2006 387.05124l0 -13.359375l5.015625 0q1.53125 0 2.453125 0.40625q0.921875 0.40625 1.4375 1.25q0.53125 0.84375 0.53125 1.765625q0 0.859375 -0.46875 1.625q-0.453125 0.75 -1.390625 1.203125q1.203125 0.359375 1.859375 1.21875q0.65625 0.859375 0.65625 2.015625q0 0.9375 -0.40625 1.75q-0.390625 0.796875 -0.984375 1.234375q-0.578125 0.4375 -1.453125 0.671875q-0.875 0.21875 -2.15625 0.21875l-5.09375 0zm1.78125 -7.75l2.875 0q1.1875 0 1.6875 -0.140625q0.671875 -0.203125 1.015625 -0.671875q0.34375 -0.46875 0.34375 -1.171875q0 -0.65625 -0.328125 -1.15625q-0.3125 -0.515625 -0.90625 -0.703125q-0.59375 -0.1875 -2.03125 -0.1875l-2.65625 0l0 4.03125zm0 6.171875l3.3125 0q0.859375 0 1.203125 -0.0625q0.609375 -0.109375 1.015625 -0.359375q0.421875 -0.265625 0.6875 -0.75q0.265625 -0.484375 0.265625 -1.125q0 -0.75 -0.390625 -1.296875q-0.375 -0.546875 -1.0625 -0.765625q-0.671875 -0.234375 -1.953125 -0.234375l-3.078125 0l0 4.59375z" fill-rule="nonzero"/><path fill="#ffffff" d="m1159.1575 497.59842l0 0c0 -12.741669 10.702881 -23.070862 23.905518 -23.070862l0 0c6.340088 0 12.420654 2.430664 16.903809 6.7572937c4.4831543 4.3266296 7.001709 10.194794 7.001709 16.313568l0 0c0 12.741699 -10.702881 23.070892 -23.905518 23.070892l0 0c-13.202637 0 -23.905518 -10.329193 -23.905518 -23.070892z" fill-rule="evenodd"/><path stroke="#000000" stroke-width="4.0" stroke-linejoin="round" stroke-linecap="butt" d="m1159.1575 497.59842l0 0c0 -12.741669 10.702881 -23.070862 23.905518 -23.070862l0 0c6.340088 0 12.420654 2.430664 16.903809 6.7572937c4.4831543 4.3266296 7.001709 10.194794 7.001709 16.313568l0 0c0 12.741699 -10.702881 23.070892 -23.905518 23.070892l0 0c-13.202637 0 -23.905518 -10.329193 -23.905518 -23.070892z" fill-rule="evenodd"/><path fill="#000000" d="m1177.764 504.51843l0 -13.359375l4.609375 0q1.546875 0 2.375 0.203125q1.140625 0.25 1.953125 0.953125q1.0625 0.890625 1.578125 2.28125q0.53125 1.390625 0.53125 3.171875q0 1.515625 -0.359375 2.703125q-0.359375 1.171875 -0.921875 1.9375q-0.546875 0.765625 -1.203125 1.21875q-0.65625 0.4375 -1.59375 0.671875q-0.9375 0.21875 -2.140625 0.21875l-4.828125 0zm1.765625 -1.578125l2.859375 0q1.3125 0 2.0625 -0.234375q0.75 -0.25 1.203125 -0.703125q0.625 -0.625 0.96875 -1.6875q0.359375 -1.0625 0.359375 -2.578125q0 -2.09375 -0.6875 -3.21875q-0.6875 -1.125 -1.671875 -1.5q-0.703125 -0.28125 -2.28125 -0.28125l-2.8125 0l0 10.203125z" fill-rule="nonzero"/><path fill="#ffffff" d="m1062.4121 454.1811l0 0c0 -12.741669 10.702881 -23.070862 23.905518 -23.070862l0 0c6.340088 0 12.420532 2.4306946 16.903687 6.7572937c4.4831543 4.3266296 7.001831 10.194794 7.001831 16.313568l0 0c0 12.741699 -10.702881 23.070892 -23.905518 23.070892l0 0c-13.202637 0 -23.905518 -10.329193 -23.905518 -23.070892z" fill-rule="evenodd"/><path stroke="#000000" stroke-width="4.0" stroke-linejoin="round" stroke-linecap="butt" d="m1062.4121 454.1811l0 0c0 -12.741669 10.702881 -23.070862 23.905518 -23.070862l0 0c6.340088 0 12.420532 2.4306946 16.903687 6.7572937c4.4831543 4.3266296 7.001831 10.194794 7.001831 16.313568l0 0c0 12.741699 -10.702881 23.070892 -23.905518 23.070892l0 0c-13.202637 0 -23.905518 -10.329193 -23.905518 -23.070892z" fill-rule="evenodd"/><path fill="#000000" d="m1090.5498 456.4136l1.765625 0.453125q-0.5625 2.171875 -2.0 3.328125q-1.4375 1.140625 -3.53125 1.140625q-2.15625 0 -3.515625 -0.875q-1.34375 -0.890625 -2.0625 -2.546875q-0.703125 -1.671875 -0.703125 -3.59375q0 -2.078125 0.796875 -3.625q0.796875 -1.5625 2.265625 -2.359375q1.484375 -0.8125 3.25 -0.8125q2.0 0 3.359375 1.015625q1.375 1.015625 1.90625 2.875l-1.734375 0.40625q-0.46875 -1.453125 -1.359375 -2.109375q-0.875 -0.671875 -2.203125 -0.671875q-1.546875 0 -2.578125 0.734375q-1.03125 0.734375 -1.453125 1.984375q-0.421875 1.234375 -0.421875 2.5625q0 1.703125 0.5 2.96875q0.5 1.265625 1.546875 1.90625q1.046875 0.625 2.265625 0.625q1.484375 0 2.515625 -0.859375q1.03125 -0.859375 1.390625 -2.546875z" fill-rule="nonzero"/><path fill="#000000" d="m1079.581 462.31442l13.473022 0l0 1.6800232l-13.473022 0l0 -1.6800232z" fill-rule="nonzero"/><path fill="#000000" fill-opacity="0.0" d="m1046.4113 390.5734l71.74805 -36.661407" fill-rule="evenodd"/><path stroke="#000000" stroke-width="4.0" stroke-linejoin="round" stroke-linecap="butt" d="m1067.7828 379.65305l29.00476 -14.820709" fill-rule="evenodd"/><path fill="#000000" stroke="#000000" stroke-width="4.0" stroke-linecap="butt" d="m1064.7765 373.76968l-13.158081 14.142975l19.170654 -2.3762207z" fill-rule="evenodd"/><path fill="#000000" stroke="#000000" stroke-width="4.0" stroke-linecap="butt" d="m1099.7938 370.7157l13.158203 -14.142944l-19.170654 2.3762207z" fill-rule="evenodd"/><path fill="#000000" fill-opacity="0.0" d="m1183.063 403.2021l0 71.33859" fill-rule="evenodd"/><path stroke="#000000" stroke-width="4.0" stroke-linejoin="round" stroke-linecap="butt" d="m1183.063 403.2021l0 47.338593" fill-rule="evenodd"/><path fill="#000000" stroke="#000000" stroke-width="4.0" stroke-linecap="butt" d="m1176.456 450.54068l6.6069336 18.152405l6.6069336 -18.152405z" fill-rule="evenodd"/><path fill="#000000" fill-opacity="0.0" d="m1159.1575 497.59842l-48.944824 -43.40158" fill-rule="evenodd"/><path stroke="#000000" stroke-width="4.0" stroke-linejoin="round" stroke-linecap="butt" d="m1159.1575 497.59842l-30.987915 -27.478394" fill-rule="evenodd"/><path fill="#000000" stroke="#000000" stroke-width="4.0" stroke-linecap="butt" d="m1132.553 465.1767l-17.96521 -7.1001587l9.198242 16.986847z" fill-rule="evenodd"/><path fill="#000000" fill-opacity="0.0" d="m1103.2213 437.86752l62.9292 -41.417297" fill-rule="evenodd"/><path stroke="#000000" stroke-width="4.0" stroke-linejoin="round" stroke-linecap="butt" d="m1103.2214 437.86752l42.88147 -28.22284" fill-rule="evenodd"/><path fill="#000000" stroke="#000000" stroke-width="4.0" stroke-linecap="butt" d="m1149.7352 415.16357l11.53064 -15.498535l-18.795288 4.460785z" fill-rule="evenodd"/></g></svg>