<svg version="1.1" viewBox="0.0 0.0 425.0209973753281 360.75853018372703" fill="none" stroke="none" stroke-linecap="square" stroke-miterlimit="10" xmlns:xlink="http://www.w3.org/1999/xlink" xmlns="http://www.w3.org/2000/svg"><clipPath id="p.0"><path d="m0 0l425.021 0l0 360.75854l-425.021 0l0 -360.75854z" clip-rule="nonzero"/></clipPath><g clip-path="url(#p.0)"><path fill="#000000" fill-opacity="0.0" d="m0 0l425.021 0l0 360.75854l-425.021 0z" fill-rule="evenodd"/><path fill="#ffffff" d="m16.952755 47.259842l0 0c0 -12.741688 10.702864 -23.070866 23.905514 -23.070866l0 0c6.3401337 0 12.420597 2.4306736 16.903748 6.7572994c4.4831543 4.3266277 7.0017624 10.194792 7.0017624 16.313566l0 0c0 12.741688 -10.702862 23.07087 -23.90551 23.07087l0 0c-13.20265 0 -23.905514 -10.329182 -23.905514 -23.07087z" fill-rule="evenodd"/><path stroke="#000000" stroke-width="4.0" stroke-linejoin="round" stroke-linecap="butt" d="m16.952755 47.259842l0 0c0 -12.741688 10.702864 -23.070866 23.905514 -23.070866l0 0c6.3401337 0 12.420597 2.4306736 16.903748 6.7572994c4.4831543 4.3266277 7.0017624 10.194792 7.0017624 16.313566l0 0c0 12.741688 -10.702862 23.07087 -23.90551 23.07087l0 0c-13.20265 0 -23.905514 -10.329182 -23.905514 -23.07087z" fill-rule="evenodd"/><path fill="#000000" d="m34.605232 54.17984l5.125 -13.359375l1.90625 0l5.46875 13.359375l-2.015625 0l-1.546875 -4.046875l-5.59375 0l-1.46875 4.046875l-1.875 0zm3.859375 -5.484375l4.53125 0l-1.40625 -3.703125q-0.625 -1.6875 -0.9375 -2.765625q-0.265625 1.28125 -0.71875 2.546875l-1.46875 3.921875z" fill-rule="nonzero"/><path fill="#ffffff" d="m355.7139 47.259842l0 0c0 -12.741688 10.702881 -23.070866 23.905518 -23.070866l0 0c6.340149 0 12.420593 2.4306736 16.903748 6.7572994c4.4831543 4.3266277 7.00177 10.194792 7.00177 16.313566l0 0c0 12.741688 -10.70285 23.07087 -23.905518 23.07087l0 0c-13.202637 0 -23.905518 -10.329182 -23.905518 -23.07087z" fill-rule="evenodd"/><path stroke="#000000" stroke-width="4.0" stroke-linejoin="round" stroke-linecap="butt" d="m355.7139 47.259842l0 0c0 -12.741688 10.702881 -23.070866 23.905518 -23.070866l0 0c6.340149 0 12.420593 2.4306736 16.903748 6.7572994c4.4831543 4.3266277 7.00177 10.194792 7.00177 16.313566l0 0c0 12.741688 -10.70285 23.07087 -23.905518 23.07087l0 0c-13.202637 0 -23.905518 -10.329182 -23.905518 -23.07087z" fill-rule="evenodd"/><path fill="#000000" d="m374.8664 54.17984l0 -13.359375l9.65625 0l0 1.578125l-7.875 0l0 4.09375l7.375 0l0 1.5625l-7.375 0l0 4.546875l8.1875 0l0 1.578125l-9.96875 0z" fill-rule="nonzero"/><path fill="#ffffff" d="m101.64304 47.259842l0 0c0 -12.741688 10.702866 -23.070866 23.90551 -23.070866l0 0c6.3401337 0 12.420593 2.4306736 16.903748 6.7572994c4.4831543 4.3266277 7.00177 10.194792 7.00177 16.313566l0 0c0 12.741688 -10.702866 23.07087 -23.905518 23.07087l0 0c-13.202644 0 -23.90551 -10.329182 -23.90551 -23.07087z" fill-rule="evenodd"/><path stroke="#000000" stroke-width="4.0" stroke-linejoin="round" stroke-linecap="butt" d="m101.64304 47.259842l0 0c0 -12.741688 10.702866 -23.070866 23.90551 -23.070866l0 0c6.3401337 0 12.420593 2.4306736 16.903748 6.7572994c4.4831543 4.3266277 7.00177 10.194792 7.00177 16.313566l0 0c0 12.741688 -10.702866 23.07087 -23.905518 23.07087l0 0c-13.202644 0 -23.90551 -10.329182 -23.90551 -23.07087z" fill-rule="evenodd"/><path fill="#000000" d="m120.68614 54.17984l0 -13.359375l5.015625 0q1.53125 0 2.453125 0.40625q0.921875 0.40625 1.4375 1.25q0.53125 0.84375 0.53125 1.765625q0 0.859375 -0.46875 1.625q-0.453125 0.75 -1.390625 1.203125q1.203125 0.359375 1.859375 1.21875q0.65625 0.859375 0.65625 2.015625q0 0.9375 -0.40625 1.75q-0.390625 0.796875 -0.984375 1.234375q-0.578125 0.4375 -1.453125 0.671875q-0.875 0.21875 -2.15625 0.21875l-5.09375 0zm1.78125 -7.75l2.875 0q1.1875 0 1.6875 -0.140625q0.671875 -0.203125 1.015625 -0.671875q0.34375 -0.46875 0.34375 -1.171875q0 -0.65625 -0.328125 -1.15625q-0.3125 -0.515625 -0.90625 -0.703125q-0.59375 -0.1875 -2.03125 -0.1875l-2.65625 0l0 4.03125zm0 6.171875l3.3125 0q0.859375 0 1.203125 -0.0625q0.609375 -0.109375 1.015625 -0.359375q0.421875 -0.265625 0.6875 -0.75q0.265625 -0.484375 0.265625 -1.125q0 -0.75 -0.390625 -1.296875q-0.375 -0.546875 -1.0625 -0.765625q-0.671875 -0.234375 -1.953125 -0.234375l-3.078125 0l0 4.59375z" fill-rule="nonzero"/><path fill="#ffffff" d="m271.02362 47.259842l0 0c0 -12.741688 10.70285 -23.070866 23.905518 -23.070866l0 0c6.3401184 0 12.420593 2.4306736 16.903748 6.7572994c4.4831543 4.3266277 7.00177 10.194792 7.00177 16.313566l0 0c0 12.741688 -10.702881 23.07087 -23.905518 23.07087l0 0c-13.202667 0 -23.905518 -10.329182 -23.905518 -23.07087z" fill-rule="evenodd"/><path stroke="#000000" stroke-width="4.0" stroke-linejoin="round" stroke-linecap="butt" d="m271.02362 47.259842l0 0c0 -12.741688 10.70285 -23.070866 23.905518 -23.070866l0 0c6.3401184 0 12.420593 2.4306736 16.903748 6.7572994c4.4831543 4.3266277 7.00177 10.194792 7.00177 16.313566l0 0c0 12.741688 -10.702881 23.07087 -23.905518 23.07087l0 0c-13.202667 0 -23.905518 -10.329182 -23.905518 -23.07087z" fill-rule="evenodd"/><path fill="#000000" d="m289.63016 54.17984l0 -13.359375l4.609375 0q1.546875 0 2.375 0.203125q1.140625 0.25 1.953125 0.953125q1.0625 0.890625 1.578125 2.28125q0.53125 1.390625 0.53125 3.171875q0 1.515625 -0.359375 2.703125q-0.359375 1.171875 -0.921875 1.9375q-0.546875 0.765625 -1.203125 1.21875q-0.65625 0.4375 -1.59375 0.671875q-0.9375 0.21875 -2.140625 0.21875l-4.828125 0zm1.765625 -1.578125l2.859375 0q1.3125 0 2.0625 -0.234375q0.75 -0.25 1.203125 -0.703125q0.625 -0.625 0.96875 -1.6875q0.359375 -1.0625 0.359375 -2.578125q0 -2.09375 -0.6875 -3.21875q-0.6875 -1.125 -1.671875 -1.5q-0.703125 -0.28125 -2.28125 -0.28125l-2.8125 0l0 10.203125z" fill-rule="nonzero"/><path fill="#ffffff" d="m186.33333 47.259842l0 0c0 -12.741688 10.702866 -23.070866 23.905518 -23.070866l0 0c6.3401337 0 12.420593 2.4306736 16.903748 6.7572994c4.4831543 4.3266277 7.00177 10.194792 7.00177 16.313566l0 0c0 12.741688 -10.702866 23.07087 -23.905518 23.07087l0 0c-13.202652 0 -23.905518 -10.329182 -23.905518 -23.07087z" fill-rule="evenodd"/><path stroke="#000000" stroke-width="4.0" stroke-linejoin="round" stroke-linecap="butt" d="m186.33333 47.259842l0 0c0 -12.741688 10.702866 -23.070866 23.905518 -23.070866l0 0c6.3401337 0 12.420593 2.4306736 16.903748 6.7572994c4.4831543 4.3266277 7.00177 10.194792 7.00177 16.313566l0 0c0 12.741688 -10.702866 23.07087 -23.905518 23.07087l0 0c-13.202652 0 -23.905518 -10.329182 -23.905518 -23.07087z" fill-rule="evenodd"/><path fill="#000000" d="m214.47112 49.49234l1.765625 0.453125q-0.5625 2.171875 -2.0 3.328125q-1.4375 1.140625 -3.53125 1.140625q-2.15625 0 -3.515625 -0.875q-1.34375 -0.890625 -2.0625 -2.546875q-0.703125 -1.671875 -0.703125 -3.59375q0 -2.078125 0.796875 -3.625q0.796875 -1.5625 2.265625 -2.359375q1.484375 -0.8125 3.25 -0.8125q2.0 0 3.359375 1.015625q1.375 1.015625 1.90625 2.875l-1.734375 0.40625q-0.46875 -1.453125 -1.359375 -2.109375q-0.875 -0.671875 -2.203125 -0.671875q-1.546875 0 -2.578125 0.734375q-1.03125 0.734375 -1.453125 1.984375q-0.421875 1.234375 -0.421875 2.5625q0 1.703125 0.5 2.96875q0.5 1.265625 1.546875 1.90625q1.046875 0.625 2.265625 0.625q1.484375 0 2.515625 -0.859375q1.03125 -0.859375 1.390625 -2.546875z" fill-rule="nonzero"/><path fill="#000000" fill-opacity="0.0" d="m64.76378 287.25986l36.88189 0" fill-rule="evenodd"/><path stroke="#000000" stroke-width="4.0" stroke-linejoin="round" stroke-linecap="butt" d="m64.76378 287.25986l12.881889 0" fill-rule="evenodd"/><path fill="#000000" stroke="#000000" stroke-width="4.0" stroke-linecap="butt" d="m77.64567 293.86676l18.15239 -6.606903l-18.15239 -6.6069336z" fill-rule="evenodd"/><path fill="#000000" fill-opacity="0.0" d="m234.14436 287.25986l36.88188 0" fill-rule="evenodd"/><path stroke="#000000" stroke-width="4.0" stroke-linejoin="round" stroke-linecap="butt" d="m234.14436 287.25986l12.881882 0" fill-rule="evenodd"/><path fill="#000000" stroke="#000000" stroke-width="4.0" stroke-linecap="butt" d="m247.02625 293.86676l18.152405 -6.606903l-18.152405 -6.6069336z" fill-rule="evenodd"/><path fill="#000000" fill-opacity="0.0" d="m318.83466 287.25986l36.881866 0" fill-rule="evenodd"/><path stroke="#000000" stroke-width="4.0" stroke-linejoin="round" stroke-linecap="butt" d="m318.83466 287.25986l12.881866 0" fill-rule="evenodd"/><path fill="#000000" stroke="#000000" stroke-width="4.0" stroke-linecap="butt" d="m331.71652 293.86676l18.152405 -6.606903l-18.152405 -6.6069336z" fill-rule="evenodd"/><path fill="#000000" fill-opacity="0.0" d="m149.45407 287.25986l36.88188 0" fill-rule="evenodd"/><path stroke="#000000" stroke-width="4.0" stroke-linejoin="round" stroke-linecap="butt" d="m149.45407 287.25986l12.881882 0" fill-rule="evenodd"/><path fill="#000000" stroke="#000000" stroke-width="4.0" stroke-linecap="butt" d="m162.33595 293.86676l18.15239 -6.606903l-18.15239 -6.6069336z" fill-rule="evenodd"/><path fill="#ffffff" d="m16.952755 175.25984l0 0c0 -12.741684 10.702864 -23.070862 23.905514 -23.070862l0 0c6.3401337 0 12.420597 2.430664 16.903748 6.7572937c4.4831543 4.3266296 7.0017624 10.194794 7.0017624 16.313568l0 0c0 12.741684 -10.702862 23.070862 -23.90551 23.070862l0 0c-13.20265 0 -23.905514 -10.329178 -23.905514 -23.070862z" fill-rule="evenodd"/><path stroke="#000000" stroke-width="4.0" stroke-linejoin="round" stroke-linecap="butt" d="m16.952755 175.25984l0 0c0 -12.741684 10.702864 -23.070862 23.905514 -23.070862l0 0c6.3401337 0 12.420597 2.430664 16.903748 6.7572937c4.4831543 4.3266296 7.0017624 10.194794 7.0017624 16.313568l0 0c0 12.741684 -10.702862 23.070862 -23.90551 23.070862l0 0c-13.20265 0 -23.905514 -10.329178 -23.905514 -23.070862z" fill-rule="evenodd"/><path fill="#000000" d="m34.605232 182.17984l5.125 -13.359375l1.90625 0l5.46875 13.359375l-2.015625 0l-1.546875 -4.046875l-5.59375 0l-1.46875 4.046875l-1.875 0zm3.859375 -5.484375l4.53125 0l-1.40625 -3.703125q-0.625 -1.6875 -0.9375 -2.765625q-0.265625 1.28125 -0.71875 2.546875l-1.46875 3.921875z" fill-rule="nonzero"/><path fill="#ffffff" d="m355.7139 175.25984l0 0c0 -12.741684 10.702881 -23.070862 23.905518 -23.070862l0 0c6.340149 0 12.420593 2.430664 16.903748 6.7572937c4.4831543 4.3266296 7.00177 10.194794 7.00177 16.313568l0 0c0 12.741684 -10.70285 23.070862 -23.905518 23.070862l0 0c-13.202637 0 -23.905518 -10.329178 -23.905518 -23.070862z" fill-rule="evenodd"/><path stroke="#000000" stroke-width="4.0" stroke-linejoin="round" stroke-linecap="butt" d="m355.7139 175.25984l0 0c0 -12.741684 10.702881 -23.070862 23.905518 -23.070862l0 0c6.340149 0 12.420593 2.430664 16.903748 6.7572937c4.4831543 4.3266296 7.00177 10.194794 7.00177 16.313568l0 0c0 12.741684 -10.70285 23.070862 -23.905518 23.070862l0 0c-13.202637 0 -23.905518 -10.329178 -23.905518 -23.070862z" fill-rule="evenodd"/><path fill="#000000" d="m383.85168 177.49234l1.765625 0.453125q-0.5625 2.171875 -2.0 3.328125q-1.4375 1.140625 -3.53125 1.140625q-2.15625 0 -3.515625 -0.875q-1.34375 -0.890625 -2.0625 -2.546875q-0.703125 -1.671875 -0.703125 -3.59375q0 -2.078125 0.796875 -3.625q0.796875 -1.5625 2.265625 -2.359375q1.484375 -0.8125 3.25 -0.8125q2.0 0 3.359375 1.015625q1.375 1.015625 1.90625 2.875l-1.734375 0.40625q-0.46875 -1.453125 -1.359375 -2.109375q-0.875 -0.671875 -2.203125 -0.671875q-1.546875 0 -2.578125 0.734375q-1.03125 0.734375 -1.453125 1.984375q-0.421875 1.234375 -0.421875 2.5625q0 1.703125 0.5 2.96875q0.5 1.265625 1.546875 1.90625q1.046875 0.625 2.265625 0.625q1.484375 0 2.515625 -0.859375q1.03125 -0.859375 1.390625 -2.546875z" fill-rule="nonzero"/><path fill="#ffffff" d="m101.64304 175.25984l0 0c0 -12.741684 10.702866 -23.070862 23.90551 -23.070862l0 0c6.3401337 0 12.420593 2.430664 16.903748 6.7572937c4.4831543 4.3266296 7.00177 10.194794 7.00177 16.313568l0 0c0 12.741684 -10.702866 23.070862 -23.905518 23.070862l0 0c-13.202644 0 -23.90551 -10.329178 -23.90551 -23.070862z" fill-rule="evenodd"/><path stroke="#000000" stroke-width="4.0" stroke-linejoin="round" stroke-linecap="butt" d="m101.64304 175.25984l0 0c0 -12.741684 10.702866 -23.070862 23.90551 -23.070862l0 0c6.3401337 0 12.420593 2.430664 16.903748 6.7572937c4.4831543 4.3266296 7.00177 10.194794 7.00177 16.313568l0 0c0 12.741684 -10.702866 23.070862 -23.905518 23.070862l0 0c-13.202644 0 -23.90551 -10.329178 -23.90551 -23.070862z" fill-rule="evenodd"/><path fill="#000000" d="m120.79552 182.17984l0 -13.359375l9.65625 0l0 1.578125l-7.875 0l0 4.09375l7.375 0l0 1.5625l-7.375 0l0 4.546875l8.1875 0l0 1.578125l-9.96875 0z" fill-rule="nonzero"/><path fill="#ffffff" d="m271.02362 175.25984l0 0c0 -12.741684 10.70285 -23.070862 23.905518 -23.070862l0 0c6.3401184 0 12.420593 2.430664 16.903748 6.7572937c4.4831543 4.3266296 7.00177 10.194794 7.00177 16.313568l0 0c0 12.741684 -10.702881 23.070862 -23.905518 23.070862l0 0c-13.202667 0 -23.905518 -10.329178 -23.905518 -23.070862z" fill-rule="evenodd"/><path stroke="#000000" stroke-width="4.0" stroke-linejoin="round" stroke-linecap="butt" d="m271.02362 175.25984l0 0c0 -12.741684 10.70285 -23.070862 23.905518 -23.070862l0 0c6.3401184 0 12.420593 2.430664 16.903748 6.7572937c4.4831543 4.3266296 7.00177 10.194794 7.00177 16.313568l0 0c0 12.741684 -10.702881 23.070862 -23.905518 23.070862l0 0c-13.202667 0 -23.905518 -10.329178 -23.905518 -23.070862z" fill-rule="evenodd"/><path fill="#000000" d="m289.63016 182.17984l0 -13.359375l4.609375 0q1.546875 0 2.375 0.203125q1.140625 0.25 1.953125 0.953125q1.0625 0.890625 1.578125 2.28125q0.53125 1.390625 0.53125 3.171875q0 1.515625 -0.359375 2.703125q-0.359375 1.171875 -0.921875 1.9375q-0.546875 0.765625 -1.203125 1.21875q-0.65625 0.4375 -1.59375 0.671875q-0.9375 0.21875 -2.140625 0.21875l-4.828125 0zm1.765625 -1.578125l2.859375 0q1.3125 0 2.0625 -0.234375q0.75 -0.25 1.203125 -0.703125q0.625 -0.625 0.96875 -1.6875q0.359375 -1.0625 0.359375 -2.578125q0 -2.09375 -0.6875 -3.21875q-0.6875 -1.125 -1.671875 -1.5q-0.703125 -0.28125 -2.28125 -0.28125l-2.8125 0l0 10.203125z" fill-rule="nonzero"/><path fill="#ffffff" d="m186.33333 175.25984l0 0c0 -12.741684 10.702866 -23.070862 23.905518 -23.070862l0 0c6.3401337 0 12.420593 2.430664 16.903748 6.7572937c4.4831543 4.3266296 7.00177 10.194794 7.00177 16.313568l0 0c0 12.741684 -10.702866 23.070862 -23.905518 23.070862l0 0c-13.202652 0 -23.905518 -10.329178 -23.905518 -23.070862z" fill-rule="evenodd"/><path stroke="#000000" stroke-width="4.0" stroke-linejoin="round" stroke-linecap="butt" d="m186.33333 175.25984l0 0c0 -12.741684 10.702866 -23.070862 23.905518 -23.070862l0 0c6.3401337 0 12.420593 2.430664 16.903748 6.7572937c4.4831543 4.3266296 7.00177 10.194794 7.00177 16.313568l0 0c0 12.741684 -10.702866 23.070862 -23.905518 23.070862l0 0c-13.202652 0 -23.905518 -10.329178 -23.905518 -23.070862z" fill-rule="evenodd"/><path fill="#000000" d="m205.37643 182.17984l0 -13.359375l5.015625 0q1.53125 0 2.453125 0.40625q0.921875 0.40625 1.4375 1.25q0.53125 0.84375 0.53125 1.765625q0 0.859375 -0.46875 1.625q-0.453125 0.75 -1.390625 1.203125q1.203125 0.359375 1.859375 1.21875q0.65625 0.859375 0.65625 2.015625q0 0.9375 -0.40625 1.75q-0.390625 0.796875 -0.984375 1.234375q-0.578125 0.4375 -1.453125 0.671875q-0.875 0.21875 -2.15625 0.21875l-5.09375 0zm1.78125 -7.75l2.875 0q1.1875 0 1.6875 -0.140625q0.671875 -0.203125 1.015625 -0.671875q0.34375 -0.46875 0.34375 -1.171875q0 -0.65625 -0.328125 -1.15625q-0.3125 -0.515625 -0.90625 -0.703125q-0.59375 -0.1875 -2.03125 -0.1875l-2.65625 0l0 4.03125zm0 6.171875l3.3125 0q0.859375 0 1.203125 -0.0625q0.609375 -0.109375 1.015625 -0.359375q0.421875 -0.265625 0.6875 -0.75q0.265625 -0.484375 0.265625 -1.125q0 -0.75 -0.390625 -1.296875q-0.375 -0.546875 -1.0625 -0.765625q-0.671875 -0.234375 -1.953125 -0.234375l-3.078125 0l0 4.59375z" fill-rule="nonzero"/><path fill="#ffffff" d="m16.952755 287.25986l0 0c0 -12.741699 10.702864 -23.070892 23.905514 -23.070892l0 0c6.3401337 0 12.420597 2.4306946 16.903748 6.757324c4.4831543 4.326599 7.0017624 10.194794 7.0017624 16.313568l0 0c0 12.741669 -10.702862 23.070862 -23.90551 23.070862l0 0c-13.20265 0 -23.905514 -10.329193 -23.905514 -23.070862z" fill-rule="evenodd"/><path stroke="#000000" stroke-width="4.0" stroke-linejoin="round" stroke-linecap="butt" d="m16.952755 287.25986l0 0c0 -12.741699 10.702864 -23.070892 23.905514 -23.070892l0 0c6.3401337 0 12.420597 2.4306946 16.903748 6.757324c4.4831543 4.326599 7.0017624 10.194794 7.0017624 16.313568l0 0c0 12.741669 -10.702862 23.070862 -23.90551 23.070862l0 0c-13.20265 0 -23.905514 -10.329193 -23.905514 -23.070862z" fill-rule="evenodd"/><path fill="#000000" d="m34.605232 294.17984l5.125 -13.359375l1.90625 0l5.46875 13.359375l-2.015625 0l-1.546875 -4.046875l-5.59375 0l-1.46875 4.046875l-1.875 0zm3.859375 -5.484375l4.53125 0l-1.40625 -3.703125q-0.625 -1.6875 -0.9375 -2.765625q-0.265625 1.28125 -0.71875 2.546875l-1.46875 3.921875z" fill-rule="nonzero"/><path fill="#ffffff" d="m355.7139 287.25986l0 0c0 -12.741699 10.702881 -23.070892 23.905518 -23.070892l0 0c6.340149 0 12.420593 2.4306946 16.903748 6.757324c4.4831543 4.326599 7.00177 10.194794 7.00177 16.313568l0 0c0 12.741669 -10.70285 23.070862 -23.905518 23.070862l0 0c-13.202637 0 -23.905518 -10.329193 -23.905518 -23.070862z" fill-rule="evenodd"/><path stroke="#000000" stroke-width="4.0" stroke-linejoin="round" stroke-linecap="butt" d="m355.7139 287.25986l0 0c0 -12.741699 10.702881 -23.070892 23.905518 -23.070892l0 0c6.340149 0 12.420593 2.4306946 16.903748 6.757324c4.4831543 4.326599 7.00177 10.194794 7.00177 16.313568l0 0c0 12.741669 -10.70285 23.070862 -23.905518 23.070862l0 0c-13.202637 0 -23.905518 -10.329193 -23.905518 -23.070862z" fill-rule="evenodd"/><path fill="#000000" d="m383.85168 289.49234l1.765625 0.453125q-0.5625 2.171875 -2.0 3.328125q-1.4375 1.140625 -3.53125 1.140625q-2.15625 0 -3.515625 -0.875q-1.34375 -0.890625 -2.0625 -2.546875q-0.703125 -1.671875 -0.703125 -3.59375q0 -2.078125 0.796875 -3.625q0.796875 -1.5625 2.265625 -2.359375q1.484375 -0.8125 3.25 -0.8125q2.0 0 3.359375 1.015625q1.375 1.015625 1.90625 2.875l-1.734375 0.40625q-0.46875 -1.453125 -1.359375 -2.109375q-0.875 -0.671875 -2.203125 -0.671875q-1.546875 0 -2.578125 0.734375q-1.03125 0.734375 -1.453125 1.984375q-0.421875 1.234375 -0.421875 2.5625q0 1.703125 0.5 2.96875q0.5 1.265625 1.546875 1.90625q1.046875 0.625 2.265625 0.625q1.484375 0 2.515625 -0.859375q1.03125 -0.859375 1.390625 -2.546875z" fill-rule="nonzero"/><path fill="#ffffff" d="m101.64304 287.25986l0 0c0 -12.741699 10.702866 -23.070892 23.90551 -23.070892l0 0c6.3401337 0 12.420593 2.4306946 16.903748 6.757324c4.4831543 4.326599 7.00177 10.194794 7.00177 16.313568l0 0c0 12.741669 -10.702866 23.070862 -23.905518 23.070862l0 0c-13.202644 0 -23.90551 -10.329193 -23.90551 -23.070862z" fill-rule="evenodd"/><path stroke="#000000" stroke-width="4.0" stroke-linejoin="round" stroke-linecap="butt" d="m101.64304 287.25986l0 0c0 -12.741699 10.702866 -23.070892 23.90551 -23.070892l0 0c6.3401337 0 12.420593 2.4306946 16.903748 6.757324c4.4831543 4.326599 7.00177 10.194794 7.00177 16.313568l0 0c0 12.741669 -10.702866 23.070862 -23.905518 23.070862l0 0c-13.202644 0 -23.90551 -10.329193 -23.90551 -23.070862z" fill-rule="evenodd"/><path fill="#000000" d="m120.79552 294.17984l0 -13.359375l9.65625 0l0 1.578125l-7.875 0l0 4.09375l7.375 0l0 1.5625l-7.375 0l0 4.546875l8.1875 0l0 1.578125l-9.96875 0z" fill-rule="nonzero"/><path fill="#ffffff" d="m271.02362 287.25986l0 0c0 -12.741699 10.70285 -23.070892 23.905518 -23.070892l0 0c6.3401184 0 12.420593 2.4306946 16.903748 6.757324c4.4831543 4.326599 7.00177 10.194794 7.00177 16.313568l0 0c0 12.741669 -10.702881 23.070862 -23.905518 23.070862l0 0c-13.202667 0 -23.905518 -10.329193 -23.905518 -23.070862z" fill-rule="evenodd"/><path stroke="#000000" stroke-width="4.0" stroke-linejoin="round" stroke-linecap="butt" d="m271.02362 287.25986l0 0c0 -12.741699 10.70285 -23.070892 23.905518 -23.070892l0 0c6.3401184 0 12.420593 2.4306946 16.903748 6.757324c4.4831543 4.326599 7.00177 10.194794 7.00177 16.313568l0 0c0 12.741669 -10.702881 23.070862 -23.905518 23.070862l0 0c-13.202667 0 -23.905518 -10.329193 -23.905518 -23.070862z" fill-rule="evenodd"/><path fill="#000000" d="m289.63016 294.17984l0 -13.359375l4.609375 0q1.546875 0 2.375 0.203125q1.140625 0.25 1.953125 0.953125q1.0625 0.890625 1.578125 2.28125q0.53125 1.390625 0.53125 3.171875q0 1.515625 -0.359375 2.703125q-0.359375 1.171875 -0.921875 1.9375q-0.546875 0.765625 -1.203125 1.21875q-0.65625 0.4375 -1.59375 0.671875q-0.9375 0.21875 -2.140625 0.21875l-4.828125 0zm1.765625 -1.578125l2.859375 0q1.3125 0 2.0625 -0.234375q0.75 -0.25 1.203125 -0.703125q0.625 -0.625 0.96875 -1.6875q0.359375 -1.0625 0.359375 -2.578125q0 -2.09375 -0.6875 -3.21875q-0.6875 -1.125 -1.671875 -1.5q-0.703125 -0.28125 -2.28125 -0.28125l-2.8125 0l0 10.203125z" fill-rule="nonzero"/><path fill="#ffffff" d="m186.33333 287.25986l0 0c0 -12.741699 10.702866 -23.070892 23.905518 -23.070892l0 0c6.3401337 0 12.420593 2.4306946 16.903748 6.757324c4.4831543 4.326599 7.00177 10.194794 7.00177 16.313568l0 0c0 12.741669 -10.702866 23.070862 -23.905518 23.070862l0 0c-13.202652 0 -23.905518 -10.329193 -23.905518 -23.070862z" fill-rule="evenodd"/><path stroke="#000000" stroke-width="4.0" stroke-linejoin="round" stroke-linecap="butt" d="m186.33333 287.25986l0 0c0 -12.741699 10.702866 -23.070892 23.905518 -23.070892l0 0c6.3401337 0 12.420593 2.4306946 16.903748 6.757324c4.4831543 4.326599 7.00177 10.194794 7.00177 16.313568l0 0c0 12.741669 -10.702866 23.070862 -23.905518 23.070862l0 0c-13.202652 0 -23.905518 -10.329193 -23.905518 -23.070862z" fill-rule="evenodd"/><path fill="#000000" d="m205.37643 294.17984l0 -13.359375l5.015625 0q1.53125 0 2.453125 0.40625q0.921875 0.40625 1.4375 1.25q0.53125 0.84375 0.53125 1.765625q0 0.859375 -0.46875 1.625q-0.453125 0.75 -1.390625 1.203125q1.203125 0.359375 1.859375 1.21875q0.65625 0.859375 0.65625 2.015625q0 0.9375 -0.40625 1.75q-0.390625 0.796875 -0.984375 1.234375q-0.578125 0.4375 -1.453125 0.671875q-0.875 0.21875 -2.15625 0.21875l-5.09375 0zm1.78125 -7.75l2.875 0q1.1875 0 1.6875 -0.140625q0.671875 -0.203125 1.015625 -0.671875q0.34375 -0.46875 0.34375 -1.171875q0 -0.65625 -0.328125 -1.15625q-0.3125 -0.515625 -0.90625 -0.703125q-0.59375 -0.1875 -2.03125 -0.1875l-2.65625 0l0 4.03125zm0 6.171875l3.3125 0q0.859375 0 1.203125 -0.0625q0.609375 -0.109375 1.015625 -0.359375q0.421875 -0.265625 0.6875 -0.75q0.265625 -0.484375 0.265625 -1.125q0 -0.75 -0.390625 -1.296875q-0.375 -0.546875 -1.0625 -0.765625q-0.671875 -0.234375 -1.953125 -0.234375l-3.078125 0l0 4.59375z" fill-rule="nonzero"/><path fill="#000000" fill-opacity="0.0" d="m381.25198 311.67453c-3.202118 5.249878 -1.1784973 25.765686 -19.212616 31.499298c-18.034119 5.7335815 -57.473755 2.2805176 -88.99213 2.9022827c-31.518372 0.62176514 -68.68373 0.6902771 -100.1181 0.8283081c-31.434387 0.13806152 -69.189415 -0.138031 -88.48819 0c-19.298782 0.13806152 -21.152672 1.8645935 -27.304466 0.8283081c-6.1517944 -1.0362854 -6.9938736 -1.1743164 -9.6063 -7.0459595c-2.612423 -5.8716736 -5.0568657 -23.486603 -6.068241 -28.18393" fill-rule="evenodd"/><path stroke="#000000" stroke-width="4.0" stroke-linejoin="round" stroke-linecap="butt" d="m381.25198 311.67453c-3.202118 5.249878 -1.1784973 25.765686 -19.212616 31.499298c-18.034119 5.733612 -57.473755 2.2805176 -88.99213 2.9022827c-31.518372 0.62176514 -68.68373 0.6902466 -100.1181 0.8283386c-31.434387 0.138031 -69.18942 -0.13809204 -88.48819 0c-19.298782 0.138031 -21.152672 1.8645935 -27.304466 0.8282776c-6.1517944 -1.0362854 -6.9938736 -1.1743164 -9.6063 -7.0459595c-0.32654953 -0.7339783 -0.6504822 -1.6514282 -0.96931076 -2.7041626c-0.15942001 -0.5263977 -0.3175621 -1.0866089 -0.47411728 -1.6746216l-0.06284332 -0.2427063" fill-rule="evenodd"/><path fill="#000000" stroke="#000000" stroke-width="4.0" stroke-linecap="butt" d="m52.51038 334.80942l-9.936913 -16.565582l-3.0360336 19.077301z" fill-rule="evenodd"/><path fill="#000000" fill-opacity="0.0" d="m141.82939 97.456696l139.05513 0l0 28.7874l-139.05513 0z" fill-rule="evenodd"/><path fill="#000000" d="m184.45172 115.87977l1.625 -0.25q0.125 0.96875 0.75 1.5q0.625 0.515625 1.75 0.515625q1.125 0 1.671875 -0.453125q0.546875 -0.46875 0.546875 -1.09375q0 -0.546875 -0.484375 -0.875q-0.328125 -0.21875 -1.671875 -0.546875q-1.8125 -0.46875 -2.515625 -0.796875q-0.6875 -0.328125 -1.046875 -0.90625q-0.359375 -0.59375 -0.359375 -1.3125q0 -0.640625 0.296875 -1.1875q0.296875 -0.5625 0.8125 -0.921875q0.375 -0.28125 1.03125 -0.46875q0.671875 -0.203125 1.421875 -0.203125q1.140625 0 2.0 0.328125q0.859375 0.328125 1.265625 0.890625q0.421875 0.5625 0.578125 1.5l-1.609375 0.21875q-0.109375 -0.75 -0.640625 -1.171875q-0.515625 -0.421875 -1.46875 -0.421875q-1.140625 0 -1.625 0.375q-0.46875 0.375 -0.46875 0.875q0 0.3125 0.1875 0.578125q0.203125 0.265625 0.640625 0.4375q0.234375 0.09375 1.4375 0.421875q1.75 0.453125 2.4375 0.75q0.6875 0.296875 1.078125 0.859375q0.390625 0.5625 0.390625 1.40625q0 0.828125 -0.484375 1.546875q-0.46875 0.71875 -1.375 1.125q-0.90625 0.390625 -2.046875 0.390625q-1.875 0 -2.875 -0.78125q-0.984375 -0.78125 -1.25 -2.328125zm9.984375 2.890625l0 -13.359375l1.640625 0l0 4.796875q1.140625 -1.328125 2.890625 -1.328125q1.078125 0 1.859375 0.421875q0.796875 0.421875 1.140625 1.171875q0.34375 0.75 0.34375 2.171875l0 6.125l-1.640625 0l0 -6.125q0 -1.234375 -0.53125 -1.796875q-0.53125 -0.5625 -1.515625 -0.5625q-0.71875 0 -1.359375 0.390625q-0.640625 0.375 -0.921875 1.015625q-0.265625 0.640625 -0.265625 1.78125l0 5.296875l-1.640625 0zm16.703842 0l0 -1.421875q-1.125 1.640625 -3.0625 1.640625q-0.859375 0 -1.609375 -0.328125q-0.734375 -0.328125 -1.09375 -0.828125q-0.359375 -0.5 -0.5 -1.21875q-0.109375 -0.46875 -0.109375 -1.53125l0 -5.984375l1.640625 0l0 5.359375q0 1.28125 0.109375 1.734375q0.15625 0.640625 0.65625 1.015625q0.5 0.375 1.234375 0.375q0.734375 0 1.375 -0.375q0.65625 -0.390625 0.921875 -1.03125q0.265625 -0.65625 0.265625 -1.890625l0 -5.1875l1.640625 0l0 9.671875l-1.46875 0zm4.438217 0l0 -8.40625l-1.453125 0l0 -1.265625l1.453125 0l0 -1.03125q0 -0.96875 0.171875 -1.453125q0.234375 -0.640625 0.828125 -1.03125q0.59375 -0.390625 1.671875 -0.390625q0.6875 0 1.53125 0.15625l-0.25 1.4375q-0.5 -0.09375 -0.953125 -0.09375q-0.75 0 -1.0625 0.328125q-0.3125 0.3125 -0.3125 1.1875l0 0.890625l1.890625 0l0 1.265625l-1.890625 0l0 8.40625l-1.625 0zm5.183304 0l0 -8.40625l-1.453125 0l0 -1.265625l1.453125 0l0 -1.03125q0 -0.96875 0.171875 -1.453125q0.234375 -0.640625 0.828125 -1.03125q0.59375 -0.390625 1.671875 -0.390625q0.6875 0 1.53125 0.15625l-0.25 1.4375q-0.5 -0.09375 -0.953125 -0.09375q-0.75 0 -1.0625 0.328125q-0.3125 0.3125 -0.3125 1.1875l0 0.890625l1.890625 0l0 1.265625l-1.890625 0l0 8.40625l-1.625 0zm4.745804 0l0 -13.359375l1.640625 0l0 13.359375l-1.640625 0zm10.816696 -3.109375l1.6875 0.203125q-0.40625 1.484375 -1.484375 2.3125q-1.078125 0.8125 -2.765625 0.8125q-2.125 0 -3.375 -1.296875q-1.234375 -1.3125 -1.234375 -3.671875q0 -2.453125 1.25 -3.796875q1.265625 -1.34375 3.265625 -1.34375q1.9375 0 3.15625 1.328125q1.234375 1.3125 1.234375 3.703125q0 0.15625 0 0.4375l-7.21875 0q0.09375 1.59375 0.90625 2.453125q0.8125 0.84375 2.015625 0.84375q0.90625 0 1.546875 -0.46875q0.640625 -0.484375 1.015625 -1.515625zm-5.390625 -2.65625l5.40625 0q-0.109375 -1.21875 -0.625 -1.828125q-0.78125 -0.953125 -2.03125 -0.953125q-1.125 0 -1.90625 0.765625q-0.765625 0.75 -0.84375 2.015625z" fill-rule="nonzero"/><path fill="#000000" fill-opacity="0.0" d="m141.82939 217.4567l139.05513 0l0 28.7874l-139.05513 0z" fill-rule="evenodd"/><path fill="#000000" d="m186.23262 235.22351l1.609375 0.21875q-0.265625 1.65625 -1.359375 2.609375q-1.078125 0.9375 -2.671875 0.9375q-1.984375 0 -3.1875 -1.296875q-1.203125 -1.296875 -1.203125 -3.71875q0 -1.578125 0.515625 -2.75q0.515625 -1.171875 1.578125 -1.75q1.0625 -0.59375 2.3125 -0.59375q1.578125 0 2.578125 0.796875q1.0 0.796875 1.28125 2.265625l-1.59375 0.234375q-0.234375 -0.96875 -0.8125 -1.453125q-0.578125 -0.5 -1.390625 -0.5q-1.234375 0 -2.015625 0.890625q-0.78125 0.890625 -0.78125 2.8125q0 1.953125 0.75 2.84375q0.75 0.875 1.953125 0.875q0.96875 0 1.609375 -0.59375q0.65625 -0.59375 0.828125 -1.828125zm2.40625 -1.296875q0 -2.6875 1.484375 -3.96875q1.25 -1.078125 3.046875 -1.078125q2.0 0 3.265625 1.3125q1.265625 1.296875 1.265625 3.609375q0 1.859375 -0.5625 2.9375q-0.5625 1.0625 -1.640625 1.65625q-1.0625 0.59375 -2.328125 0.59375q-2.03125 0 -3.28125 -1.296875q-1.25 -1.3125 -1.25 -3.765625zm1.6875 0q0 1.859375 0.796875 2.796875q0.8125 0.921875 2.046875 0.921875q1.21875 0 2.03125 -0.921875q0.8125 -0.9375 0.8125 -2.84375q0 -1.796875 -0.8125 -2.71875q-0.8125 -0.921875 -2.03125 -0.921875q-1.234375 0 -2.046875 0.921875q-0.796875 0.90625 -0.796875 2.765625zm9.297592 4.84375l0 -9.671875l1.46875 0l0 1.375q1.0625 -1.59375 3.078125 -1.59375q0.875 0 1.609375 0.3125q0.734375 0.3125 1.09375 0.828125q0.375 0.5 0.515625 1.203125q0.09375 0.453125 0.09375 1.59375l0 5.953125l-1.640625 0l0 -5.890625q0 -1.0 -0.203125 -1.484375q-0.1875 -0.5 -0.671875 -0.796875q-0.484375 -0.296875 -1.140625 -0.296875q-1.046875 0 -1.8125 0.671875q-0.75 0.65625 -0.75 2.515625l0 5.28125l-1.640625 0zm10.375717 0l0 -9.671875l1.46875 0l0 1.375q1.0625 -1.59375 3.078125 -1.59375q0.875 0 1.609375 0.3125q0.734375 0.3125 1.09375 0.828125q0.375 0.5 0.515625 1.203125q0.09375 0.453125 0.09375 1.59375l0 5.953125l-1.640625 0l0 -5.890625q0 -1.0 -0.203125 -1.484375q-0.1875 -0.5 -0.671875 -0.796875q-0.484375 -0.296875 -1.140625 -0.296875q-1.046875 0 -1.8125 0.671875q-0.75 0.65625 -0.75 2.515625l0 5.28125l-1.640625 0zm17.000717 -3.109375l1.6875 0.203125q-0.40625 1.484375 -1.484375 2.3125q-1.078125 0.8125 -2.765625 0.8125q-2.125 0 -3.375 -1.296875q-1.234375 -1.3125 -1.234375 -3.671875q0 -2.453125 1.25 -3.796875q1.265625 -1.34375 3.265625 -1.34375q1.9375 0 3.15625 1.328125q1.234375 1.3125 1.234375 3.703125q0 0.15625 0 0.4375l-7.21875 0q0.09375 1.59375 0.90625 2.453125q0.8125 0.84375 2.015625 0.84375q0.90625 0 1.546875 -0.46875q0.640625 -0.484375 1.015625 -1.515625zm-5.390625 -2.65625l5.40625 0q-0.109375 -1.21875 -0.625 -1.828125q-0.78125 -0.953125 -2.03125 -0.953125q-1.125 0 -1.90625 0.765625q-0.765625 0.75 -0.84375 2.015625zm15.453842 2.21875l1.609375 0.21875q-0.265625 1.65625 -1.359375 2.609375q-1.078125 0.9375 -2.671875 0.9375q-1.984375 0 -3.1875 -1.296875q-1.203125 -1.296875 -1.203125 -3.71875q0 -1.578125 0.515625 -2.75q0.515625 -1.171875 1.578125 -1.75q1.0625 -0.59375 2.3125 -0.59375q1.578125 0 2.578125 0.796875q1.0 0.796875 1.28125 2.265625l-1.59375 0.234375q-0.234375 -0.96875 -0.8125 -1.453125q-0.578125 -0.5 -1.390625 -0.5q-1.234375 0 -2.015625 0.890625q-0.78125 0.890625 -0.78125 2.8125q0 1.953125 0.75 2.84375q0.75 0.875 1.953125 0.875q0.96875 0 1.609375 -0.59375q0.65625 -0.59375 0.828125 -1.828125zm6.59375 2.078125l0.234375 1.453125q-0.6875 0.140625 -1.234375 0.140625q-0.890625 0 -1.390625 -0.28125q-0.484375 -0.28125 -0.6875 -0.734375q-0.203125 -0.46875 -0.203125 -1.9375l0 -5.578125l-1.203125 0l0 -1.265625l1.203125 0l0 -2.390625l1.625 -0.984375l0 3.375l1.65625 0l0 1.265625l-1.65625 0l0 5.671875q0 0.6875 0.078125 0.890625q0.09375 0.203125 0.28125 0.328125q0.203125 0.109375 0.578125 0.109375q0.265625 0 0.71875 -0.0625z" fill-rule="nonzero"/></g></svg>