<svg version="1.1" viewBox="0.0 0.0 1206.9501312335958 268.20997375328085" fill="none" stroke="none" stroke-linecap="square" stroke-miterlimit="10" xmlns:xlink="http://www.w3.org/1999/xlink" xmlns="http://www.w3.org/2000/svg"><clipPath id="p.0"><path d="m0 0l1206.9501 0l0 268.20996l-1206.9501 0l0 -268.20996z" clip-rule="nonzero"/></clipPath><g clip-path="url(#p.0)"><path fill="#000000" fill-opacity="0.0" d="m0 0l1206.9501 0l0 268.20996l-1206.9501 0z" fill-rule="evenodd"/><path fill="#ffffff" d="m7.1574802 88.63517l0 0c0 -12.741684 10.702862 -23.070862 23.905512 -23.070862l0 0c6.3401375 0 12.420597 2.4306717 16.903751 6.7572937c4.4831505 4.3266296 7.0017586 10.194794 7.0017586 16.313568l0 0c0 12.741692 -10.702862 23.07087 -23.90551 23.07087l0 0c-13.20265 0 -23.905512 -10.329178 -23.905512 -23.07087z" fill-rule="evenodd"/><path stroke="#000000" stroke-width="4.0" stroke-linejoin="round" stroke-linecap="butt" d="m7.1574802 88.63517l0 0c0 -12.741684 10.702862 -23.070862 23.905512 -23.070862l0 0c6.3401375 0 12.420597 2.4306717 16.903751 6.7572937c4.4831505 4.3266296 7.0017586 10.194794 7.0017586 16.313568l0 0c0 12.741692 -10.702862 23.07087 -23.90551 23.07087l0 0c-13.20265 0 -23.905512 -10.329178 -23.905512 -23.07087z" fill-rule="evenodd"/><path fill="#000000" d="m24.809956 95.55517l5.125 -13.359375l1.90625 0l5.46875 13.359375l-2.015625 0l-1.546875 -4.046875l-5.59375 0l-1.46875 4.046875l-1.875 0zm3.859375 -5.484375l4.53125 0l-1.40625 -3.703125q-0.625 -1.6875 -0.9375 -2.765625q-0.265625 1.28125 -0.71875 2.546875l-1.46875 3.921875z" fill-rule="nonzero"/><path fill="#ffffff" d="m127.15748 33.598427l0 0c0 -12.74169 10.702858 -23.070868 23.90551 -23.070868l0 0c6.3401337 0 12.420593 2.4306736 16.903748 6.7572994c4.4831543 4.3266277 7.00177 10.194792 7.00177 16.313568l0 0c0 12.741688 -10.702866 23.070866 -23.905518 23.070866l0 0c-13.202652 0 -23.90551 -10.329178 -23.90551 -23.070866z" fill-rule="evenodd"/><path stroke="#000000" stroke-width="4.0" stroke-linejoin="round" stroke-linecap="butt" d="m127.15748 33.598427l0 0c0 -12.74169 10.702858 -23.070868 23.90551 -23.070868l0 0c6.3401337 0 12.420593 2.4306736 16.903748 6.7572994c4.4831543 4.3266277 7.00177 10.194792 7.00177 16.313568l0 0c0 12.741688 -10.702866 23.070866 -23.905518 23.070866l0 0c-13.202652 0 -23.90551 -10.329178 -23.90551 -23.070866z" fill-rule="evenodd"/><path fill="#000000" d="m146.30995 40.518425l0 -13.359377l9.65625 0l0 1.578125l-7.875 0l0 4.093752l7.375 0l0 1.5625l-7.375 0l0 4.546875l8.1875 0l0 1.578125l-9.96875 0z" fill-rule="nonzero"/><path fill="#ffffff" d="m231.15749 129.59842l0 0c0 -12.741684 10.70285 -23.070862 23.905502 -23.070862l0 0c6.340149 0 12.420593 2.4306717 16.903748 6.7573013c4.4831543 4.3266296 7.00177 10.194794 7.00177 16.31356l0 0c0 12.741699 -10.70285 23.070877 -23.905518 23.070877l0 0c-13.202652 0 -23.905502 -10.329178 -23.905502 -23.070877z" fill-rule="evenodd"/><path stroke="#000000" stroke-width="4.0" stroke-linejoin="round" stroke-linecap="butt" d="m231.15749 129.59842l0 0c0 -12.741684 10.70285 -23.070862 23.905502 -23.070862l0 0c6.340149 0 12.420593 2.4306717 16.903748 6.7573013c4.4831543 4.3266296 7.00177 10.194794 7.00177 16.31356l0 0c0 12.741699 -10.70285 23.070877 -23.905518 23.070877l0 0c-13.202652 0 -23.905502 -10.329178 -23.905502 -23.070877z" fill-rule="evenodd"/><path fill="#000000" d="m250.20058 136.51842l0 -13.359367l5.015625 0q1.5312653 0 2.4531403 0.40625q0.921875 0.40625 1.4375 1.25q0.53125 0.84375 0.53125 1.765625q0 0.859375 -0.46875 1.6249924q-0.453125 0.75 -1.390625 1.203125q1.203125 0.359375 1.859375 1.21875q0.65625 0.859375 0.65625 2.015625q0 0.9375 -0.40625 1.75q-0.390625 0.796875 -0.984375 1.234375q-0.578125 0.4375 -1.453125 0.671875q-0.875 0.21875 -2.1562653 0.21875l-5.09375 0zm1.78125 -7.75l2.875 0q1.1875153 0 1.6875153 -0.140625q0.671875 -0.203125 1.015625 -0.6718674q0.34375 -0.46875 0.34375 -1.171875q0 -0.65625 -0.328125 -1.15625q-0.3125 -0.515625 -0.90625 -0.703125q-0.59375 -0.1875 -2.0312653 -0.1875l-2.65625 0l0 4.0312424zm0 6.171875l3.3125 0q0.85939026 0 1.2031403 -0.0625q0.609375 -0.109375 1.015625 -0.359375q0.421875 -0.265625 0.6875 -0.75q0.265625 -0.484375 0.265625 -1.125q0 -0.75 -0.390625 -1.296875q-0.375 -0.546875 -1.0625 -0.765625q-0.671875 -0.234375 -1.9531403 -0.234375l-3.078125 0l0 4.59375z" fill-rule="nonzero"/><path fill="#ffffff" d="m175.15749 233.59842l0 0c0 -12.741684 10.70285 -23.070862 23.905502 -23.070862l0 0c6.3401337 0 12.420593 2.4306793 16.903748 6.757309c4.4831543 4.3266144 7.00177 10.194778 7.00177 16.313553l0 0c0 12.741699 -10.702866 23.070862 -23.905518 23.070862l0 0c-13.202652 0 -23.905502 -10.329163 -23.905502 -23.070862z" fill-rule="evenodd"/><path stroke="#000000" stroke-width="4.0" stroke-linejoin="round" stroke-linecap="butt" d="m175.15749 233.59842l0 0c0 -12.741684 10.70285 -23.070862 23.905502 -23.070862l0 0c6.3401337 0 12.420593 2.4306793 16.903748 6.757309c4.4831543 4.3266144 7.00177 10.194778 7.00177 16.313553l0 0c0 12.741699 -10.702866 23.070862 -23.905518 23.070862l0 0c-13.202652 0 -23.905502 -10.329163 -23.905502 -23.070862z" fill-rule="evenodd"/><path fill="#000000" d="m193.76402 240.51842l0 -13.359375l4.609375 0q1.546875 0 2.375 0.203125q1.140625 0.25 1.953125 0.953125q1.0625 0.890625 1.578125 2.28125q0.53125 1.390625 0.53125 3.171875q0 1.515625 -0.359375 2.703125q-0.359375 1.171875 -0.921875 1.9375q-0.546875 0.765625 -1.203125 1.21875q-0.65625 0.4375 -1.59375 0.671875q-0.9375 0.21875 -2.140625 0.21875l-4.828125 0zm1.765625 -1.578125l2.859375 0q1.3125 0 2.0625 -0.234375q0.75 -0.25 1.203125 -0.703125q0.625 -0.625 0.96875 -1.6875q0.359375 -1.0625 0.359375 -2.578125q0 -2.09375 -0.6875 -3.21875q-0.6875 -1.125 -1.671875 -1.5q-0.703125 -0.28125 -2.28125 -0.28125l-2.8125 0l0 10.203125z" fill-rule="nonzero"/><path fill="#ffffff" d="m30.614174 220.06299l0 0c0 -12.741684 10.702862 -23.070862 23.90551 -23.070862l0 0c6.3401375 0 12.420601 2.4306793 16.903748 6.7572937c4.4831543 4.3266296 7.0017624 10.194794 7.0017624 16.313568l0 0c0 12.741684 -10.702858 23.070877 -23.90551 23.070877l0 0c-13.202648 0 -23.90551 -10.329193 -23.90551 -23.070877z" fill-rule="evenodd"/><path stroke="#000000" stroke-width="4.0" stroke-linejoin="round" stroke-linecap="butt" d="m30.614174 220.06299l0 0c0 -12.741684 10.702862 -23.070862 23.90551 -23.070862l0 0c6.3401375 0 12.420601 2.4306793 16.903748 6.7572937c4.4831543 4.3266296 7.0017624 10.194794 7.0017624 16.313568l0 0c0 12.741684 -10.702858 23.070877 -23.90551 23.070877l0 0c-13.202648 0 -23.90551 -10.329193 -23.90551 -23.070877z" fill-rule="evenodd"/><path fill="#000000" d="m58.75196 222.29549l1.765625 0.453125q-0.5625 2.171875 -2.0 3.328125q-1.4375 1.140625 -3.53125 1.140625q-2.15625 0 -3.515625 -0.875q-1.34375 -0.890625 -2.0625 -2.546875q-0.703125 -1.671875 -0.703125 -3.59375q0 -2.078125 0.796875 -3.625q0.796875 -1.5625 2.265625 -2.359375q1.484375 -0.8125 3.25 -0.8125q2.0 0 3.359375 1.015625q1.375 1.015625 1.90625 2.875l-1.734375 0.40625q-0.46875 -1.453125 -1.359375 -2.109375q-0.875 -0.671875 -2.203125 -0.671875q-1.546875 0 -2.578125 0.734375q-1.03125 0.734375 -1.453125 1.984375q-0.421875 1.234375 -0.421875 2.5625q0 1.703125 0.5 2.96875q0.5 1.265625 1.546875 1.90625q1.046875 0.625 2.265625 0.625q1.484375 0 2.515625 -0.859375q1.03125 -0.859375 1.390625 -2.546875z" fill-rule="nonzero"/><path fill="#000000" d="m47.78321 228.19632l13.472946 0l0 1.6800079l-13.472946 0l0 -1.6800079z" fill-rule="nonzero"/><path fill="#000000" fill-opacity="0.0" d="m54.412075 78.55905l73.95274 -36.409447" fill-rule="evenodd"/><path stroke="#000000" stroke-width="4.0" stroke-linejoin="round" stroke-linecap="butt" d="m54.412075 78.55905l52.42088 -25.808575" fill-rule="evenodd"/><path fill="#000000" stroke="#000000" stroke-width="4.0" stroke-linecap="butt" d="m109.75126 58.67796l13.367325 -13.945446l-19.203926 2.0904808z" fill-rule="evenodd"/><path fill="#000000" fill-opacity="0.0" d="m167.96674 49.91199l70.20473 63.370075" fill-rule="evenodd"/><path stroke="#000000" stroke-width="4.0" stroke-linejoin="round" stroke-linecap="butt" d="m167.96674 49.91199l52.38913 47.28889" fill-rule="evenodd"/><path fill="#000000" stroke="#000000" stroke-width="4.0" stroke-linecap="butt" d="m215.92891 102.105316l17.90178 7.258568l-9.047852 -17.067436z" fill-rule="evenodd"/><path fill="#000000" fill-opacity="0.0" d="m244.61417 151.0l-33.795273 60.91339" fill-rule="evenodd"/><path stroke="#000000" stroke-width="4.0" stroke-linejoin="round" stroke-linecap="butt" d="m244.61417 151.0l-22.15181 39.926956" fill-rule="evenodd"/><path fill="#000000" stroke="#000000" stroke-width="4.0" stroke-linecap="butt" d="m216.68503 187.72165l-3.0292053 19.078384l14.583847 -12.667755z" fill-rule="evenodd"/><path fill="#000000" fill-opacity="0.0" d="m175.15749 233.59842l-96.72442 -13.543304" fill-rule="evenodd"/><path stroke="#000000" stroke-width="4.0" stroke-linejoin="round" stroke-linecap="butt" d="m175.15749 233.59842l-72.956276 -10.2153015" fill-rule="evenodd"/><path fill="#000000" stroke="#000000" stroke-width="4.0" stroke-linecap="butt" d="m103.11737 216.84003l-18.89318 4.025955l17.06086 9.060242z" fill-rule="evenodd"/><path fill="#000000" fill-opacity="0.0" d="m46.968502 198.91864l-15.90551 -87.2126" fill-rule="evenodd"/><path stroke="#000000" stroke-width="4.0" stroke-linejoin="round" stroke-linecap="butt" d="m46.968502 198.91864l-11.599506 -63.60205" fill-rule="evenodd"/><path fill="#000000" stroke="#000000" stroke-width="4.0" stroke-linecap="butt" d="m41.868717 134.1312l-9.756565 -16.67244l-3.2428741 19.043228z" fill-rule="evenodd"/><path fill="#ffffff" d="m455.15747 88.63517l0 0c0 -12.741684 10.702881 -23.070862 23.905518 -23.070862l0 0c6.340149 0 12.420593 2.4306717 16.903748 6.7572937c4.4831543 4.3266296 7.00177 10.194794 7.00177 16.313568l0 0c0 12.741692 -10.70285 23.07087 -23.905518 23.07087l0 0c-13.202637 0 -23.905518 -10.329178 -23.905518 -23.07087z" fill-rule="evenodd"/><path stroke="#000000" stroke-width="4.0" stroke-linejoin="round" stroke-linecap="butt" d="m455.15747 88.63517l0 0c0 -12.741684 10.702881 -23.070862 23.905518 -23.070862l0 0c6.340149 0 12.420593 2.4306717 16.903748 6.7572937c4.4831543 4.3266296 7.00177 10.194794 7.00177 16.313568l0 0c0 12.741692 -10.70285 23.07087 -23.905518 23.07087l0 0c-13.202637 0 -23.905518 -10.329178 -23.905518 -23.07087z" fill-rule="evenodd"/><path fill="#000000" d="m472.80997 95.55517l5.125 -13.359375l1.90625 0l5.46875 13.359375l-2.015625 0l-1.546875 -4.046875l-5.59375 0l-1.46875 4.046875l-1.875 0zm3.859375 -5.484375l4.53125 0l-1.40625 -3.703125q-0.625 -1.6875 -0.9375 -2.765625q-0.265625 1.28125 -0.71875 2.546875l-1.46875 3.921875z" fill-rule="nonzero"/><path fill="#ffffff" d="m575.1575 33.598427l0 0c0 -12.74169 10.702881 -23.070868 23.905518 -23.070868l0 0c6.340149 0 12.420593 2.4306736 16.903748 6.7572994c4.4831543 4.3266277 7.00177 10.194792 7.00177 16.313568l0 0c0 12.741688 -10.702881 23.070866 -23.905518 23.070866l0 0c-13.202637 0 -23.905518 -10.329178 -23.905518 -23.070866z" fill-rule="evenodd"/><path stroke="#000000" stroke-width="4.0" stroke-linejoin="round" stroke-linecap="butt" d="m575.1575 33.598427l0 0c0 -12.74169 10.702881 -23.070868 23.905518 -23.070868l0 0c6.340149 0 12.420593 2.4306736 16.903748 6.7572994c4.4831543 4.3266277 7.00177 10.194792 7.00177 16.313568l0 0c0 12.741688 -10.702881 23.070866 -23.905518 23.070866l0 0c-13.202637 0 -23.905518 -10.329178 -23.905518 -23.070866z" fill-rule="evenodd"/><path fill="#000000" d="m594.30994 40.518425l0 -13.359377l9.65625 0l0 1.578125l-7.875 0l0 4.093752l7.375 0l0 1.5625l-7.375 0l0 4.546875l8.1875 0l0 1.578125l-9.96875 0z" fill-rule="nonzero"/><path fill="#ffffff" d="m679.1575 129.59842l0 0c0 -12.741684 10.702881 -23.070862 23.905518 -23.070862l0 0c6.340149 0 12.420593 2.4306717 16.903748 6.7573013c4.4831543 4.3266296 7.00177 10.194794 7.00177 16.31356l0 0c0 12.741699 -10.702881 23.070877 -23.905518 23.070877l0 0c-13.202637 0 -23.905518 -10.329178 -23.905518 -23.070877z" fill-rule="evenodd"/><path stroke="#000000" stroke-width="4.0" stroke-linejoin="round" stroke-linecap="butt" d="m679.1575 129.59842l0 0c0 -12.741684 10.702881 -23.070862 23.905518 -23.070862l0 0c6.340149 0 12.420593 2.4306717 16.903748 6.7573013c4.4831543 4.3266296 7.00177 10.194794 7.00177 16.31356l0 0c0 12.741699 -10.702881 23.070877 -23.905518 23.070877l0 0c-13.202637 0 -23.905518 -10.329178 -23.905518 -23.070877z" fill-rule="evenodd"/><path fill="#000000" d="m698.20056 136.51842l0 -13.359367l5.015625 0q1.53125 0 2.453125 0.40625q0.921875 0.40625 1.4375 1.25q0.53125 0.84375 0.53125 1.765625q0 0.859375 -0.46875 1.6249924q-0.453125 0.75 -1.390625 1.203125q1.203125 0.359375 1.859375 1.21875q0.65625 0.859375 0.65625 2.015625q0 0.9375 -0.40625 1.75q-0.390625 0.796875 -0.984375 1.234375q-0.578125 0.4375 -1.453125 0.671875q-0.875 0.21875 -2.15625 0.21875l-5.09375 0zm1.78125 -7.75l2.875 0q1.1875 0 1.6875 -0.140625q0.671875 -0.203125 1.015625 -0.6718674q0.34375 -0.46875 0.34375 -1.171875q0 -0.65625 -0.328125 -1.15625q-0.3125 -0.515625 -0.90625 -0.703125q-0.59375 -0.1875 -2.03125 -0.1875l-2.65625 0l0 4.0312424zm0 6.171875l3.3125 0q0.859375 0 1.203125 -0.0625q0.609375 -0.109375 1.015625 -0.359375q0.421875 -0.265625 0.6875 -0.75q0.265625 -0.484375 0.265625 -1.125q0 -0.75 -0.390625 -1.296875q-0.375 -0.546875 -1.0625 -0.765625q-0.671875 -0.234375 -1.953125 -0.234375l-3.078125 0l0 4.59375z" fill-rule="nonzero"/><path fill="#ffffff" d="m623.1575 233.59842l0 0c0 -12.741684 10.702881 -23.070862 23.905518 -23.070862l0 0c6.340149 0 12.420593 2.4306793 16.903748 6.757309c4.4831543 4.3266144 7.00177 10.194778 7.00177 16.313553l0 0c0 12.741699 -10.702881 23.070862 -23.905518 23.070862l0 0c-13.202637 0 -23.905518 -10.329163 -23.905518 -23.070862z" fill-rule="evenodd"/><path stroke="#000000" stroke-width="4.0" stroke-linejoin="round" stroke-linecap="butt" d="m623.1575 233.59842l0 0c0 -12.741684 10.702881 -23.070862 23.905518 -23.070862l0 0c6.340149 0 12.420593 2.4306793 16.903748 6.757309c4.4831543 4.3266144 7.00177 10.194778 7.00177 16.313553l0 0c0 12.741699 -10.702881 23.070862 -23.905518 23.070862l0 0c-13.202637 0 -23.905518 -10.329163 -23.905518 -23.070862z" fill-rule="evenodd"/><path fill="#000000" d="m641.76404 240.51842l0 -13.359375l4.609375 0q1.546875 0 2.375 0.203125q1.140625 0.25 1.953125 0.953125q1.0625 0.890625 1.578125 2.28125q0.53125 1.390625 0.53125 3.171875q0 1.515625 -0.359375 2.703125q-0.359375 1.171875 -0.921875 1.9375q-0.546875 0.765625 -1.203125 1.21875q-0.65625 0.4375 -1.59375 0.671875q-0.9375 0.21875 -2.140625 0.21875l-4.828125 0zm1.765625 -1.578125l2.859375 0q1.3125 0 2.0625 -0.234375q0.75 -0.25 1.203125 -0.703125q0.625 -0.625 0.96875 -1.6875q0.359375 -1.0625 0.359375 -2.578125q0 -2.09375 -0.6875 -3.21875q-0.6875 -1.125 -1.671875 -1.5q-0.703125 -0.28125 -2.28125 -0.28125l-2.8125 0l0 10.203125z" fill-rule="nonzero"/><path fill="#ffffff" d="m478.61417 220.06299l0 0c0 -12.741684 10.702881 -23.070862 23.905518 -23.070862l0 0c6.340149 0 12.420624 2.4306793 16.903778 6.7572937c4.4831543 4.3266296 7.001709 10.194794 7.001709 16.313568l0 0c0 12.741684 -10.70282 23.070877 -23.905487 23.070877l0 0c-13.202637 0 -23.905518 -10.329193 -23.905518 -23.070877z" fill-rule="evenodd"/><path stroke="#000000" stroke-width="4.0" stroke-linejoin="round" stroke-linecap="butt" d="m478.61417 220.06299l0 0c0 -12.741684 10.702881 -23.070862 23.905518 -23.070862l0 0c6.340149 0 12.420624 2.4306793 16.903778 6.7572937c4.4831543 4.3266296 7.001709 10.194794 7.001709 16.313568l0 0c0 12.741684 -10.70282 23.070877 -23.905487 23.070877l0 0c-13.202637 0 -23.905518 -10.329193 -23.905518 -23.070877z" fill-rule="evenodd"/><path fill="#000000" d="m506.75195 222.29549l1.765625 0.453125q-0.5625 2.171875 -2.0 3.328125q-1.4375 1.140625 -3.53125 1.140625q-2.15625 0 -3.515625 -0.875q-1.34375 -0.890625 -2.0625 -2.546875q-0.703125 -1.671875 -0.703125 -3.59375q0 -2.078125 0.796875 -3.625q0.796875 -1.5625 2.265625 -2.359375q1.484375 -0.8125 3.25 -0.8125q2.0 0 3.359375 1.015625q1.375 1.015625 1.90625 2.875l-1.734375 0.40625q-0.46875 -1.453125 -1.359375 -2.109375q-0.875 -0.671875 -2.203125 -0.671875q-1.546875 0 -2.578125 0.734375q-1.03125 0.734375 -1.453125 1.984375q-0.421875 1.234375 -0.421875 2.5625q0 1.703125 0.5 2.96875q0.5 1.265625 1.546875 1.90625q1.046875 0.625 2.265625 0.625q1.484375 0 2.515625 -0.859375q1.03125 -0.859375 1.390625 -2.546875z" fill-rule="nonzero"/><path fill="#000000" d="m495.7832 228.19632l13.472961 0l0 1.6800079l-13.472961 0l0 -1.6800079z" fill-rule="nonzero"/><path fill="#000000" fill-opacity="0.0" d="m502.41208 78.55905l73.95273 -36.409447" fill-rule="evenodd"/><path stroke="#000000" stroke-width="4.0" stroke-linejoin="round" stroke-linecap="butt" d="m502.41208 78.55905l52.420868 -25.808575" fill-rule="evenodd"/><path fill="#000000" stroke="#000000" stroke-width="4.0" stroke-linecap="butt" d="m557.7513 58.67796l13.36731 -13.945446l-19.203918 2.0904808z" fill-rule="evenodd"/><path fill="#000000" fill-opacity="0.0" d="m615.96674 49.91199l70.20471 63.370075" fill-rule="evenodd"/><path stroke="#000000" stroke-width="4.0" stroke-linejoin="round" stroke-linecap="butt" d="m615.96674 49.91199l52.38916 47.28889" fill-rule="evenodd"/><path fill="#000000" stroke="#000000" stroke-width="4.0" stroke-linecap="butt" d="m663.9289 102.105316l17.901794 7.258568l-9.047852 -17.067436z" fill-rule="evenodd"/><path fill="#000000" fill-opacity="0.0" d="m692.6142 151.0l-33.795288 60.91339" fill-rule="evenodd"/><path stroke="#000000" stroke-width="4.0" stroke-linejoin="round" stroke-linecap="butt" d="m692.6142 151.0l-22.151855 39.926956" fill-rule="evenodd"/><path fill="#000000" stroke="#000000" stroke-width="4.0" stroke-linecap="butt" d="m664.685 187.72165l-3.0291748 19.078384l14.583862 -12.667755z" fill-rule="evenodd"/><path fill="#000000" fill-opacity="0.0" d="m623.1575 233.59842l-96.72443 -13.543304" fill-rule="evenodd"/><path stroke="#000000" stroke-width="4.0" stroke-linejoin="round" stroke-linecap="butt" d="m623.1575 233.59842l-72.9563 -10.2153015" fill-rule="evenodd"/><path fill="#000000" stroke="#000000" stroke-width="4.0" stroke-linecap="butt" d="m551.1174 216.84003l-18.893188 4.025955l17.060852 9.060242z" fill-rule="evenodd"/><path fill="#ffffff" d="m927.1575 88.63517l0 0c0 -12.741684 10.702881 -23.070862 23.905518 -23.070862l0 0c6.340149 0 12.420593 2.4306717 16.903748 6.7572937c4.4831543 4.3266296 7.00177 10.194794 7.00177 16.313568l0 0c0 12.741692 -10.702881 23.07087 -23.905518 23.07087l0 0c-13.202637 0 -23.905518 -10.329178 -23.905518 -23.07087z" fill-rule="evenodd"/><path stroke="#000000" stroke-width="4.0" stroke-linejoin="round" stroke-linecap="butt" d="m927.1575 88.63517l0 0c0 -12.741684 10.702881 -23.070862 23.905518 -23.070862l0 0c6.340149 0 12.420593 2.4306717 16.903748 6.7572937c4.4831543 4.3266296 7.00177 10.194794 7.00177 16.313568l0 0c0 12.741692 -10.702881 23.07087 -23.905518 23.07087l0 0c-13.202637 0 -23.905518 -10.329178 -23.905518 -23.07087z" fill-rule="evenodd"/><path fill="#000000" d="m944.80994 95.55517l5.125 -13.359375l1.90625 0l5.46875 13.359375l-2.015625 0l-1.546875 -4.046875l-5.59375 0l-1.46875 4.046875l-1.875 0zm3.859375 -5.484375l4.53125 0l-1.40625 -3.703125q-0.625 -1.6875 -0.9375 -2.765625q-0.265625 1.28125 -0.71875 2.546875l-1.46875 3.921875z" fill-rule="nonzero"/><path fill="#ffffff" d="m1047.1575 33.598427l0 0c0 -12.74169 10.702881 -23.070868 23.905518 -23.070868l0 0c6.340088 0 12.420654 2.4306736 16.903809 6.7572994c4.4831543 4.3266277 7.001709 10.194792 7.001709 16.313568l0 0c0 12.741688 -10.702881 23.070866 -23.905518 23.070866l0 0c-13.202637 0 -23.905518 -10.329178 -23.905518 -23.070866z" fill-rule="evenodd"/><path stroke="#000000" stroke-width="4.0" stroke-linejoin="round" stroke-linecap="butt" d="m1047.1575 33.598427l0 0c0 -12.74169 10.702881 -23.070868 23.905518 -23.070868l0 0c6.340088 0 12.420654 2.4306736 16.903809 6.7572994c4.4831543 4.3266277 7.001709 10.194792 7.001709 16.313568l0 0c0 12.741688 -10.702881 23.070866 -23.905518 23.070866l0 0c-13.202637 0 -23.905518 -10.329178 -23.905518 -23.070866z" fill-rule="evenodd"/><path fill="#000000" d="m1066.3099 40.518425l0 -13.359377l9.65625 0l0 1.578125l-7.875 0l0 4.093752l7.375 0l0 1.5625l-7.375 0l0 4.546875l8.1875 0l0 1.578125l-9.96875 0z" fill-rule="nonzero"/><path fill="#ffffff" d="m1151.1575 129.59842l0 0c0 -12.741684 10.702881 -23.070862 23.905518 -23.070862l0 0c6.340088 0 12.420654 2.4306717 16.903809 6.7573013c4.4831543 4.3266296 7.001709 10.194794 7.001709 16.31356l0 0c0 12.741699 -10.702881 23.070877 -23.905518 23.070877l0 0c-13.202637 0 -23.905518 -10.329178 -23.905518 -23.070877z" fill-rule="evenodd"/><path stroke="#000000" stroke-width="4.0" stroke-linejoin="round" stroke-linecap="butt" d="m1151.1575 129.59842l0 0c0 -12.741684 10.702881 -23.070862 23.905518 -23.070862l0 0c6.340088 0 12.420654 2.4306717 16.903809 6.7573013c4.4831543 4.3266296 7.001709 10.194794 7.001709 16.31356l0 0c0 12.741699 -10.702881 23.070877 -23.905518 23.070877l0 0c-13.202637 0 -23.905518 -10.329178 -23.905518 -23.070877z" fill-rule="evenodd"/><path fill="#000000" d="m1170.2006 136.51842l0 -13.359367l5.015625 0q1.53125 0 2.453125 0.40625q0.921875 0.40625 1.4375 1.25q0.53125 0.84375 0.53125 1.765625q0 0.859375 -0.46875 1.6249924q-0.453125 0.75 -1.390625 1.203125q1.203125 0.359375 1.859375 1.21875q0.65625 0.859375 0.65625 2.015625q0 0.9375 -0.40625 1.75q-0.390625 0.796875 -0.984375 1.234375q-0.578125 0.4375 -1.453125 0.671875q-0.875 0.21875 -2.15625 0.21875l-5.09375 0zm1.78125 -7.75l2.875 0q1.1875 0 1.6875 -0.140625q0.671875 -0.203125 1.015625 -0.6718674q0.34375 -0.46875 0.34375 -1.171875q0 -0.65625 -0.328125 -1.15625q-0.3125 -0.515625 -0.90625 -0.703125q-0.59375 -0.1875 -2.03125 -0.1875l-2.65625 0l0 4.0312424zm0 6.171875l3.3125 0q0.859375 0 1.203125 -0.0625q0.609375 -0.109375 1.015625 -0.359375q0.421875 -0.265625 0.6875 -0.75q0.265625 -0.484375 0.265625 -1.125q0 -0.75 -0.390625 -1.296875q-0.375 -0.546875 -1.0625 -0.765625q-0.671875 -0.234375 -1.953125 -0.234375l-3.078125 0l0 4.59375z" fill-rule="nonzero"/><path fill="#ffffff" d="m1095.1575 233.59842l0 0c0 -12.741684 10.702881 -23.070862 23.905518 -23.070862l0 0c6.340088 0 12.420654 2.4306793 16.903809 6.757309c4.4831543 4.3266144 7.001709 10.194778 7.001709 16.313553l0 0c0 12.741699 -10.702881 23.070862 -23.905518 23.070862l0 0c-13.202637 0 -23.905518 -10.329163 -23.905518 -23.070862z" fill-rule="evenodd"/><path stroke="#000000" stroke-width="4.0" stroke-linejoin="round" stroke-linecap="butt" d="m1095.1575 233.59842l0 0c0 -12.741684 10.702881 -23.070862 23.905518 -23.070862l0 0c6.340088 0 12.420654 2.4306793 16.903809 6.757309c4.4831543 4.3266144 7.001709 10.194778 7.001709 16.313553l0 0c0 12.741699 -10.702881 23.070862 -23.905518 23.070862l0 0c-13.202637 0 -23.905518 -10.329163 -23.905518 -23.070862z" fill-rule="evenodd"/><path fill="#000000" d="m1113.764 240.51842l0 -13.359375l4.609375 0q1.546875 0 2.375 0.203125q1.140625 0.25 1.953125 0.953125q1.0625 0.890625 1.578125 2.28125q0.53125 1.390625 0.53125 3.171875q0 1.515625 -0.359375 2.703125q-0.359375 1.171875 -0.921875 1.9375q-0.546875 0.765625 -1.203125 1.21875q-0.65625 0.4375 -1.59375 0.671875q-0.9375 0.21875 -2.140625 0.21875l-4.828125 0zm1.765625 -1.578125l2.859375 0q1.3125 0 2.0625 -0.234375q0.75 -0.25 1.203125 -0.703125q0.625 -0.625 0.96875 -1.6875q0.359375 -1.0625 0.359375 -2.578125q0 -2.09375 -0.6875 -3.21875q-0.6875 -1.125 -1.671875 -1.5q-0.703125 -0.28125 -2.28125 -0.28125l-2.8125 0l0 10.203125z" fill-rule="nonzero"/><path fill="#ffffff" d="m950.6142 220.06299l0 0c0 -12.741684 10.70282 -23.070862 23.905518 -23.070862l0 0c6.340088 0 12.420593 2.4306793 16.903748 6.7572937c4.4831543 4.3266296 7.001709 10.194794 7.001709 16.313568l0 0c0 12.741684 -10.70282 23.070877 -23.905457 23.070877l0 0c-13.202698 0 -23.905518 -10.329193 -23.905518 -23.070877z" fill-rule="evenodd"/><path stroke="#000000" stroke-width="4.0" stroke-linejoin="round" stroke-linecap="butt" d="m950.6142 220.06299l0 0c0 -12.741684 10.70282 -23.070862 23.905518 -23.070862l0 0c6.340088 0 12.420593 2.4306793 16.903748 6.7572937c4.4831543 4.3266296 7.001709 10.194794 7.001709 16.313568l0 0c0 12.741684 -10.70282 23.070877 -23.905457 23.070877l0 0c-13.202698 0 -23.905518 -10.329193 -23.905518 -23.070877z" fill-rule="evenodd"/><path fill="#000000" d="m978.75195 222.29549l1.765625 0.453125q-0.5625 2.171875 -2.0 3.328125q-1.4375 1.140625 -3.53125 1.140625q-2.15625 0 -3.515625 -0.875q-1.34375 -0.890625 -2.0625 -2.546875q-0.703125 -1.671875 -0.703125 -3.59375q0 -2.078125 0.796875 -3.625q0.796875 -1.5625 2.265625 -2.359375q1.484375 -0.8125 3.25 -0.8125q2.0 0 3.359375 1.015625q1.375 1.015625 1.90625 2.875l-1.734375 0.40625q-0.46875 -1.453125 -1.359375 -2.109375q-0.875 -0.671875 -2.203125 -0.671875q-1.546875 0 -2.578125 0.734375q-1.03125 0.734375 -1.453125 1.984375q-0.421875 1.234375 -0.421875 2.5625q0 1.703125 0.5 2.96875q0.5 1.265625 1.546875 1.90625q1.046875 0.625 2.265625 0.625q1.484375 0 2.515625 -0.859375q1.03125 -0.859375 1.390625 -2.546875z" fill-rule="nonzero"/><path fill="#000000" d="m967.7832 228.19632l13.472961 0l0 1.6800079l-13.472961 0l0 -1.6800079z" fill-rule="nonzero"/><path fill="#000000" fill-opacity="0.0" d="m974.41205 78.55905l73.95282 -36.409447" fill-rule="evenodd"/><path stroke="#000000" stroke-width="4.0" stroke-linejoin="round" stroke-linecap="butt" d="m974.41205 78.55905l52.420837 -25.808575" fill-rule="evenodd"/><path fill="#000000" stroke="#000000" stroke-width="4.0" stroke-linecap="butt" d="m1029.7512 58.67796l13.36731 -13.945446l-19.203857 2.0904808z" fill-rule="evenodd"/><path fill="#000000" fill-opacity="0.0" d="m1087.9668 49.91199l70.20471 63.370075" fill-rule="evenodd"/><path stroke="#000000" stroke-width="4.0" stroke-linejoin="round" stroke-linecap="butt" d="m1087.9668 49.91199l52.389038 47.28889" fill-rule="evenodd"/><path fill="#000000" stroke="#000000" stroke-width="4.0" stroke-linecap="butt" d="m1135.929 102.105316l17.901733 7.258568l-9.047852 -17.067436z" fill-rule="evenodd"/><path fill="#000000" fill-opacity="0.0" d="m1164.6141 151.0l-33.795288 60.91339" fill-rule="evenodd"/><path stroke="#000000" stroke-width="4.0" stroke-linejoin="round" stroke-linecap="butt" d="m1164.6141 151.0l-22.151733 39.926956" fill-rule="evenodd"/><path fill="#000000" stroke="#000000" stroke-width="4.0" stroke-linecap="butt" d="m1136.685 187.72165l-3.0291748 19.078384l14.58374 -12.667755z" fill-rule="evenodd"/><path fill="#000000" fill-opacity="0.0" d="m1095.1575 233.59842l-96.72443 -13.543304" fill-rule="evenodd"/><path stroke="#000000" stroke-width="4.0" stroke-linejoin="round" stroke-linecap="butt" d="m1095.1575 233.59842l-72.9563 -10.2153015" fill-rule="evenodd"/><path fill="#000000" stroke="#000000" stroke-width="4.0" stroke-linecap="butt" d="m1023.1174 216.84003l-18.893188 4.025955l17.060852 9.060242z" fill-rule="evenodd"/><path fill="#000000" fill-opacity="0.0" d="m966.9685 198.91864l-15.905518 -87.2126" fill-rule="evenodd"/><path stroke="#000000" stroke-width="4.0" stroke-linejoin="round" stroke-linecap="butt" d="m966.9685 198.91864l-11.599487 -63.60205" fill-rule="evenodd"/><path fill="#000000" stroke="#000000" stroke-width="4.0" stroke-linecap="butt" d="m961.8687 134.1312l-9.756531 -16.67244l-3.24292 19.043228z" fill-rule="evenodd"/><path fill="#000000" fill-opacity="0.0" d="m308.3071 117.44357l90.2677 0l0 -15.228348l30.456696 30.456696l-30.456696 30.456696l0 -15.228348l-90.2677 0z" fill-rule="evenodd"/><path stroke="#000000" stroke-width="4.0" stroke-linejoin="round" stroke-linecap="butt" d="m308.3071 117.44357l90.2677 0l0 -15.228348l30.456696 30.456696l-30.456696 30.456696l0 -15.228348l-90.2677 0z" fill-rule="evenodd"/><path fill="#000000" d="m317.88522 136.7013l1.625 -0.25q0.125 0.96875 0.75 1.5q0.625 0.515625 1.75 0.515625q1.125 0 1.671875 -0.453125q0.546875 -0.46875 0.546875 -1.09375q0 -0.546875 -0.484375 -0.875q-0.328125 -0.21875 -1.671875 -0.546875q-1.8125 -0.46875 -2.515625 -0.796875q-0.6875 -0.328125 -1.046875 -0.90625q-0.359375 -0.59375 -0.359375 -1.3125q0 -0.640625 0.296875 -1.1875q0.296875 -0.5625 0.8125 -0.921875q0.375 -0.28125 1.03125 -0.46875q0.671875 -0.203125 1.421875 -0.203125q1.140625 0 2.0 0.328125q0.859375 0.328125 1.265625 0.890625q0.421875 0.5625 0.578125 1.5l-1.609375 0.21875q-0.109375 -0.75 -0.640625 -1.171875q-0.515625 -0.421875 -1.46875 -0.421875q-1.140625 0 -1.625 0.375q-0.46875 0.375 -0.46875 0.875q0 0.3125 0.1875 0.578125q0.203125 0.265625 0.640625 0.4375q0.234375 0.09375 1.4375 0.421875q1.75 0.453125 2.4375 0.75q0.6875 0.296875 1.078125 0.859375q0.390625 0.5625 0.390625 1.40625q0 0.828125 -0.484375 1.546875q-0.46875 0.71875 -1.375 1.125q-0.90625 0.390625 -2.046875 0.390625q-1.875 0 -2.875 -0.78125q-0.984375 -0.78125 -1.25 -2.328125zm9.984375 6.59375l0 -13.375l1.484375 0l0 1.25q0.53125 -0.734375 1.1875 -1.09375q0.671875 -0.375 1.625 -0.375q1.234375 0 2.171875 0.640625q0.953125 0.625 1.4375 1.796875q0.484375 1.15625 0.484375 2.546875q0 1.484375 -0.53125 2.671875q-0.53125 1.1875 -1.546875 1.828125q-1.015625 0.625 -2.140625 0.625q-0.8125 0 -1.46875 -0.34375q-0.65625 -0.34375 -1.0625 -0.875l0 4.703125l-1.640625 0zm1.484375 -8.484375q0 1.859375 0.75 2.765625q0.765625 0.890625 1.828125 0.890625q1.09375 0 1.875 -0.921875q0.78125 -0.9375 0.78125 -2.875q0 -1.84375 -0.765625 -2.765625q-0.75 -0.921875 -1.8125 -0.921875q-1.046875 0 -1.859375 0.984375q-0.796875 0.96875 -0.796875 2.84375zm8.844452 4.78125l0 -13.359383l1.640625 0l0 13.359383l-1.640625 0zm4.1917114 -11.46875l0 -1.8906326l1.640625 0l0 1.8906326l-1.640625 0zm0 11.46875l0 -9.671875l1.640625 0l0 9.671875l-1.640625 0zm7.722931 -1.46875l0.234375 1.453125q-0.6875 0.140625 -1.234375 0.140625q-0.890625 0 -1.390625 -0.28125q-0.484375 -0.28125 -0.6875 -0.734375q-0.203125 -0.46875 -0.203125 -1.9375l0 -5.578125l-1.203125 0l0 -1.265625l1.203125 0l0 -2.3906326l1.625 -0.984375l0 3.3750076l1.65625 0l0 1.265625l-1.65625 0l0 5.671875q0 0.6875 0.078125 0.890625q0.09375 0.203125 0.28125 0.328125q0.203125 0.109375 0.578125 0.109375q0.265625 0 0.71875 -0.0625zm13.116608 1.46875l0 -1.421875q-1.125 1.640625 -3.0625 1.640625q-0.859375 0 -1.609375 -0.328125q-0.734375 -0.328125 -1.09375 -0.828125q-0.359375 -0.5 -0.5 -1.21875q-0.109375 -0.46875 -0.109375 -1.53125l0 -5.984375l1.640625 0l0 5.359375q0 1.28125 0.109375 1.734375q0.15625 0.640625 0.65625 1.015625q0.5 0.375 1.234375 0.375q0.734375 0 1.375 -0.375q0.65625 -0.390625 0.921875 -1.03125q0.265625 -0.65625 0.265625 -1.890625l0 -5.1875l1.640625 0l0 9.671875l-1.46875 0zm4.0476074 3.703125l0 -13.375l1.484375 0l0 1.25q0.53125 -0.734375 1.1875 -1.09375q0.671875 -0.375 1.625 -0.375q1.234375 0 2.171875 0.640625q0.953125 0.625 1.4375 1.796875q0.484375 1.15625 0.484375 2.546875q0 1.484375 -0.53125 2.671875q-0.53125 1.1875 -1.546875 1.828125q-1.015625 0.625 -2.140625 0.625q-0.8125 0 -1.46875 -0.34375q-0.65625 -0.34375 -1.0625 -0.875l0 4.703125l-1.640625 0zm1.484375 -8.484375q0 1.859375 0.75 2.765625q0.765625 0.890625 1.828125 0.890625q1.09375 0 1.875 -0.921875q0.78125 -0.9375 0.78125 -2.875q0 -1.84375 -0.765625 -2.765625q-0.75 -0.921875 -1.8125 -0.921875q-1.046875 0 -1.859375 0.984375q-0.796875 0.96875 -0.796875 2.84375z" fill-rule="nonzero"/><path fill="#000000" fill-opacity="0.0" d="m772.30707 119.047226l79.433105 0l0 -16.832l41.29132 41.291336l-41.29132 41.291336l0 -16.832l-79.433105 0z" fill-rule="evenodd"/><path stroke="#000000" stroke-width="4.0" stroke-linejoin="round" stroke-linecap="butt" d="m772.30707 119.047226l79.433105 0l0 -16.832l41.29132 41.291336l-41.29132 41.291336l0 -16.832l-79.433105 0z" fill-rule="evenodd"/><path fill="#000000" d="m782.54144 143.12968l0 -13.375l1.484375 0l0 1.25q0.53125 -0.734375 1.1875 -1.09375q0.671875 -0.375 1.625 -0.375q1.234375 0 2.171875 0.640625q0.953125 0.625 1.4375 1.796875q0.484375 1.15625 0.484375 2.546875q0 1.484375 -0.53125 2.671875q-0.53125 1.1875 -1.546875 1.828125q-1.015625 0.625 -2.140625 0.625q-0.8125 0 -1.46875 -0.34375q-0.65625 -0.34375 -1.0625 -0.875l0 4.703125l-1.640625 0zm1.484375 -8.484375q0 1.859375 0.75 2.765625q0.765625 0.890625 1.828125 0.890625q1.09375 0 1.875 -0.921875q0.78125 -0.9375 0.78125 -2.875q0 -1.84375 -0.765625 -2.765625q-0.75 -0.921875 -1.8125 -0.921875q-1.046875 0 -1.859375 0.984375q-0.796875 0.96875 -0.796875 2.84375zm15.219482 4.78125l0 -1.421875q-1.125 1.640625 -3.0625 1.640625q-0.859375 0 -1.609375 -0.328125q-0.734375 -0.328125 -1.09375 -0.828125q-0.359375 -0.5 -0.5 -1.21875q-0.109375 -0.46875 -0.109375 -1.53125l0 -5.984375l1.640625 0l0 5.359375q0 1.28125 0.109375 1.734375q0.15625 0.640625 0.65625 1.015625q0.5 0.375 1.234375 0.375q0.734375 0 1.375 -0.375q0.65625 -0.390625 0.921875 -1.03125q0.265625 -0.65625 0.265625 -1.890625l0 -5.1875l1.640625 0l0 9.671875l-1.46875 0zm7.6257324 -1.46875l0.234375 1.453125q-0.6875 0.140625 -1.234375 0.140625q-0.890625 0 -1.390625 -0.28125q-0.484375 -0.28125 -0.6875 -0.734375q-0.203125 -0.46875 -0.203125 -1.9375l0 -5.578125l-1.203125 0l0 -1.265625l1.203125 0l0 -2.390625l1.625 -0.984375l0 3.375l1.65625 0l0 1.265625l-1.65625 0l0 5.671875q0 0.6875 0.078125 0.890625q0.09375 0.203125 0.28125 0.328125q0.203125 0.109375 0.578125 0.109375q0.265625 0 0.71875 -0.0625z" fill-rule="nonzero"/><path fill="#000000" d="m786.11957 159.95781l0.234375 1.453125q-0.6875 0.140625 -1.234375 0.140625q-0.890625 0 -1.390625 -0.28125q-0.484375 -0.28125 -0.6875 -0.734375q-0.203125 -0.46875 -0.203125 -1.9375l0 -5.578125l-1.203125 0l0 -1.265625l1.203125 0l0 -2.390625l1.625 -0.984375l0 3.375l1.65625 0l0 1.265625l-1.65625 0l0 5.671875q0 0.6875 0.078125 0.890625q0.09375 0.203125 0.28125 0.328125q0.203125 0.109375 0.578125 0.109375q0.265625 0 0.71875 -0.0625zm0.9958496 -3.375q0 -2.6875 1.484375 -3.96875q1.25 -1.078125 3.046875 -1.078125q2.0 0 3.265625 1.3125q1.265625 1.296875 1.265625 3.609375q0 1.859375 -0.5625 2.9375q-0.5625 1.0625 -1.640625 1.65625q-1.0625 0.59375 -2.328125 0.59375q-2.03125 0 -3.28125 -1.296875q-1.25 -1.3125 -1.25 -3.765625zm1.6875 0q0 1.859375 0.796875 2.796875q0.8125 0.921875 2.046875 0.921875q1.21875 0 2.03125 -0.921875q0.8125 -0.9375 0.8125 -2.84375q0 -1.796875 -0.8125 -2.71875q-0.8125 -0.921875 -2.03125 -0.921875q-1.234375 0 -2.046875 0.921875q-0.796875 0.90625 -0.796875 2.765625zm8.985046 5.640625l1.59375 0.234375q0.109375 0.75 0.5625 1.078125q0.609375 0.453125 1.671875 0.453125q1.140625 0 1.75 -0.453125q0.625 -0.453125 0.84375 -1.265625q0.125 -0.5 0.109375 -2.109375q-1.0625 1.265625 -2.671875 1.265625q-2.0 0 -3.09375 -1.4375q-1.09375 -1.4375 -1.09375 -3.453125q0 -1.390625 0.5 -2.5625q0.515625 -1.171875 1.453125 -1.796875q0.953125 -0.640625 2.25 -0.640625q1.703125 0 2.8125 1.375l0 -1.15625l1.515625 0l0 8.359375q0 2.265625 -0.46875 3.203125q-0.453125 0.9375 -1.453125 1.484375q-0.984375 0.546875 -2.453125 0.546875q-1.71875 0 -2.796875 -0.78125q-1.0625 -0.765625 -1.03125 -2.34375zm1.359375 -5.8125q0 1.90625 0.75 2.78125q0.765625 0.875 1.90625 0.875q1.125 0 1.890625 -0.859375q0.765625 -0.875 0.765625 -2.734375q0 -1.78125 -0.796875 -2.671875q-0.78125 -0.90625 -1.890625 -0.90625q-1.09375 0 -1.859375 0.890625q-0.765625 0.875 -0.765625 2.625zm15.953857 1.90625l1.6875 0.203125q-0.40625 1.484375 -1.484375 2.3125q-1.078125 0.8125 -2.765625 0.8125q-2.125 0 -3.375 -1.296875q-1.234375 -1.3125 -1.234375 -3.671875q0 -2.453125 1.25 -3.796875q1.265625 -1.34375 3.265625 -1.34375q1.9375 0 3.15625 1.328125q1.234375 1.3125 1.234375 3.703125q0 0.15625 0 0.4375l-7.21875 0q0.09375 1.59375 0.90625 2.453125q0.8125 0.84375 2.015625 0.84375q0.90625 0 1.546875 -0.46875q0.640625 -0.484375 1.015625 -1.515625zm-5.390625 -2.65625l5.40625 0q-0.109375 -1.21875 -0.625 -1.828125q-0.78125 -0.953125 -2.03125 -0.953125q-1.125 0 -1.90625 0.765625q-0.765625 0.75 -0.84375 2.015625zm12.719482 4.296875l0.234375 1.453125q-0.6875 0.140625 -1.234375 0.140625q-0.890625 0 -1.390625 -0.28125q-0.484375 -0.28125 -0.6875 -0.734375q-0.203125 -0.46875 -0.203125 -1.9375l0 -5.578125l-1.203125 0l0 -1.265625l1.203125 0l0 -2.390625l1.625 -0.984375l0 3.375l1.65625 0l0 1.265625l-1.65625 0l0 5.671875q0 0.6875 0.078125 0.890625q0.09375 0.203125 0.28125 0.328125q0.203125 0.109375 0.578125 0.109375q0.265625 0 0.71875 -0.0625zm1.6051636 1.46875l0 -13.359375l1.640625 0l0 4.796875q1.140625 -1.328125 2.890625 -1.328125q1.078125 0 1.859375 0.421875q0.796875 0.421875 1.140625 1.171875q0.34375 0.75 0.34375 2.171875l0 6.125l-1.640625 0l0 -6.125q0 -1.234375 -0.53125 -1.796875q-0.53125 -0.5625 -1.515625 -0.5625q-0.71875 0 -1.359375 0.390625q-0.640625 0.375 -0.921875 1.015625q-0.265625 0.640625 -0.265625 1.78125l0 5.296875l-1.640625 0zm17.000732 -3.109375l1.6875 0.203125q-0.40625 1.484375 -1.484375 2.3125q-1.078125 0.8125 -2.765625 0.8125q-2.125 0 -3.375 -1.296875q-1.234375 -1.3125 -1.234375 -3.671875q0 -2.453125 1.25 -3.796875q1.265625 -1.34375 3.265625 -1.34375q1.9375 0 3.15625 1.328125q1.234375 1.3125 1.234375 3.703125q0 0.15625 0 0.4375l-7.21875 0q0.09375 1.59375 0.90625 2.453125q0.8125 0.84375 2.015625 0.84375q0.90625 0 1.546875 -0.46875q0.640625 -0.484375 1.015625 -1.515625zm-5.390625 -2.65625l5.40625 0q-0.109375 -1.21875 -0.625 -1.828125q-0.78125 -0.953125 -2.03125 -0.953125q-1.125 0 -1.90625 0.765625q-0.765625 0.75 -0.84375 2.015625zm9.125732 5.765625l0 -9.671875l1.46875 0l0 1.46875q0.5625 -1.03125 1.03125 -1.359375q0.484375 -0.328125 1.0625 -0.328125q0.828125 0 1.6875 0.53125l-0.5625 1.515625q-0.609375 -0.359375 -1.203125 -0.359375q-0.546875 0 -0.96875 0.328125q-0.421875 0.328125 -0.609375 0.890625q-0.28125 0.875 -0.28125 1.921875l0 5.0625l-1.625 0z" fill-rule="nonzero"/></g></svg>