<svg version="1.1" viewBox="0.0 0.0 1100.5590551181103 120.71128608923884" fill="none" stroke="none" stroke-linecap="square" stroke-miterlimit="10" xmlns:xlink="http://www.w3.org/1999/xlink" xmlns="http://www.w3.org/2000/svg"><clipPath id="p.0"><path d="m0 0l1100.5591 0l0 120.71129l-1100.5591 0l0 -120.71129z" clip-rule="nonzero"/></clipPath><g clip-path="url(#p.0)"><path fill="#000000" fill-opacity="0.0" d="m0 0l1100.5591 0l0 120.71129l-1100.5591 0z" fill-rule="evenodd"/><path fill="#ffffff" d="m32.952755 63.259842l0 0c0 -12.741688 10.702862 -23.070866 23.905514 -23.070866l0 0c6.3401337 0 12.420593 2.4306755 16.903748 6.7573013c4.4831543 4.326626 7.0017624 10.19479 7.0017624 16.313564l0 0c0 12.741692 -10.702858 23.07087 -23.90551 23.07087l0 0c-13.202652 0 -23.905514 -10.329178 -23.905514 -23.07087z" fill-rule="evenodd"/><path stroke="#000000" stroke-width="4.0" stroke-linejoin="round" stroke-linecap="butt" d="m32.952755 63.259842l0 0c0 -12.741688 10.702862 -23.070866 23.905514 -23.070866l0 0c6.3401337 0 12.420593 2.4306755 16.903748 6.7573013c4.4831543 4.326626 7.0017624 10.19479 7.0017624 16.313564l0 0c0 12.741692 -10.702858 23.07087 -23.90551 23.07087l0 0c-13.202652 0 -23.905514 -10.329178 -23.905514 -23.07087z" fill-rule="evenodd"/><path fill="#000000" d="m50.605232 70.17984l5.125 -13.359375l1.90625 0l5.46875 13.359375l-2.015625 0l-1.546875 -4.046875l-5.59375 0l-1.46875 4.046875l-1.875 0zm3.859375 -5.484375l4.53125 0l-1.40625 -3.703125q-0.625 -1.6875 -0.9375 -2.765625q-0.265625 1.28125 -0.71875 2.546875l-1.46875 3.921875z" fill-rule="nonzero"/><path fill="#ffffff" d="m93.64304 63.259842l0 0c0 -12.741688 10.702866 -23.070866 23.90551 -23.070866l0 0c6.3401413 0 12.420593 2.4306755 16.903748 6.7573013c4.4831543 4.326626 7.00177 10.19479 7.00177 16.313564l0 0c0 12.741692 -10.702866 23.07087 -23.905518 23.07087l0 0c-13.202644 0 -23.90551 -10.329178 -23.90551 -23.07087z" fill-rule="evenodd"/><path stroke="#000000" stroke-width="4.0" stroke-linejoin="round" stroke-linecap="butt" d="m93.64304 63.259842l0 0c0 -12.741688 10.702866 -23.070866 23.90551 -23.070866l0 0c6.3401413 0 12.420593 2.4306755 16.903748 6.7573013c4.4831543 4.326626 7.00177 10.19479 7.00177 16.313564l0 0c0 12.741692 -10.702866 23.07087 -23.905518 23.07087l0 0c-13.202644 0 -23.90551 -10.329178 -23.90551 -23.07087z" fill-rule="evenodd"/><path fill="#000000" d="m112.68614 70.17984l0 -13.359375l5.015625 0q1.53125 0 2.453125 0.40625q0.921875 0.40625 1.4375 1.25q0.53125 0.84375 0.53125 1.765625q0 0.859375 -0.46875 1.625q-0.453125 0.75 -1.390625 1.203125q1.203125 0.359375 1.859375 1.21875q0.65625 0.859375 0.65625 2.015625q0 0.9375 -0.40625 1.75q-0.390625 0.796875 -0.984375 1.234375q-0.578125 0.4375 -1.453125 0.671875q-0.875 0.21875 -2.15625 0.21875l-5.09375 0zm1.78125 -7.75l2.875 0q1.1875 0 1.6875 -0.140625q0.671875 -0.203125 1.015625 -0.671875q0.34375 -0.46875 0.34375 -1.171875q0 -0.65625 -0.328125 -1.15625q-0.3125 -0.515625 -0.90625 -0.703125q-0.59375 -0.1875 -2.03125 -0.1875l-2.65625 0l0 4.03125zm0 6.171875l3.3125 0q0.859375 0 1.203125 -0.0625q0.609375 -0.109375 1.015625 -0.359375q0.421875 -0.265625 0.6875 -0.75q0.265625 -0.484375 0.265625 -1.125q0 -0.75 -0.390625 -1.296875q-0.375 -0.546875 -1.0625 -0.765625q-0.671875 -0.234375 -1.953125 -0.234375l-3.078125 0l0 4.59375z" fill-rule="nonzero"/><path fill="#ffffff" d="m215.02362 63.259842l0 0c0 -12.741688 10.702866 -23.070866 23.905518 -23.070866l0 0c6.3401337 0 12.420593 2.4306755 16.903748 6.7573013c4.4831543 4.326626 7.00177 10.19479 7.00177 16.313564l0 0c0 12.741692 -10.702866 23.07087 -23.905518 23.07087l0 0c-13.202652 0 -23.905518 -10.329178 -23.905518 -23.07087z" fill-rule="evenodd"/><path stroke="#000000" stroke-width="4.0" stroke-linejoin="round" stroke-linecap="butt" d="m215.02362 63.259842l0 0c0 -12.741688 10.702866 -23.070866 23.905518 -23.070866l0 0c6.3401337 0 12.420593 2.4306755 16.903748 6.7573013c4.4831543 4.326626 7.00177 10.19479 7.00177 16.313564l0 0c0 12.741692 -10.702866 23.07087 -23.905518 23.07087l0 0c-13.202652 0 -23.905518 -10.329178 -23.905518 -23.07087z" fill-rule="evenodd"/><path fill="#000000" d="m233.63016 70.17984l0 -13.359375l4.609375 0q1.546875 0 2.375 0.203125q1.140625 0.25 1.953125 0.953125q1.0625 0.890625 1.578125 2.28125q0.53125 1.390625 0.53125 3.171875q0 1.515625 -0.359375 2.703125q-0.359375 1.171875 -0.921875 1.9375q-0.546875 0.765625 -1.203125 1.21875q-0.65625 0.4375 -1.59375 0.671875q-0.9375 0.21875 -2.140625 0.21875l-4.828125 0zm1.765625 -1.578125l2.859375 0q1.3125 0 2.0625 -0.234375q0.75 -0.25 1.203125 -0.703125q0.625 -0.625 0.96875 -1.6875q0.359375 -1.0625 0.359375 -2.578125q0 -2.09375 -0.6875 -3.21875q-0.6875 -1.125 -1.671875 -1.5q-0.703125 -0.28125 -2.28125 -0.28125l-2.8125 0l0 10.203125z" fill-rule="nonzero"/><path fill="#ffffff" d="m154.33333 63.259842l0 0c0 -12.741688 10.702866 -23.070866 23.905518 -23.070866l0 0c6.3401337 0 12.420593 2.4306755 16.903748 6.7573013c4.4831543 4.326626 7.00177 10.19479 7.00177 16.313564l0 0c0 12.741692 -10.702866 23.07087 -23.905518 23.07087l0 0c-13.202652 0 -23.905518 -10.329178 -23.905518 -23.07087z" fill-rule="evenodd"/><path stroke="#000000" stroke-width="4.0" stroke-linejoin="round" stroke-linecap="butt" d="m154.33333 63.259842l0 0c0 -12.741688 10.702866 -23.070866 23.905518 -23.070866l0 0c6.3401337 0 12.420593 2.4306755 16.903748 6.7573013c4.4831543 4.326626 7.00177 10.19479 7.00177 16.313564l0 0c0 12.741692 -10.702866 23.07087 -23.905518 23.07087l0 0c-13.202652 0 -23.905518 -10.329178 -23.905518 -23.07087z" fill-rule="evenodd"/><path fill="#000000" d="m182.47112 65.49234l1.765625 0.453125q-0.5625 2.171875 -2.0 3.328125q-1.4375 1.140625 -3.53125 1.140625q-2.15625 0 -3.515625 -0.875q-1.34375 -0.890625 -2.0625 -2.546875q-0.703125 -1.671875 -0.703125 -3.59375q0 -2.078125 0.796875 -3.625q0.796875 -1.5625 2.265625 -2.359375q1.484375 -0.8125 3.25 -0.8125q2.0 0 3.359375 1.015625q1.375 1.015625 1.90625 2.875l-1.734375 0.40625q-0.46875 -1.453125 -1.359375 -2.109375q-0.875 -0.671875 -2.203125 -0.671875q-1.546875 0 -2.578125 0.734375q-1.03125 0.734375 -1.453125 1.984375q-0.421875 1.234375 -0.421875 2.5625q0 1.703125 0.5 2.96875q0.5 1.265625 1.546875 1.90625q1.046875 0.625 2.265625 0.625q1.484375 0 2.515625 -0.859375q1.03125 -0.859375 1.390625 -2.546875z" fill-rule="nonzero"/><path fill="#000000" fill-opacity="0.0" d="m840.7638 63.259842l33.574768 0" fill-rule="evenodd"/><path stroke="#000000" stroke-width="4.0" stroke-linejoin="round" stroke-linecap="butt" d="m840.7638 63.259842l9.574768 0" fill-rule="evenodd"/><path fill="#000000" stroke="#000000" stroke-width="4.0" stroke-linecap="butt" d="m850.33856 69.866776l18.152405 -6.6069336l-18.152405 -6.60693z" fill-rule="evenodd"/><path fill="#000000" fill-opacity="0.0" d="m922.14435 63.259842l36.881897 0" fill-rule="evenodd"/><path stroke="#000000" stroke-width="4.0" stroke-linejoin="round" stroke-linecap="butt" d="m922.14435 63.259842l12.881897 0" fill-rule="evenodd"/><path fill="#000000" stroke="#000000" stroke-width="4.0" stroke-linecap="butt" d="m935.02625 69.866776l18.152405 -6.6069336l-18.152405 -6.60693z" fill-rule="evenodd"/><path fill="#000000" fill-opacity="0.0" d="m1006.83466 63.259842l36.881897 0" fill-rule="evenodd"/><path stroke="#000000" stroke-width="4.0" stroke-linejoin="round" stroke-linecap="butt" d="m1006.83466 63.259842l12.881897 0" fill-rule="evenodd"/><path fill="#000000" stroke="#000000" stroke-width="4.0" stroke-linecap="butt" d="m1019.71655 69.866776l18.152344 -6.6069336l-18.152344 -6.60693z" fill-rule="evenodd"/><path fill="#ffffff" d="m478.18765 64.12992l0 0c0 -12.741688 10.702881 -23.070866 23.905518 -23.070866l0 0c6.340149 0 12.420624 2.4306717 16.903778 6.7573013c4.4831543 4.326626 7.001709 10.19479 7.001709 16.313564l0 0c0 12.741692 -10.70282 23.07087 -23.905487 23.07087l0 0c-13.202637 0 -23.905518 -10.329178 -23.905518 -23.07087z" fill-rule="evenodd"/><path stroke="#000000" stroke-width="4.0" stroke-linejoin="round" stroke-linecap="butt" d="m478.18765 64.12992l0 0c0 -12.741688 10.702881 -23.070866 23.905518 -23.070866l0 0c6.340149 0 12.420624 2.4306717 16.903778 6.7573013c4.4831543 4.326626 7.001709 10.19479 7.001709 16.313564l0 0c0 12.741692 -10.70282 23.07087 -23.905487 23.07087l0 0c-13.202637 0 -23.905518 -10.329178 -23.905518 -23.07087z" fill-rule="evenodd"/><path fill="#000000" d="m495.84015 71.04992l5.125 -13.359375l1.90625 0l5.46875 13.359375l-2.015625 0l-1.546875 -4.046875l-5.59375 0l-1.46875 4.046875l-1.875 0zm3.859375 -5.484375l4.53125 0l-1.40625 -3.703125q-0.625 -1.6875 -0.9375 -2.765625q-0.265625 1.28125 -0.71875 2.546875l-1.46875 3.921875z" fill-rule="nonzero"/><path fill="#ffffff" d="m599.56824 62.38845l0 0c0 -12.741688 10.702881 -23.070866 23.905518 -23.070866l0 0c6.340149 0 12.420593 2.4306755 16.903748 6.7573013c4.4831543 4.326626 7.00177 10.19479 7.00177 16.313564l0 0c0 12.741692 -10.702881 23.07087 -23.905518 23.07087l0 0c-13.202637 0 -23.905518 -10.329178 -23.905518 -23.07087z" fill-rule="evenodd"/><path stroke="#000000" stroke-width="4.0" stroke-linejoin="round" stroke-linecap="butt" d="m599.56824 62.38845l0 0c0 -12.741688 10.702881 -23.070866 23.905518 -23.070866l0 0c6.340149 0 12.420593 2.4306755 16.903748 6.7573013c4.4831543 4.326626 7.00177 10.19479 7.00177 16.313564l0 0c0 12.741692 -10.702881 23.07087 -23.905518 23.07087l0 0c-13.202637 0 -23.905518 -10.329178 -23.905518 -23.07087z" fill-rule="evenodd"/><path fill="#000000" d="m627.70605 64.62095l1.765625 0.453125q-0.5625 2.171875 -2.0 3.328125q-1.4375 1.140625 -3.53125 1.140625q-2.15625 0 -3.515625 -0.875q-1.34375 -0.890625 -2.0625 -2.546875q-0.703125 -1.671875 -0.703125 -3.59375q0 -2.078125 0.796875 -3.625q0.796875 -1.5625 2.265625 -2.359375q1.484375 -0.8125 3.25 -0.8125q2.0 0 3.359375 1.015625q1.375 1.015625 1.90625 2.875l-1.734375 0.40625q-0.46875 -1.453125 -1.359375 -2.109375q-0.875 -0.671875 -2.203125 -0.671875q-1.546875 0 -2.578125 0.734375q-1.03125 0.734375 -1.453125 1.984375q-0.421875 1.234375 -0.421875 2.5625q0 1.703125 0.5 2.96875q0.5 1.265625 1.546875 1.90625q1.046875 0.625 2.265625 0.625q1.484375 0 2.515625 -0.859375q1.03125 -0.859375 1.390625 -2.546875z" fill-rule="nonzero"/><path fill="#ffffff" d="m538.8779 62.38845l0 0c0 -12.741688 10.702881 -23.070866 23.905518 -23.070866l0 0c6.340149 0 12.420593 2.4306755 16.903748 6.7573013c4.4831543 4.326626 7.00177 10.19479 7.00177 16.313564l0 0c0 12.741692 -10.702881 23.07087 -23.905518 23.07087l0 0c-13.202637 0 -23.905518 -10.329178 -23.905518 -23.07087z" fill-rule="evenodd"/><path stroke="#000000" stroke-width="4.0" stroke-linejoin="round" stroke-linecap="butt" d="m538.8779 62.38845l0 0c0 -12.741688 10.702881 -23.070866 23.905518 -23.070866l0 0c6.340149 0 12.420593 2.4306755 16.903748 6.7573013c4.4831543 4.326626 7.00177 10.19479 7.00177 16.313564l0 0c0 12.741692 -10.702881 23.07087 -23.905518 23.07087l0 0c-13.202637 0 -23.905518 -10.329178 -23.905518 -23.07087z" fill-rule="evenodd"/><path fill="#000000" d="m557.4845 69.30845l0 -13.359375l4.609375 0q1.546875 0 2.375 0.203125q1.140625 0.25 1.953125 0.953125q1.0625 0.890625 1.578125 2.28125q0.53125 1.390625 0.53125 3.171875q0 1.515625 -0.359375 2.703125q-0.359375 1.171875 -0.921875 1.9375q-0.546875 0.765625 -1.203125 1.21875q-0.65625 0.4375 -1.59375 0.671875q-0.9375 0.21875 -2.140625 0.21875l-4.828125 0zm1.765625 -1.578125l2.859375 0q1.3125 0 2.0625 -0.234375q0.75 -0.25 1.203125 -0.703125q0.625 -0.625 0.96875 -1.6875q0.359375 -1.0625 0.359375 -2.578125q0 -2.09375 -0.6875 -3.21875q-0.6875 -1.125 -1.671875 -1.5q-0.703125 -0.28125 -2.28125 -0.28125l-2.8125 0l0 10.203125z" fill-rule="nonzero"/><path fill="#ffffff" d="m417.49738 62.38845l0 0c0 -12.741688 10.70285 -23.070866 23.905518 -23.070866l0 0c6.3401184 0 12.420593 2.4306755 16.903748 6.7573013c4.4831543 4.326626 7.00177 10.19479 7.00177 16.313564l0 0c0 12.741692 -10.702881 23.07087 -23.905518 23.07087l0 0c-13.202667 0 -23.905518 -10.329178 -23.905518 -23.07087z" fill-rule="evenodd"/><path stroke="#000000" stroke-width="4.0" stroke-linejoin="round" stroke-linecap="butt" d="m417.49738 62.38845l0 0c0 -12.741688 10.70285 -23.070866 23.905518 -23.070866l0 0c6.3401184 0 12.420593 2.4306755 16.903748 6.7573013c4.4831543 4.326626 7.00177 10.19479 7.00177 16.313564l0 0c0 12.741692 -10.702881 23.07087 -23.905518 23.07087l0 0c-13.202667 0 -23.905518 -10.329178 -23.905518 -23.07087z" fill-rule="evenodd"/><path fill="#000000" d="m436.54047 69.30845l0 -13.359375l5.015625 0q1.53125 0 2.453125 0.40625q0.921875 0.40625 1.4375 1.25q0.53125 0.84375 0.53125 1.765625q0 0.859375 -0.46875 1.625q-0.453125 0.75 -1.390625 1.203125q1.203125 0.359375 1.859375 1.21875q0.65625 0.859375 0.65625 2.015625q0 0.9375 -0.40625 1.75q-0.390625 0.796875 -0.984375 1.234375q-0.578125 0.4375 -1.453125 0.671875q-0.875 0.21875 -2.15625 0.21875l-5.09375 0zm1.78125 -7.75l2.875 0q1.1875 0 1.6875 -0.140625q0.671875 -0.203125 1.015625 -0.671875q0.34375 -0.46875 0.34375 -1.171875q0 -0.65625 -0.328125 -1.15625q-0.3125 -0.515625 -0.90625 -0.703125q-0.59375 -0.1875 -2.03125 -0.1875l-2.65625 0l0 4.03125zm0 6.171875l3.3125 0q0.859375 0 1.203125 -0.0625q0.609375 -0.109375 1.015625 -0.359375q0.421875 -0.265625 0.6875 -0.75q0.265625 -0.484375 0.265625 -1.125q0 -0.75 -0.390625 -1.296875q-0.375 -0.546875 -1.0625 -0.765625q-0.671875 -0.234375 -1.953125 -0.234375l-3.078125 0l0 4.59375z" fill-rule="nonzero"/><path fill="#ffffff" d="m792.95276 63.259842l0 0c0 -12.741688 10.702881 -23.070866 23.905518 -23.070866l0 0c6.340149 0 12.420593 2.4306755 16.903748 6.7573013c4.4831543 4.326626 7.00177 10.19479 7.00177 16.313564l0 0c0 12.741692 -10.702881 23.07087 -23.905518 23.07087l0 0c-13.202637 0 -23.905518 -10.329178 -23.905518 -23.07087z" fill-rule="evenodd"/><path stroke="#000000" stroke-width="4.0" stroke-linejoin="round" stroke-linecap="butt" d="m792.95276 63.259842l0 0c0 -12.741688 10.702881 -23.070866 23.905518 -23.070866l0 0c6.340149 0 12.420593 2.4306755 16.903748 6.7573013c4.4831543 4.326626 7.00177 10.19479 7.00177 16.313564l0 0c0 12.741692 -10.702881 23.07087 -23.905518 23.07087l0 0c-13.202637 0 -23.905518 -10.329178 -23.905518 -23.07087z" fill-rule="evenodd"/><path fill="#000000" d="m811.99585 70.17984l0 -13.359375l5.015625 0q1.53125 0 2.453125 0.40625q0.921875 0.40625 1.4375 1.25q0.53125 0.84375 0.53125 1.765625q0 0.859375 -0.46875 1.625q-0.453125 0.75 -1.390625 1.203125q1.203125 0.359375 1.859375 1.21875q0.65625 0.859375 0.65625 2.015625q0 0.9375 -0.40625 1.75q-0.390625 0.796875 -0.984375 1.234375q-0.578125 0.4375 -1.453125 0.671875q-0.875 0.21875 -2.15625 0.21875l-5.09375 0zm1.78125 -7.75l2.875 0q1.1875 0 1.6875 -0.140625q0.671875 -0.203125 1.015625 -0.671875q0.34375 -0.46875 0.34375 -1.171875q0 -0.65625 -0.328125 -1.15625q-0.3125 -0.515625 -0.90625 -0.703125q-0.59375 -0.1875 -2.03125 -0.1875l-2.65625 0l0 4.03125zm0 6.171875l3.3125 0q0.859375 0 1.203125 -0.0625q0.609375 -0.109375 1.015625 -0.359375q0.421875 -0.265625 0.6875 -0.75q0.265625 -0.484375 0.265625 -1.125q0 -0.75 -0.390625 -1.296875q-0.375 -0.546875 -1.0625 -0.765625q-0.671875 -0.234375 -1.953125 -0.234375l-3.078125 0l0 4.59375z" fill-rule="nonzero"/><path fill="#ffffff" d="m1043.7139 63.259842l0 0c0 -12.741688 10.702881 -23.070866 23.905518 -23.070866l0 0c6.34021 0 12.420654 2.4306755 16.903809 6.7573013c4.4831543 4.326626 7.001709 10.19479 7.001709 16.313564l0 0c0 12.741692 -10.702881 23.07087 -23.905518 23.07087l0 0c-13.202637 0 -23.905518 -10.329178 -23.905518 -23.07087z" fill-rule="evenodd"/><path stroke="#000000" stroke-width="4.0" stroke-linejoin="round" stroke-linecap="butt" d="m1043.7139 63.259842l0 0c0 -12.741688 10.702881 -23.070866 23.905518 -23.070866l0 0c6.34021 0 12.420654 2.4306755 16.903809 6.7573013c4.4831543 4.326626 7.001709 10.19479 7.001709 16.313564l0 0c0 12.741692 -10.702881 23.07087 -23.905518 23.07087l0 0c-13.202637 0 -23.905518 -10.329178 -23.905518 -23.07087z" fill-rule="evenodd"/><path fill="#000000" d="m1071.8517 65.49234l1.765625 0.453125q-0.5625 2.171875 -2.0 3.328125q-1.4375 1.140625 -3.53125 1.140625q-2.15625 0 -3.515625 -0.875q-1.34375 -0.890625 -2.0625 -2.546875q-0.703125 -1.671875 -0.703125 -3.59375q0 -2.078125 0.796875 -3.625q0.796875 -1.5625 2.265625 -2.359375q1.484375 -0.8125 3.25 -0.8125q2.0 0 3.359375 1.015625q1.375 1.015625 1.90625 2.875l-1.734375 0.40625q-0.46875 -1.453125 -1.359375 -2.109375q-0.875 -0.671875 -2.203125 -0.671875q-1.546875 0 -2.578125 0.734375q-1.03125 0.734375 -1.453125 1.984375q-0.421875 1.234375 -0.421875 2.5625q0 1.703125 0.5 2.96875q0.5 1.265625 1.546875 1.90625q1.046875 0.625 2.265625 0.625q1.484375 0 2.515625 -0.859375q1.03125 -0.859375 1.390625 -2.546875z" fill-rule="nonzero"/><path fill="#ffffff" d="m959.0236 63.259842l0 0c0 -12.741688 10.702881 -23.070866 23.905518 -23.070866l0 0c6.340149 0 12.420593 2.4306755 16.903748 6.7573013c4.4831543 4.326626 7.00177 10.19479 7.00177 16.313564l0 0c0 12.741692 -10.702881 23.07087 -23.905518 23.07087l0 0c-13.202637 0 -23.905518 -10.329178 -23.905518 -23.07087z" fill-rule="evenodd"/><path stroke="#000000" stroke-width="4.0" stroke-linejoin="round" stroke-linecap="butt" d="m959.0236 63.259842l0 0c0 -12.741688 10.702881 -23.070866 23.905518 -23.070866l0 0c6.340149 0 12.420593 2.4306755 16.903748 6.7573013c4.4831543 4.326626 7.00177 10.19479 7.00177 16.313564l0 0c0 12.741692 -10.702881 23.07087 -23.905518 23.07087l0 0c-13.202637 0 -23.905518 -10.329178 -23.905518 -23.07087z" fill-rule="evenodd"/><path fill="#000000" d="m977.6302 70.17984l0 -13.359375l4.609375 0q1.546875 0 2.375 0.203125q1.140625 0.25 1.953125 0.953125q1.0625 0.890625 1.578125 2.28125q0.53125 1.390625 0.53125 3.171875q0 1.515625 -0.359375 2.703125q-0.359375 1.171875 -0.921875 1.9375q-0.546875 0.765625 -1.203125 1.21875q-0.65625 0.4375 -1.59375 0.671875q-0.9375 0.21875 -2.140625 0.21875l-4.828125 0zm1.765625 -1.578125l2.859375 0q1.3125 0 2.0625 -0.234375q0.75 -0.25 1.203125 -0.703125q0.625 -0.625 0.96875 -1.6875q0.359375 -1.0625 0.359375 -2.578125q0 -2.09375 -0.6875 -3.21875q-0.6875 -1.125 -1.671875 -1.5q-0.703125 -0.28125 -2.28125 -0.28125l-2.8125 0l0 10.203125z" fill-rule="nonzero"/><path fill="#ffffff" d="m874.3333 63.259842l0 0c0 -12.741688 10.702881 -23.070866 23.905518 -23.070866l0 0c6.340149 0 12.420593 2.4306755 16.903748 6.7573013c4.4831543 4.326626 7.00177 10.19479 7.00177 16.313564l0 0c0 12.741692 -10.702881 23.07087 -23.905518 23.07087l0 0c-13.202637 0 -23.905518 -10.329178 -23.905518 -23.07087z" fill-rule="evenodd"/><path stroke="#000000" stroke-width="4.0" stroke-linejoin="round" stroke-linecap="butt" d="m874.3333 63.259842l0 0c0 -12.741688 10.702881 -23.070866 23.905518 -23.070866l0 0c6.340149 0 12.420593 2.4306755 16.903748 6.7573013c4.4831543 4.326626 7.00177 10.19479 7.00177 16.313564l0 0c0 12.741692 -10.702881 23.07087 -23.905518 23.07087l0 0c-13.202637 0 -23.905518 -10.329178 -23.905518 -23.07087z" fill-rule="evenodd"/><path fill="#000000" d="m891.9858 70.17984l5.125 -13.359375l1.90625 0l5.46875 13.359375l-2.015625 0l-1.546875 -4.046875l-5.59375 0l-1.46875 4.046875l-1.875 0zm3.859375 -5.484375l4.53125 0l-1.40625 -3.703125q-0.625 -1.6875 -0.9375 -2.765625q-0.265625 1.28125 -0.71875 2.546875l-1.46875 3.921875z" fill-rule="nonzero"/><path fill="#000000" fill-opacity="0.0" d="m1069.2488 87.67454c-2.3673096 2.3633118 -0.8712158 11.598808 -14.203857 14.179871c-13.332642 2.5810623 -42.490356 1.0266113 -65.79193 1.3065109c-23.301514 0.2798996 -50.777832 0.31072998 -74.01727 0.3728714c-23.23944 0.062149048 -51.151733 -0.06214142 -65.41937 0c-14.267578 0.062149048 -15.638123 0.8393707 -20.186157 0.37287903c-4.5480347 -0.46649933 -5.1705933 -0.5286484 -7.1019287 -3.171852c-1.9313965 -2.6432114 -3.7385864 -10.572838 -4.486267 -12.687401" fill-rule="evenodd"/><path stroke="#000000" stroke-width="4.0" stroke-linejoin="round" stroke-linecap="butt" d="m1069.2488 87.67454c-2.3673096 2.3633118 -0.8712158 11.598808 -14.203857 14.179863c-13.332642 2.58107 -42.490356 1.026619 -65.79187 1.3065109c-23.301636 0.2798996 -50.777893 0.3107376 -74.017334 0.37287903c-23.239502 0.06214142 -51.151733 -0.06214142 -65.41937 0c-7.133789 0.031066895 -11.043274 0.24092102 -13.737915 0.3846817l-0.03503418 0.0018463135" fill-rule="evenodd"/><path fill="#000000" stroke="#000000" stroke-width="4.0" stroke-linecap="butt" d="m840.413 98.96472l-17.984985 -7.0498657l9.245728 16.961044z" fill-rule="evenodd"/><path fill="#000000" fill-opacity="0.0" d="m294.5853 48.031498l62.897644 0l0 -15.228348l30.456696 30.456692l-30.456696 30.456696l0 -15.228348l-62.897644 0z" fill-rule="evenodd"/><path stroke="#000000" stroke-width="4.0" stroke-linejoin="round" stroke-linecap="butt" d="m294.5853 48.031498l62.897644 0l0 -15.228348l30.456696 30.456692l-30.456696 30.456696l0 -15.228348l-62.897644 0z" fill-rule="evenodd"/><path fill="#000000" d="m304.16342 67.289215l1.625 -0.25q0.125 0.96875 0.75 1.5q0.625 0.515625 1.75 0.515625q1.125 0 1.671875 -0.453125q0.546875 -0.46875 0.546875 -1.09375q0 -0.546875 -0.484375 -0.875q-0.328125 -0.21875 -1.671875 -0.546875q-1.8125 -0.46875 -2.515625 -0.796875q-0.6875 -0.328125 -1.046875 -0.90625q-0.359375 -0.59375 -0.359375 -1.3125q0 -0.640625 0.296875 -1.1875q0.296875 -0.5625 0.8125 -0.921875q0.375 -0.28125 1.03125 -0.46875q0.671875 -0.203125 1.421875 -0.203125q1.140625 0 2.0 0.328125q0.859375 0.328125 1.265625 0.890625q0.421875 0.5625 0.578125 1.5l-1.609375 0.21875q-0.109375 -0.75 -0.640625 -1.171875q-0.515625 -0.421875 -1.46875 -0.421875q-1.140625 0 -1.625 0.375q-0.46875 0.375 -0.46875 0.875q0 0.3125 0.1875 0.578125q0.203125 0.265625 0.640625 0.4375q0.234375 0.09375 1.4375 0.421875q1.75 0.453125 2.4375 0.75q0.6875 0.296875 1.078125 0.859375q0.390625 0.5625 0.390625 1.40625q0 0.828125 -0.484375 1.546875q-0.46875 0.71875 -1.375 1.125q-0.90625 0.390625 -2.046875 0.390625q-1.875 0 -2.875 -0.78125q-0.984375 -0.78125 -1.25 -2.328125zm9.984375 2.890625l0 -13.359375l1.640625 0l0 4.796875q1.140625 -1.328125 2.890625 -1.328125q1.078125 0 1.859375 0.421875q0.796875 0.421875 1.140625 1.171875q0.34375 0.75 0.34375 2.171875l0 6.125l-1.640625 0l0 -6.125q0 -1.234375 -0.53125 -1.796875q-0.53125 -0.5625 -1.515625 -0.5625q-0.71875 0 -1.359375 0.390625q-0.640625 0.375 -0.921875 1.015625q-0.265625 0.640625 -0.265625 1.78125l0 5.296875l-1.640625 0zm16.703857 0l0 -1.421875q-1.125 1.640625 -3.0625 1.640625q-0.859375 0 -1.609375 -0.328125q-0.734375 -0.328125 -1.09375 -0.828125q-0.359375 -0.5 -0.5 -1.21875q-0.109375 -0.46875 -0.109375 -1.53125l0 -5.984375l1.640625 0l0 5.359375q0 1.28125 0.109375 1.734375q0.15625 0.640625 0.65625 1.015625q0.5 0.375 1.234375 0.375q0.734375 0 1.375 -0.375q0.65625 -0.390625 0.921875 -1.03125q0.265625 -0.65625 0.265625 -1.890625l0 -5.1875l1.640625 0l0 9.671875l-1.46875 0zm4.438202 0l0 -8.40625l-1.453125 0l0 -1.265625l1.453125 0l0 -1.03125q0 -0.96875 0.171875 -1.453125q0.234375 -0.640625 0.828125 -1.03125q0.59375 -0.390625 1.671875 -0.390625q0.6875 0 1.53125 0.15625l-0.25 1.4375q-0.5 -0.09375 -0.953125 -0.09375q-0.75 0 -1.0625 0.328125q-0.3125 0.3125 -0.3125 1.1875l0 0.890625l1.890625 0l0 1.265625l-1.890625 0l0 8.40625l-1.625 0zm5.183319 0l0 -8.40625l-1.453125 0l0 -1.265625l1.453125 0l0 -1.03125q0 -0.96875 0.171875 -1.453125q0.234375 -0.640625 0.828125 -1.03125q0.59375 -0.390625 1.671875 -0.390625q0.6875 0 1.53125 0.15625l-0.25 1.4375q-0.5 -0.09375 -0.953125 -0.09375q-0.75 0 -1.0625 0.328125q-0.3125 0.3125 -0.3125 1.1875l0 0.890625l1.890625 0l0 1.265625l-1.890625 0l0 8.40625l-1.625 0zm4.7457886 0l0 -13.359375l1.640625 0l0 13.359375l-1.640625 0zm10.816711 -3.109375l1.6875 0.203125q-0.40625 1.484375 -1.484375 2.3125q-1.078125 0.8125 -2.765625 0.8125q-2.125 0 -3.375 -1.296875q-1.234375 -1.3125 -1.234375 -3.671875q0 -2.453125 1.25 -3.796875q1.265625 -1.34375 3.265625 -1.34375q1.9375 0 3.15625 1.328125q1.234375 1.3125 1.234375 3.703125q0 0.15625 0 0.4375l-7.21875 0q0.09375 1.59375 0.90625 2.453125q0.8125 0.84375 2.015625 0.84375q0.90625 0 1.546875 -0.46875q0.640625 -0.484375 1.015625 -1.515625zm-5.390625 -2.65625l5.40625 0q-0.109375 -1.21875 -0.625 -1.828125q-0.78125 -0.953125 -2.03125 -0.953125q-1.125 0 -1.90625 0.765625q-0.765625 0.75 -0.84375 2.015625z" fill-rule="nonzero"/><path fill="#000000" fill-opacity="0.0" d="m670.5853 48.031498l75.90546 0l0 -15.228348l30.456726 30.456692l-30.456726 30.456696l0 -15.228348l-75.90546 0z" fill-rule="evenodd"/><path stroke="#000000" stroke-width="4.0" stroke-linejoin="round" stroke-linecap="butt" d="m670.5853 48.031498l75.90546 0l0 -15.228348l30.456726 30.456692l-30.456726 30.456696l0 -15.228348l-75.90546 0z" fill-rule="evenodd"/><path fill="#000000" d="m687.1322 66.632965l1.609375 0.21875q-0.265625 1.65625 -1.359375 2.609375q-1.078125 0.9375 -2.671875 0.9375q-1.984375 0 -3.1875 -1.296875q-1.203125 -1.296875 -1.203125 -3.71875q0 -1.578125 0.515625 -2.75q0.515625 -1.171875 1.578125 -1.75q1.0625 -0.59375 2.3125 -0.59375q1.578125 0 2.578125 0.796875q1.0 0.796875 1.28125 2.265625l-1.59375 0.234375q-0.234375 -0.96875 -0.8125 -1.453125q-0.578125 -0.5 -1.390625 -0.5q-1.234375 0 -2.015625 0.890625q-0.78125 0.890625 -0.78125 2.8125q0 1.953125 0.75 2.84375q0.75 0.875 1.953125 0.875q0.96875 0 1.609375 -0.59375q0.65625 -0.59375 0.828125 -1.828125zm2.40625 -1.296875q0 -2.6875 1.484375 -3.96875q1.25 -1.078125 3.046875 -1.078125q2.0 0 3.265625 1.3125q1.265625 1.296875 1.265625 3.609375q0 1.859375 -0.5625 2.9375q-0.5625 1.0625 -1.640625 1.65625q-1.0625 0.59375 -2.328125 0.59375q-2.03125 0 -3.28125 -1.296875q-1.25 -1.3125 -1.25 -3.765625zm1.6875 0q0 1.859375 0.796875 2.796875q0.8125 0.921875 2.046875 0.921875q1.21875 0 2.03125 -0.921875q0.8125 -0.9375 0.8125 -2.84375q0 -1.796875 -0.8125 -2.71875q-0.8125 -0.921875 -2.03125 -0.921875q-1.234375 0 -2.046875 0.921875q-0.796875 0.90625 -0.796875 2.765625zm9.297546 4.84375l0 -9.671875l1.46875 0l0 1.375q1.0625 -1.59375 3.078125 -1.59375q0.875 0 1.609375 0.3125q0.734375 0.3125 1.09375 0.828125q0.375 0.5 0.515625 1.203125q0.09375 0.453125 0.09375 1.59375l0 5.953125l-1.640625 0l0 -5.890625q0 -1.0 -0.203125 -1.484375q-0.1875 -0.5 -0.671875 -0.796875q-0.484375 -0.296875 -1.140625 -0.296875q-1.046875 0 -1.8125 0.671875q-0.75 0.65625 -0.75 2.515625l0 5.28125l-1.640625 0zm10.375732 0l0 -9.671875l1.46875 0l0 1.375q1.0625 -1.59375 3.078125 -1.59375q0.875 0 1.609375 0.3125q0.734375 0.3125 1.09375 0.828125q0.375 0.5 0.515625 1.203125q0.09375 0.453125 0.09375 1.59375l0 5.953125l-1.640625 0l0 -5.890625q0 -1.0 -0.203125 -1.484375q-0.1875 -0.5 -0.671875 -0.796875q-0.484375 -0.296875 -1.140625 -0.296875q-1.046875 0 -1.8125 0.671875q-0.75 0.65625 -0.75 2.515625l0 5.28125l-1.640625 0zm17.000732 -3.109375l1.6875 0.203125q-0.40625 1.484375 -1.484375 2.3125q-1.078125 0.8125 -2.765625 0.8125q-2.125 0 -3.375 -1.296875q-1.234375 -1.3125 -1.234375 -3.671875q0 -2.453125 1.25 -3.796875q1.265625 -1.34375 3.265625 -1.34375q1.9375 0 3.15625 1.328125q1.234375 1.3125 1.234375 3.703125q0 0.15625 0 0.4375l-7.21875 0q0.09375 1.59375 0.90625 2.453125q0.8125 0.84375 2.015625 0.84375q0.90625 0 1.546875 -0.46875q0.640625 -0.484375 1.015625 -1.515625zm-5.390625 -2.65625l5.40625 0q-0.109375 -1.21875 -0.625 -1.828125q-0.78125 -0.953125 -2.03125 -0.953125q-1.125 0 -1.90625 0.765625q-0.765625 0.75 -0.84375 2.015625zm15.453857 2.21875l1.609375 0.21875q-0.265625 1.65625 -1.359375 2.609375q-1.078125 0.9375 -2.671875 0.9375q-1.984375 0 -3.1875 -1.296875q-1.203125 -1.296875 -1.203125 -3.71875q0 -1.578125 0.515625 -2.75q0.515625 -1.171875 1.578125 -1.75q1.0625 -0.59375 2.3125 -0.59375q1.578125 0 2.578125 0.796875q1.0 0.796875 1.28125 2.265625l-1.59375 0.234375q-0.234375 -0.96875 -0.8125 -1.453125q-0.578125 -0.5 -1.390625 -0.5q-1.234375 0 -2.015625 0.890625q-0.78125 0.890625 -0.78125 2.8125q0 1.953125 0.75 2.84375q0.75 0.875 1.953125 0.875q0.96875 0 1.609375 -0.59375q0.65625 -0.59375 0.828125 -1.828125zm6.59375 2.078125l0.234375 1.453125q-0.6875 0.140625 -1.234375 0.140625q-0.890625 0 -1.390625 -0.28125q-0.484375 -0.28125 -0.6875 -0.734375q-0.203125 -0.46875 -0.203125 -1.9375l0 -5.578125l-1.203125 0l0 -1.265625l1.203125 0l0 -2.390625l1.625 -0.984375l0 3.375l1.65625 0l0 1.265625l-1.65625 0l0 5.671875q0 0.6875 0.078125 0.890625q0.09375 0.203125 0.28125 0.328125q0.203125 0.109375 0.578125 0.109375q0.265625 0 0.71875 -0.0625z" fill-rule="nonzero"/></g></svg>