<svg version="1.1" viewBox="0.0 0.0 861.503937007874 203.0" fill="none" stroke="none" stroke-linecap="square" stroke-miterlimit="10" xmlns:xlink="http://www.w3.org/1999/xlink" xmlns="http://www.w3.org/2000/svg"><clipPath id="p.0"><path d="m0 0l861.50397 0l0 203.0l-861.50397 0l0 -203.0z" clip-rule="nonzero"/></clipPath><g clip-path="url(#p.0)"><path fill="#000000" fill-opacity="0.0" d="m0 0l861.50397 0l0 203.0l-861.50397 0z" fill-rule="evenodd"/><path fill="#ffffff" d="m132.3307 60.577427l0 0c0 -24.918045 26.862915 -45.11811 60.0 -45.11811l0 0c33.137085 0 60.0 20.200066 60.0 45.11811l0 0c0 24.918049 -26.862915 45.118114 -60.0 45.118114l0 0c-33.137085 0 -60.0 -20.200066 -60.0 -45.118114z" fill-rule="evenodd"/><path stroke="#000000" stroke-width="4.0" stroke-linejoin="round" stroke-linecap="butt" d="m132.3307 60.577427l0 0c0 -24.918045 26.862915 -45.11811 60.0 -45.11811l0 0c33.137085 0 60.0 20.200066 60.0 45.11811l0 0c0 24.918049 -26.862915 45.118114 -60.0 45.118114l0 0c-33.137085 0 -60.0 -20.200066 -60.0 -45.118114z" fill-rule="evenodd"/><path fill="#000000" d="m166.5808 56.0443l0 -1.90625l1.640625 0l0 1.90625l-1.640625 0zm-2.078125 15.203121l0.3125 -1.390625q0.5 0.125 0.78125 0.125q0.5 0 0.734375 -0.328125q0.25 -0.328125 0.25 -1.671875l0 -10.156246l1.640625 0l0 10.203121q0 1.78125 -0.46875 2.484375q-0.59375 0.90625 -1.96875 0.90625q-0.65625 0 -1.28125 -0.171875zm5.629196 -8.593746q0 -2.6875 1.484375 -3.96875q1.25 -1.078125 3.046875 -1.078125q2.0 0 3.265625 1.3125q1.265625 1.296875 1.265625 3.609375q0 1.8593712 -0.5625 2.9374962q-0.5625 1.0625 -1.640625 1.65625q-1.0625 0.59375 -2.328125 0.59375q-2.03125 0 -3.28125 -1.296875q-1.25 -1.3125 -1.25 -3.7656212zm1.6875 0q0 1.8593712 0.796875 2.7968712q0.8125 0.921875 2.046875 0.921875q1.21875 0 2.03125 -0.921875q0.8125 -0.9375 0.8125 -2.8437462q0 -1.796875 -0.8125 -2.71875q-0.8125 -0.921875 -2.03125 -0.921875q-1.234375 0 -2.046875 0.921875q-0.796875 0.90625 -0.796875 2.765625zm9.297592 -6.625l0 -1.890625l1.640625 0l0 1.890625l-1.640625 0zm0 11.468746l0 -9.671871l1.640625 0l0 9.671871l-1.640625 0zm4.144821 0l0 -9.671871l1.46875 0l0 1.375q1.0625 -1.59375 3.078125 -1.59375q0.875 0 1.609375 0.3125q0.734375 0.3125 1.09375 0.828125q0.375 0.5 0.515625 1.203125q0.09375 0.453125 0.09375 1.59375l0 5.953121l-1.640625 0l0 -5.890621q0 -1.0 -0.203125 -1.484375q-0.1875 -0.5 -0.671875 -0.796875q-0.484375 -0.296875 -1.140625 -0.296875q-1.046875 0 -1.8125 0.671875q-0.75 0.65625 -0.75 2.515625l0 5.281246l-1.640625 0zm10.375717 -11.468746l0 -1.890625l1.640625 0l0 1.890625l-1.640625 0zm0 11.468746l0 -9.671871l1.640625 0l0 9.671871l-1.640625 0zm4.144821 0l0 -9.671871l1.46875 0l0 1.375q1.0625 -1.59375 3.078125 -1.59375q0.875 0 1.609375 0.3125q0.734375 0.3125 1.09375 0.828125q0.375 0.5 0.515625 1.203125q0.09375 0.453125 0.09375 1.59375l0 5.953121l-1.640625 0l0 -5.890621q0 -1.0 -0.203125 -1.484375q-0.1875 -0.5 -0.671875 -0.796875q-0.484375 -0.296875 -1.140625 -0.296875q-1.046875 0 -1.8125 0.671875q-0.75 0.65625 -0.75 2.515625l0 5.281246l-1.640625 0zm10.063217 0.796875l1.59375 0.234375q0.109375 0.75 0.5625 1.078125q0.609375 0.453125 1.671875 0.453125q1.140625 0 1.75 -0.453125q0.625 -0.453125 0.84375 -1.265625q0.125 -0.5 0.109375 -2.109375q-1.0625 1.265625 -2.671875 1.265625q-2.0 0 -3.09375 -1.4375q-1.09375 -1.4375 -1.09375 -3.4531212q0 -1.390625 0.5 -2.5625q0.515625 -1.171875 1.453125 -1.796875q0.953125 -0.640625 2.25 -0.640625q1.703125 0 2.8125 1.375l0 -1.15625l1.515625 0l0 8.359371q0 2.265625 -0.46875 3.203125q-0.453125 0.9375 -1.453125 1.484375q-0.984375 0.546875 -2.453125 0.546875q-1.71875 0 -2.796875 -0.78125q-1.0625 -0.765625 -1.03125 -2.34375zm1.359375 -5.812496q0 1.9062462 0.75 2.7812462q0.765625 0.875 1.90625 0.875q1.125 0 1.890625 -0.859375q0.765625 -0.875 0.765625 -2.7343712q0 -1.78125 -0.796875 -2.671875q-0.78125 -0.90625 -1.890625 -0.90625q-1.09375 0 -1.859375 0.890625q-0.765625 0.875 -0.765625 2.625z" fill-rule="nonzero"/><path fill="#ffffff" d="m539.3517 60.577427l0 0c0 -24.918045 26.862915 -45.11811 60.0 -45.11811l0 0c33.137085 0 60.0 20.200066 60.0 45.11811l0 0c0 24.918049 -26.862915 45.118114 -60.0 45.118114l0 0c-33.137085 0 -60.0 -20.200066 -60.0 -45.118114z" fill-rule="evenodd"/><path stroke="#000000" stroke-width="4.0" stroke-linejoin="round" stroke-linecap="butt" d="m539.3517 60.577427l0 0c0 -24.918045 26.862915 -45.11811 60.0 -45.11811l0 0c33.137085 0 60.0 20.200066 60.0 45.11811l0 0c0 24.918049 -26.862915 45.118114 -60.0 45.118114l0 0c-33.137085 0 -60.0 -20.200066 -60.0 -45.118114z" fill-rule="evenodd"/><path fill="#000000" d="m584.55164 67.49742l0 -1.21875q-0.90625 1.4375 -2.703125 1.4375q-1.15625 0 -2.125 -0.640625q-0.96875 -0.640625 -1.5 -1.78125q-0.53125 -1.140625 -0.53125 -2.6249962q0 -1.453125 0.484375 -2.625q0.484375 -1.1875 1.4375 -1.8125q0.96875 -0.625 2.171875 -0.625q0.875 0 1.546875 0.375q0.6875 0.359375 1.109375 0.953125l0 -4.796875l1.640625 0l0 13.359371l-1.53125 0zm-5.171875 -4.828121q0 1.8593712 0.78125 2.7812462q0.78125 0.921875 1.84375 0.921875q1.078125 0 1.828125 -0.875q0.75 -0.890625 0.75 -2.6874962q0 -1.984375 -0.765625 -2.90625q-0.765625 -0.9375 -1.890625 -0.9375q-1.078125 0 -1.8125 0.890625q-0.734375 0.890625 -0.734375 2.8125zm9.203857 8.546871l-0.1875 -1.53125q0.546875 0.140625 0.9375 0.140625q0.546875 0 0.875 -0.1875q0.328125 -0.171875 0.546875 -0.5q0.15625 -0.25 0.5 -1.21875q0.046875 -0.140625 0.140625 -0.40625l-3.671875 -9.687496l1.765625 0l2.015625 5.59375q0.390625 1.0781212 0.703125 2.2499962q0.28125 -1.125 0.671875 -2.2031212l2.078125 -5.640625l1.640625 0l-3.6875 9.828121q-0.59375 1.609375 -0.921875 2.203125q-0.4375 0.8125 -1.0 1.1875q-0.5625 0.375 -1.34375 0.375q-0.484375 0 -1.0625 -0.203125zm9.40625 -15.187496l0 -1.890625l1.640625 0l0 1.890625l-1.640625 0zm0 11.468746l0 -9.671871l1.640625 0l0 9.671871l-1.640625 0zm4.1448364 0l0 -9.671871l1.46875 0l0 1.375q1.0625 -1.59375 3.078125 -1.59375q0.875 0 1.609375 0.3125q0.734375 0.3125 1.09375 0.828125q0.375 0.5 0.515625 1.203125q0.09375 0.453125 0.09375 1.59375l0 5.953121l-1.640625 0l0 -5.890621q0 -1.0 -0.203125 -1.484375q-0.1875 -0.5 -0.671875 -0.796875q-0.484375 -0.296875 -1.140625 -0.296875q-1.046875 0 -1.8125 0.671875q-0.75 0.65625 -0.75 2.515625l0 5.281246l-1.640625 0zm10.063232 0.796875l1.59375 0.234375q0.109375 0.75 0.5625 1.078125q0.609375 0.453125 1.671875 0.453125q1.140625 0 1.75 -0.453125q0.625 -0.453125 0.84375 -1.265625q0.125 -0.5 0.109375 -2.109375q-1.0625 1.265625 -2.671875 1.265625q-2.0 0 -3.09375 -1.4375q-1.09375 -1.4375 -1.09375 -3.4531212q0 -1.390625 0.5 -2.5625q0.515625 -1.171875 1.453125 -1.796875q0.953125 -0.640625 2.25 -0.640625q1.703125 0 2.8125 1.375l0 -1.15625l1.515625 0l0 8.359371q0 2.265625 -0.46875 3.203125q-0.453125 0.9375 -1.453125 1.484375q-0.984375 0.546875 -2.453125 0.546875q-1.71875 0 -2.796875 -0.78125q-1.0625 -0.765625 -1.03125 -2.34375zm1.359375 -5.812496q0 1.9062462 0.75 2.7812462q0.765625 0.875 1.90625 0.875q1.125 0 1.890625 -0.859375q0.765625 -0.875 0.765625 -2.7343712q0 -1.78125 -0.796875 -2.671875q-0.78125 -0.90625 -1.890625 -0.90625q-1.09375 0 -1.859375 0.890625q-0.765625 0.875 -0.765625 2.625z" fill-rule="nonzero"/><path fill="#ffffff" d="m319.13647 60.728348l0 0c0 -24.918045 30.338898 -45.11811 67.763794 -45.11811l0 0c37.424896 0 67.76376 20.200066 67.76376 45.11811l0 0c0 24.918045 -30.338867 45.11811 -67.76376 45.11811l0 0c-37.424896 0 -67.763794 -20.200066 -67.763794 -45.11811z" fill-rule="evenodd"/><path stroke="#000000" stroke-width="4.0" stroke-linejoin="round" stroke-linecap="butt" d="m319.13647 60.728348l0 0c0 -24.918045 30.338898 -45.11811 67.763794 -45.11811l0 0c37.424896 0 67.76376 20.200066 67.76376 45.11811l0 0c0 24.918045 -30.338867 45.11811 -67.76376 45.11811l0 0c-37.424896 0 -67.763794 -20.200066 -67.763794 -45.11811z" fill-rule="evenodd"/><path fill="#000000" d="m375.26254 66.460846q-0.921875 0.765625 -1.765625 1.09375q-0.828125 0.3125 -1.796875 0.3125q-1.59375 0 -2.453125 -0.78125q-0.859375 -0.78125 -0.859375 -1.984375q0 -0.71875 0.328125 -1.2968788q0.328125 -0.59375 0.84375 -0.9375q0.53125 -0.359375 1.1875 -0.546875q0.46875 -0.125 1.453125 -0.25q1.984375 -0.234375 2.921875 -0.5625q0.015625 -0.34375 0.015625 -0.421875q0 -1.0 -0.46875 -1.421875q-0.625 -0.546875 -1.875 -0.546875q-1.15625 0 -1.703125 0.40625q-0.546875 0.40625 -0.8125 1.421875l-1.609375 -0.21875q0.21875 -1.015625 0.71875 -1.640625q0.5 -0.640625 1.453125 -0.984375q0.953125 -0.34375 2.1875 -0.34375q1.25 0 2.015625 0.296875q0.78125 0.28125 1.140625 0.734375q0.375 0.4375 0.515625 1.109375q0.078125 0.421875 0.078125 1.515625l0 2.1875q0 2.2812538 0.109375 2.8906288q0.109375 0.59375 0.40625 1.15625l-1.703125 0q-0.265625 -0.515625 -0.328125 -1.1875zm-0.140625 -3.6718788q-0.890625 0.375 -2.671875 0.625q-1.015625 0.140625 -1.4375 0.328125q-0.421875 0.1875 -0.65625 0.5312538q-0.21875 0.34375 -0.21875 0.78125q0 0.65625 0.5 1.09375q0.5 0.4375 1.453125 0.4375q0.9375 0 1.671875 -0.40625q0.75 -0.421875 1.09375 -1.140625q0.265625 -0.5625 0.265625 -1.6406288l0 -0.609375zm4.156952 4.859379l0 -13.359379l1.640625 0l0 13.359379l-1.640625 0zm4.1917114 -11.468754l0 -1.890625l1.640625 0l0 1.890625l-1.640625 0zm0 11.468754l0 -9.671879l1.640625 0l0 9.671879l-1.640625 0zm6.832306 0l-3.6875 -9.671879l1.734375 0l2.078125 5.796875q0.328125 0.9375038 0.625 1.9375038q0.203125 -0.765625 0.609375 -1.8281288l2.140625 -5.90625l1.6875 0l-3.65625 9.671879l-1.53125 0zm13.265625 -3.109375l1.6875 0.203125q-0.40625 1.484375 -1.484375 2.3125q-1.078125 0.8125 -2.765625 0.8125q-2.125 0 -3.375 -1.296875q-1.234375 -1.3125 -1.234375 -3.6718788q0 -2.453125 1.25 -3.796875q1.265625 -1.34375 3.265625 -1.34375q1.9375 0 3.15625 1.328125q1.234375 1.3125 1.234375 3.703125q0 0.15625 0 0.4375l-7.21875 0q0.09375 1.5937538 0.90625 2.4531288q0.8125 0.84375 2.015625 0.84375q0.90625 0 1.546875 -0.46875q0.640625 -0.484375 1.015625 -1.515625zm-5.390625 -2.6562538l5.40625 0q-0.109375 -1.21875 -0.625 -1.828125q-0.78125 -0.953125 -2.03125 -0.953125q-1.125 0 -1.90625 0.765625q-0.765625 0.75 -0.84375 2.015625z" fill-rule="nonzero"/><path fill="#ffffff" d="m731.1155 60.577427l0 0c0 -24.918045 26.862915 -45.11811 60.0 -45.11811l0 0c33.137085 0 60.0 20.200066 60.0 45.11811l0 0c0 24.918049 -26.862915 45.118114 -60.0 45.118114l0 0c-33.137085 0 -60.0 -20.200066 -60.0 -45.118114z" fill-rule="evenodd"/><path stroke="#000000" stroke-width="4.0" stroke-linejoin="round" stroke-linecap="butt" d="m731.1155 60.577427l0 0c0 -24.918045 26.862915 -45.11811 60.0 -45.11811l0 0c33.137085 0 60.0 20.200066 60.0 45.11811l0 0c0 24.918049 -26.862915 45.118114 -60.0 45.118114l0 0c-33.137085 0 -60.0 -20.200066 -60.0 -45.118114z" fill-rule="evenodd"/><path fill="#000000" d="m777.8641 67.49742l0 -1.21875q-0.90625 1.4375 -2.703125 1.4375q-1.15625 0 -2.125 -0.640625q-0.96875 -0.640625 -1.5 -1.78125q-0.53125 -1.140625 -0.53125 -2.6249962q0 -1.453125 0.484375 -2.625q0.484375 -1.1875 1.4375 -1.8125q0.96875 -0.625 2.171875 -0.625q0.875 0 1.546875 0.375q0.6875 0.359375 1.109375 0.953125l0 -4.796875l1.640625 0l0 13.359371l-1.53125 0zm-5.171875 -4.828121q0 1.8593712 0.78125 2.7812462q0.78125 0.921875 1.84375 0.921875q1.078125 0 1.828125 -0.875q0.75 -0.890625 0.75 -2.6874962q0 -1.984375 -0.765625 -2.90625q-0.765625 -0.9375 -1.890625 -0.9375q-1.078125 0 -1.8125 0.890625q-0.734375 0.890625 -0.734375 2.8125zm15.906921 1.7187462l1.6875 0.203125q-0.40625 1.484375 -1.484375 2.3125q-1.078125 0.8125 -2.765625 0.8125q-2.125 0 -3.375 -1.296875q-1.234375 -1.3125 -1.234375 -3.6718712q0 -2.453125 1.25 -3.796875q1.265625 -1.34375 3.265625 -1.34375q1.9375 0 3.15625 1.328125q1.234375 1.3125 1.234375 3.703125q0 0.15625 0 0.4375l-7.21875 0q0.09375 1.5937462 0.90625 2.4531212q0.8125 0.84375 2.015625 0.84375q0.90625 0 1.546875 -0.46875q0.640625 -0.484375 1.015625 -1.515625zm-5.390625 -2.6562462l5.40625 0q-0.109375 -1.21875 -0.625 -1.828125q-0.78125 -0.953125 -2.03125 -0.953125q-1.125 0 -1.90625 0.765625q-0.765625 0.75 -0.84375 2.015625zm15.453857 4.578121q-0.921875 0.765625 -1.765625 1.09375q-0.828125 0.3125 -1.796875 0.3125q-1.59375 0 -2.453125 -0.78125q-0.859375 -0.78125 -0.859375 -1.984375q0 -0.71875 0.328125 -1.2968712q0.328125 -0.59375 0.84375 -0.9375q0.53125 -0.359375 1.1875 -0.546875q0.46875 -0.125 1.453125 -0.25q1.984375 -0.234375 2.921875 -0.5625q0.015625 -0.34375 0.015625 -0.421875q0 -1.0 -0.46875 -1.421875q-0.625 -0.546875 -1.875 -0.546875q-1.15625 0 -1.703125 0.40625q-0.546875 0.40625 -0.8125 1.421875l-1.609375 -0.21875q0.21875 -1.015625 0.71875 -1.640625q0.5 -0.640625 1.453125 -0.984375q0.953125 -0.34375 2.1875 -0.34375q1.25 0 2.015625 0.296875q0.78125 0.28125 1.140625 0.734375q0.375 0.4375 0.515625 1.109375q0.078125 0.421875 0.078125 1.515625l0 2.1875q0 2.2812462 0.109375 2.8906212q0.109375 0.59375 0.40625 1.15625l-1.703125 0q-0.265625 -0.515625 -0.328125 -1.1875zm-0.140625 -3.6718712q-0.890625 0.375 -2.671875 0.625q-1.015625 0.140625 -1.4375 0.328125q-0.421875 0.1875 -0.65625 0.5312462q-0.21875 0.34375 -0.21875 0.78125q0 0.65625 0.5 1.09375q0.5 0.4375 1.453125 0.4375q0.9375 0 1.671875 -0.40625q0.75 -0.421875 1.09375 -1.140625q0.265625 -0.5625 0.265625 -1.6406212l0 -0.609375zm10.469482 4.859371l0 -1.21875q-0.90625 1.4375 -2.703125 1.4375q-1.15625 0 -2.125 -0.640625q-0.96875 -0.640625 -1.5 -1.78125q-0.53125 -1.140625 -0.53125 -2.6249962q0 -1.453125 0.484375 -2.625q0.484375 -1.1875 1.4375 -1.8125q0.96875 -0.625 2.171875 -0.625q0.875 0 1.546875 0.375q0.6875 0.359375 1.109375 0.953125l0 -4.796875l1.640625 0l0 13.359371l-1.53125 0zm-5.171875 -4.828121q0 1.8593712 0.78125 2.7812462q0.78125 0.921875 1.84375 0.921875q1.078125 0 1.828125 -0.875q0.75 -0.890625 0.75 -2.6874962q0 -1.984375 -0.765625 -2.90625q-0.765625 -0.9375 -1.890625 -0.9375q-1.078125 0 -1.8125 0.890625q-0.734375 0.890625 -0.734375 2.8125z" fill-rule="nonzero"/><path fill="#000000" fill-opacity="0.0" d="m23.291338 60.892387l109.03937 -0.31496048" fill-rule="evenodd"/><path stroke="#000000" stroke-width="4.0" stroke-linejoin="round" stroke-linecap="butt" d="m23.291338 60.892387l85.039474 -0.24563599" fill-rule="evenodd"/><path fill="#000000" stroke="#000000" stroke-width="4.0" stroke-linecap="butt" d="m108.34989 67.253654l18.133232 -6.659336l-18.171394 -6.55447z" fill-rule="evenodd"/><path fill="#000000" fill-opacity="0.0" d="m5.5328083 59.790028l124.50394 0l0 86.3307l-124.50394 0z" fill-rule="evenodd"/><path fill="#000000" d="m15.454683 87.5069l1.59375 0.234375q0.109375 0.75 0.5625 1.078125q0.609375 0.453125 1.671875 0.453125q1.140625 0 1.75 -0.453125q0.625 -0.453125 0.84375 -1.265625q0.125 -0.5 0.109375 -2.109375q-1.0625 1.265625 -2.671875 1.265625q-2.0 0 -3.09375 -1.4375q-1.09375 -1.4375 -1.09375 -3.453125q0 -1.390625 0.5 -2.5625q0.515625 -1.171875 1.453125 -1.796875q0.953125 -0.640625 2.25 -0.640625q1.703125 0 2.8125 1.375l0 -1.15625l1.515625 0l0 8.359375q0 2.265625 -0.46875 3.203125q-0.453125 0.9375 -1.453125 1.484375q-0.984375 0.546875 -2.453125 0.546875q-1.71875 0 -2.796875 -0.78125q-1.0625 -0.765625 -1.03125 -2.34375zm1.359375 -5.8125q0 1.90625 0.75 2.78125q0.765625 0.875 1.90625 0.875q1.125 0 1.890625 -0.859375q0.765625 -0.875 0.765625 -2.734375q0 -1.78125 -0.796875 -2.671875q-0.78125 -0.90625 -1.890625 -0.90625q-1.09375 0 -1.859375 0.890625q-0.765625 0.875 -0.765625 2.625zm15.641344 3.828125q-0.9218769 0.765625 -1.7656269 1.09375q-0.828125 0.3125 -1.796875 0.3125q-1.59375 0 -2.453125 -0.78125q-0.859375 -0.78125 -0.859375 -1.984375q0 -0.71875 0.328125 -1.296875q0.328125 -0.59375 0.84375 -0.9375q0.53125 -0.359375 1.1875 -0.546875q0.46875 -0.125 1.453125 -0.25q1.984375 -0.234375 2.921877 -0.5625q0.015625 -0.34375 0.015625 -0.421875q0 -1.0 -0.4687519 -1.421875q-0.625 -0.546875 -1.875 -0.546875q-1.15625 0 -1.703125 0.40625q-0.546875 0.40625 -0.8125 1.421875l-1.609375 -0.21875q0.21875 -1.015625 0.71875 -1.640625q0.5 -0.640625 1.453125 -0.984375q0.953125 -0.34375 2.1875 -0.34375q1.25 0 2.015627 0.296875q0.78125 0.28125 1.140625 0.734375q0.375 0.4375 0.515625 1.109375q0.078125 0.421875 0.078125 1.515625l0 2.1875q0 2.28125 0.109375 2.890625q0.109375 0.59375 0.40625 1.15625l-1.703125 0q-0.265625 -0.515625 -0.328125 -1.1875zm-0.140625 -3.671875q-0.8906269 0.375 -2.671877 0.625q-1.015625 0.140625 -1.4375 0.328125q-0.421875 0.1875 -0.65625 0.53125q-0.21875 0.34375 -0.21875 0.78125q0 0.65625 0.5 1.09375q0.5 0.4375 1.453125 0.4375q0.9375 0 1.671875 -0.40625q0.75 -0.421875 1.0937519 -1.140625q0.265625 -0.5625 0.265625 -1.640625l0 -0.609375zm4.203842 4.859375l0 -9.671875l1.46875 0l0 1.359375q0.453125 -0.71875 1.203125 -1.140625q0.765625 -0.4375 1.71875 -0.4375q1.078125 0 1.765625 0.453125q0.6875 0.4375 0.96875 1.234375q1.15625 -1.6875 2.984375 -1.6875q1.453125 0 2.21875 0.796875q0.78125 0.796875 0.78125 2.453125l0 6.640625l-1.640625 0l0 -6.09375q0 -0.984375 -0.15625 -1.40625q-0.15625 -0.4375 -0.578125 -0.703125q-0.421875 -0.265625 -0.984375 -0.265625q-1.015625 0 -1.6875 0.6875q-0.671875 0.671875 -0.671875 2.15625l0 5.625l-1.640625 0l0 -6.28125q0 -1.09375 -0.40625 -1.640625q-0.40625 -0.546875 -1.3125 -0.546875q-0.6875 0 -1.28125 0.359375q-0.59375 0.359375 -0.859375 1.0625q-0.25 0.703125 -0.25 2.03125l0 5.015625l-1.640625 0zm22.165802 -3.109375l1.6875 0.203125q-0.40625 1.484375 -1.484375 2.3125q-1.078125 0.8125 -2.765625 0.8125q-2.125 0 -3.375 -1.296875q-1.234375 -1.3125 -1.234375 -3.671875q0 -2.453125 1.25 -3.796875q1.265625 -1.34375 3.265625 -1.34375q1.9375 0 3.15625 1.328125q1.234375 1.3125 1.234375 3.703125q0 0.15625 0 0.4375l-7.21875 0q0.09375 1.59375 0.90625 2.453125q0.8125 0.84375 2.015625 0.84375q0.90625 0 1.546875 -0.46875q0.640625 -0.484375 1.015625 -1.515625zm-5.390625 -2.65625l5.40625 0q-0.109375 -1.21875 -0.625 -1.828125q-0.78125 -0.953125 -2.03125 -0.953125q-1.125 0 -1.90625 0.765625q-0.765625 0.75 -0.84375 2.015625zm20.637142 2.21875l1.609375 0.21875q-0.265625 1.65625 -1.359375 2.609375q-1.078125 0.9375 -2.671875 0.9375q-1.984375 0 -3.1875 -1.296875q-1.203125 -1.296875 -1.203125 -3.71875q0 -1.578125 0.515625 -2.75q0.515625 -1.171875 1.578125 -1.75q1.0625 -0.59375 2.3125 -0.59375q1.578125 0 2.578125 0.796875q1.0 0.796875 1.28125 2.265625l-1.59375 0.234375q-0.234375 -0.96875 -0.8125 -1.453125q-0.578125 -0.5 -1.390625 -0.5q-1.234375 0 -2.015625 0.890625q-0.78125 0.890625 -0.78125 2.8125q0 1.953125 0.75 2.84375q0.75 0.875 1.953125 0.875q0.96875 0 1.609375 -0.59375q0.65625 -0.59375 0.828125 -1.828125zm2.40625 -1.296875q0 -2.6875 1.484375 -3.96875q1.25 -1.078125 3.046875 -1.078125q2.0 0 3.265625 1.3125q1.265625 1.296875 1.265625 3.609375q0 1.859375 -0.5625 2.9375q-0.5625 1.0625 -1.640625 1.65625q-1.0625 0.59375 -2.328125 0.59375q-2.03125 0 -3.28125 -1.296875q-1.25 -1.3125 -1.25 -3.765625zm1.6875 0q0 1.859375 0.796875 2.796875q0.8125 0.921875 2.046875 0.921875q1.21875 0 2.03125 -0.921875q0.8125 -0.9375 0.8125 -2.84375q0 -1.796875 -0.8125 -2.71875q-0.8125 -0.921875 -2.03125 -0.921875q-1.234375 0 -2.046875 0.921875q-0.796875 0.90625 -0.796875 2.765625zm15.563217 4.84375l0 -1.21875q-0.90625 1.4375 -2.703125 1.4375q-1.15625 0 -2.125 -0.640625q-0.96875 -0.640625 -1.5 -1.78125q-0.53125 -1.140625 -0.53125 -2.625q0 -1.453125 0.484375 -2.625q0.484375 -1.1875 1.4375 -1.8125q0.96875 -0.625 2.171875 -0.625q0.875 0 1.546875 0.375q0.6875 0.359375 1.109375 0.953125l0 -4.796875l1.640625 0l0 13.359375l-1.53125 0zm-5.171875 -4.828125q0 1.859375 0.78125 2.78125q0.78125 0.921875 1.84375 0.921875q1.078125 0 1.828125 -0.875q0.75 -0.890625 0.75 -2.6875q0 -1.984375 -0.765625 -2.90625q-0.765625 -0.9375 -1.890625 -0.9375q-1.078125 0 -1.8125 0.890625q-0.734375 0.890625 -0.734375 2.8125zm15.906967 1.71875l1.6875 0.203125q-0.40625 1.484375 -1.484375 2.3125q-1.078125 0.8125 -2.765625 0.8125q-2.125 0 -3.375 -1.296875q-1.234375 -1.3125 -1.234375 -3.671875q0 -2.453125 1.25 -3.796875q1.265625 -1.34375 3.265625 -1.34375q1.9375 0 3.15625 1.328125q1.234375 1.3125 1.234375 3.703125q0 0.15625 0 0.4375l-7.21875 0q0.09375 1.59375 0.90625 2.453125q0.8125 0.84375 2.015625 0.84375q0.90625 0 1.546875 -0.46875q0.640625 -0.484375 1.015625 -1.515625zm-5.390625 -2.65625l5.40625 0q-0.109375 -1.21875 -0.625 -1.828125q-0.78125 -0.953125 -2.03125 -0.953125q-1.125 0 -1.90625 0.765625q-0.765625 0.75 -0.84375 2.015625z" fill-rule="nonzero"/><path fill="#000000" d="m22.392183 105.60065l1.6875 0.203125q-0.40625 1.484375 -1.484375 2.3125q-1.078125 0.8125 -2.765625 0.8125q-2.125 0 -3.375 -1.296875q-1.234375 -1.3125 -1.234375 -3.671875q0 -2.453125 1.25 -3.796875q1.265625 -1.34375 3.265625 -1.34375q1.9375 0 3.15625 1.328125q1.234375 1.3125 1.234375 3.703125q0 0.15625 0 0.4375l-7.21875 0q0.09375 1.59375 0.90625 2.453125q0.8125 0.84375 2.015625 0.84375q0.90625 0 1.546875 -0.46875q0.640625 -0.484375 1.015625 -1.515625zm-5.390625 -2.65625l5.40625 0q-0.109375 -1.21875 -0.625 -1.828125q-0.78125 -0.953125 -2.03125 -0.953125q-1.125 0 -1.90625 0.765625q-0.765625 0.75 -0.84375 2.015625zm9.141342 5.765625l0 -9.671875l1.46875 0l0 1.375q1.0625 -1.59375 3.078125 -1.59375q0.875 0 1.6093769 0.3125q0.734375 0.3125 1.09375 0.828125q0.375 0.5 0.515625 1.203125q0.09375 0.453125 0.09375 1.59375l0 5.953125l-1.640625 0l0 -5.890625q0 -1.0 -0.203125 -1.484375q-0.1875019 -0.5 -0.6718769 -0.796875q-0.484375 -0.296875 -1.140625 -0.296875q-1.046875 0 -1.8125 0.671875q-0.75 0.65625 -0.75 2.515625l0 5.28125l-1.640625 0zm13.953844 -1.46875l0.234375 1.453125q-0.6875 0.140625 -1.234375 0.140625q-0.890625 0 -1.390625 -0.28125q-0.484375 -0.28125 -0.6875 -0.734375q-0.203125 -0.46875 -0.203125 -1.9375l0 -5.578125l-1.203125 0l0 -1.265625l1.203125 0l0 -2.390625l1.625 -0.984375l0 3.375l1.65625 0l0 1.265625l-1.65625 0l0 5.671875q0 0.6875 0.078125 0.890625q0.09375 0.203125 0.28125 0.328125q0.203125 0.109375 0.578125 0.109375q0.265625 0 0.71875 -0.0625zm8.230179 -1.640625l1.6875 0.203125q-0.40625 1.484375 -1.484375 2.3125q-1.078125 0.8125 -2.765625 0.8125q-2.125 0 -3.375 -1.296875q-1.234375 -1.3125 -1.234375 -3.671875q0 -2.453125 1.25 -3.796875q1.265625 -1.34375 3.265625 -1.34375q1.9375 0 3.15625 1.328125q1.234375 1.3125 1.234375 3.703125q0 0.15625 0 0.4375l-7.21875 0q0.09375 1.59375 0.90625 2.453125q0.8125 0.84375 2.015625 0.84375q0.90625 0 1.546875 -0.46875q0.640625 -0.484375 1.015625 -1.515625zm-5.390625 -2.65625l5.40625 0q-0.109375 -1.21875 -0.625 -1.828125q-0.78125 -0.953125 -2.03125 -0.953125q-1.125 0 -1.90625 0.765625q-0.765625 0.75 -0.84375 2.015625zm9.125717 5.765625l0 -9.671875l1.46875 0l0 1.46875q0.5625 -1.03125 1.03125 -1.359375q0.484375 -0.328125 1.0625 -0.328125q0.828125 0 1.6875 0.53125l-0.5625 1.515625q-0.609375 -0.359375 -1.203125 -0.359375q-0.546875 0 -0.96875 0.328125q-0.421875 0.328125 -0.609375 0.890625q-0.28125 0.875 -0.28125 1.921875l0 5.0625l-1.625 0zm12.853298 -3.109375l1.6875 0.203125q-0.40625 1.484375 -1.484375 2.3125q-1.078125 0.8125 -2.7656212 0.8125q-2.125 0 -3.375 -1.296875q-1.234375 -1.3125 -1.234375 -3.671875q0 -2.453125 1.25 -3.796875q1.265625 -1.34375 3.265625 -1.34375q1.9374962 0 3.1562462 1.328125q1.234375 1.3125 1.234375 3.703125q0 0.15625 0 0.4375l-7.218746 0q0.09375 1.59375 0.90625 2.453125q0.8125 0.84375 2.015625 0.84375q0.90625 0 1.546875 -0.46875q0.6406212 -0.484375 1.0156212 -1.515625zm-5.390621 -2.65625l5.406246 0q-0.109375 -1.21875 -0.625 -1.828125q-0.7812462 -0.953125 -2.0312462 -0.953125q-1.125 0 -1.90625 0.765625q-0.765625 0.75 -0.84375 2.015625zm15.406963 5.765625l0 -1.21875q-0.90625 1.4375 -2.703125 1.4375q-1.15625 0 -2.125 -0.640625q-0.96875 -0.640625 -1.5 -1.78125q-0.53125 -1.140625 -0.53125 -2.625q0 -1.453125 0.484375 -2.625q0.484375 -1.1875 1.4375 -1.8125q0.96875 -0.625 2.171875 -0.625q0.875 0 1.546875 0.375q0.6875 0.359375 1.109375 0.953125l0 -4.796875l1.640625 0l0 13.359375l-1.53125 0zm-5.171875 -4.828125q0 1.859375 0.78125 2.78125q0.78125 0.921875 1.84375 0.921875q1.078125 0 1.828125 -0.875q0.75 -0.890625 0.75 -2.6875q0 -1.984375 -0.765625 -2.90625q-0.765625 -0.9375 -1.890625 -0.9375q-1.078125 0 -1.8125 0.890625q-0.734375 0.890625 -0.734375 2.8125zm9.703842 4.828125l0 -1.875l1.875 0l0 1.875q0 1.03125 -0.375 1.65625q-0.359375 0.640625 -1.15625 0.984375l-0.453125 -0.703125q0.515625 -0.21875 0.765625 -0.671875q0.25 -0.4375 0.28125 -1.265625l-0.9375 0z" fill-rule="nonzero"/><path fill="#000000" d="m22.079683 127.16315l1.609375 0.21875q-0.265625 1.65625 -1.359375 2.609375q-1.078125 0.9375 -2.671875 0.9375q-1.984375 0 -3.1875 -1.296875q-1.203125 -1.296875 -1.203125 -3.71875q0 -1.578125 0.515625 -2.75q0.515625 -1.171875 1.578125 -1.75q1.0625 -0.59375 2.3125 -0.59375q1.578125 0 2.578125 0.796875q1.0 0.796875 1.28125 2.265625l-1.59375 0.234375q-0.234375 -0.96875 -0.8125 -1.453125q-0.578125 -0.5 -1.390625 -0.5q-1.234375 0 -2.015625 0.890625q-0.78125 0.890625 -0.78125 2.8125q0 1.953125 0.75 2.84375q0.75 0.875 1.953125 0.875q0.96875 0 1.609375 -0.59375q0.65625 -0.59375 0.828125 -1.828125zm3.0 3.546875l0 -9.671875l1.46875 0l0 1.46875q0.5625 -1.03125 1.03125 -1.359375q0.484375 -0.328125 1.0625 -0.328125q0.828125 0 1.6875 0.53125l-0.5625 1.515625q-0.609375 -0.359375 -1.203125 -0.359375q-0.546875 0 -0.96875 0.328125q-0.421875 0.328125 -0.609375 0.890625q-0.28125 0.875 -0.28125 1.921875l0 5.0625l-1.625 0zm12.853304 -3.109375l1.6875 0.203125q-0.40625 1.484375 -1.484375 2.3125q-1.078125 0.8125 -2.765625 0.8125q-2.125 0 -3.375002 -1.296875q-1.234375 -1.3125 -1.234375 -3.671875q0 -2.453125 1.2500019 -3.796875q1.265625 -1.34375 3.265625 -1.34375q1.9375 0 3.15625 1.328125q1.234375 1.3125 1.234375 3.703125q0 0.15625 0 0.4375l-7.21875 0q0.09375 1.59375 0.90625 2.453125q0.8125 0.84375 2.015625 0.84375q0.90625 0 1.546875 -0.46875q0.640625 -0.484375 1.015625 -1.515625zm-5.390625 -2.65625l5.40625 0q-0.109375 -1.21875 -0.625 -1.828125q-0.78125 -0.953125 -2.03125 -0.953125q-1.125 0 -1.90625 0.765625q-0.765625 0.75 -0.84375 2.015625zm15.453842 4.578125q-0.921875 0.765625 -1.765625 1.09375q-0.828125 0.3125 -1.796875 0.3125q-1.59375 0 -2.453125 -0.78125q-0.859375 -0.78125 -0.859375 -1.984375q0 -0.71875 0.328125 -1.296875q0.328125 -0.59375 0.84375 -0.9375q0.53125 -0.359375 1.1875 -0.546875q0.46875 -0.125 1.453125 -0.25q1.984375 -0.234375 2.921875 -0.5625q0.015625 -0.34375 0.015625 -0.421875q0 -1.0 -0.46875 -1.421875q-0.625 -0.546875 -1.875 -0.546875q-1.15625 0 -1.703125 0.40625q-0.546875 0.40625 -0.8125 1.421875l-1.609375 -0.21875q0.21875 -1.015625 0.71875 -1.640625q0.5 -0.640625 1.453125 -0.984375q0.953125 -0.34375 2.1875 -0.34375q1.25 0 2.015625 0.296875q0.78125 0.28125 1.140625 0.734375q0.375 0.4375 0.515625 1.109375q0.078125 0.421875 0.078125 1.515625l0 2.1875q0 2.28125 0.109375 2.890625q0.109375 0.59375 0.40625 1.15625l-1.703125 0q-0.265625 -0.515625 -0.328125 -1.1875zm-0.140625 -3.671875q-0.890625 0.375 -2.671875 0.625q-1.015625 0.140625 -1.4375 0.328125q-0.421875 0.1875 -0.65625 0.53125q-0.21875 0.34375 -0.21875 0.78125q0 0.65625 0.5 1.09375q0.5 0.4375 1.453125 0.4375q0.9375 0 1.671875 -0.40625q0.75 -0.421875 1.09375 -1.140625q0.265625 -0.5625 0.265625 -1.640625l0 -0.609375zm7.781967 3.390625l0.234375 1.453125q-0.6875 0.140625 -1.234375 0.140625q-0.890625 0 -1.390625 -0.28125q-0.484375 -0.28125 -0.6875 -0.734375q-0.203125 -0.46875 -0.203125 -1.9375l0 -5.578125l-1.203125 0l0 -1.265625l1.203125 0l0 -2.390625l1.625 -0.984375l0 3.375l1.65625 0l0 1.265625l-1.65625 0l0 5.671875q0 0.6875 0.078125 0.890625q0.09375 0.203125 0.28125 0.328125q0.203125 0.109375 0.578125 0.109375q0.265625 0 0.71875 -0.0625zm8.230179 -1.640625l1.6874962 0.203125q-0.40625 1.484375 -1.484375 2.3125q-1.0781212 0.8125 -2.7656212 0.8125q-2.125 0 -3.375 -1.296875q-1.234375 -1.3125 -1.234375 -3.671875q0 -2.453125 1.25 -3.796875q1.265625 -1.34375 3.265625 -1.34375q1.9375 0 3.1562462 1.328125q1.234375 1.3125 1.234375 3.703125q0 0.15625 0 0.4375l-7.218746 0q0.09375 1.59375 0.90625 2.453125q0.8125 0.84375 2.015625 0.84375q0.90625 0 1.546875 -0.46875q0.640625 -0.484375 1.015625 -1.515625zm-5.390625 -2.65625l5.40625 0q-0.109375 -1.21875 -0.625 -1.828125q-0.78125 -0.953125 -2.03125 -0.953125q-1.125 0 -1.90625 0.765625q-0.765625 0.75 -0.84375 2.015625zm15.406963 5.765625l0 -1.21875q-0.90625 1.4375 -2.703125 1.4375q-1.15625 0 -2.125 -0.640625q-0.96875 -0.640625 -1.5 -1.78125q-0.53125 -1.140625 -0.53125 -2.625q0 -1.453125 0.484375 -2.625q0.484375 -1.1875 1.4375 -1.8125q0.96875 -0.625 2.171875 -0.625q0.875 0 1.546875 0.375q0.6875 0.359375 1.109375 0.953125l0 -4.796875l1.640625 0l0 13.359375l-1.53125 0zm-5.171875 -4.828125q0 1.859375 0.78125 2.78125q0.78125 0.921875 1.84375 0.921875q1.078125 0 1.828125 -0.875q0.75 -0.890625 0.75 -2.6875q0 -1.984375 -0.765625 -2.90625q-0.765625 -0.9375 -1.890625 -0.9375q-1.078125 0 -1.8125 0.890625q-0.734375 0.890625 -0.734375 2.8125z" fill-rule="nonzero"/><path fill="#000000" fill-opacity="0.0" d="m252.3307 60.577427l66.80315 0.15748215" fill-rule="evenodd"/><path stroke="#000000" stroke-width="4.0" stroke-linejoin="round" stroke-linecap="butt" d="m252.3307 60.577427l42.803207 0.10090256" fill-rule="evenodd"/><path fill="#000000" stroke="#000000" stroke-width="4.0" stroke-linecap="butt" d="m295.11835 67.28524l18.167908 -6.5641174l-18.13675 -6.649704z" fill-rule="evenodd"/><path fill="#000000" fill-opacity="0.0" d="m210.96063 89.2231l124.50394 0l0 58.64566l-124.50394 0z" fill-rule="evenodd"/><path fill="#000000" d="m227.5075 114.9556q-0.921875 0.765625 -1.765625 1.09375q-0.828125 0.3125 -1.796875 0.3125q-1.59375 0 -2.453125 -0.78125q-0.859375 -0.78125 -0.859375 -1.984375q0 -0.71875 0.328125 -1.296875q0.328125 -0.59375 0.84375 -0.9375q0.53125 -0.359375 1.1875 -0.546875q0.46875 -0.125 1.453125 -0.25q1.984375 -0.234375 2.921875 -0.5625q0.015625 -0.34375 0.015625 -0.421875q0 -1.0 -0.46875 -1.421875q-0.625 -0.546875 -1.875 -0.546875q-1.15625 0 -1.703125 0.40625q-0.546875 0.40625 -0.8125 1.421875l-1.609375 -0.21875q0.21875 -1.015625 0.71875 -1.640625q0.5 -0.640625 1.453125 -0.984375q0.953125 -0.34375 2.1875 -0.34375q1.25 0 2.015625 0.296875q0.78125 0.28125 1.140625 0.734375q0.375 0.4375 0.515625 1.109375q0.078125 0.421875 0.078125 1.515625l0 2.1875q0 2.28125 0.109375 2.890625q0.109375 0.59375 0.40625 1.15625l-1.703125 0q-0.265625 -0.515625 -0.328125 -1.1875zm-0.140625 -3.671875q-0.890625 0.375 -2.671875 0.625q-1.015625 0.140625 -1.4375 0.328125q-0.421875 0.1875 -0.65625 0.53125q-0.21875 0.34375 -0.21875 0.78125q0 0.65625 0.5 1.09375q0.5 0.4375 1.453125 0.4375q0.9375 0 1.671875 -0.40625q0.75 -0.421875 1.09375 -1.140625q0.265625 -0.5625 0.265625 -1.640625l0 -0.609375zm10.516342 1.3125l1.609375 0.21875q-0.265625 1.65625 -1.359375 2.609375q-1.078125 0.9375 -2.671875 0.9375q-1.984375 0 -3.1875 -1.296875q-1.203125 -1.296875 -1.203125 -3.71875q0 -1.578125 0.515625 -2.75q0.515625 -1.171875 1.578125 -1.75q1.0625 -0.59375 2.3125 -0.59375q1.578125 0 2.578125 0.796875q1.0 0.796875 1.28125 2.265625l-1.59375 0.234375q-0.234375 -0.96875 -0.8125 -1.453125q-0.578125 -0.5 -1.390625 -0.5q-1.234375 0 -2.015625 0.890625q-0.78125 0.890625 -0.78125 2.8125q0 1.953125 0.75 2.84375q0.75 0.875 1.953125 0.875q0.96875 0 1.609375 -0.59375q0.65625 -0.59375 0.828125 -1.828125zm9.328125 0l1.609375 0.21875q-0.265625 1.65625 -1.359375 2.609375q-1.078125 0.9375 -2.671875 0.9375q-1.984375 0 -3.1875 -1.296875q-1.203125 -1.296875 -1.203125 -3.71875q0 -1.578125 0.515625 -2.75q0.515625 -1.171875 1.578125 -1.75q1.0625 -0.59375 2.3125 -0.59375q1.578125 0 2.578125 0.796875q1.0 0.796875 1.28125 2.265625l-1.59375 0.234375q-0.234375 -0.96875 -0.8125 -1.453125q-0.578125 -0.5 -1.390625 -0.5q-1.234375 0 -2.015625 0.890625q-0.78125 0.890625 -0.78125 2.8125q0 1.953125 0.75 2.84375q0.75 0.875 1.953125 0.875q0.96875 0 1.609375 -0.59375q0.65625 -0.59375 0.828125 -1.828125zm9.64061 0.4375l1.6875 0.203125q-0.40625 1.484375 -1.484375 2.3125q-1.0781097 0.8125 -2.7656097 0.8125q-2.125 0 -3.375 -1.296875q-1.234375 -1.3125 -1.234375 -3.671875q0 -2.453125 1.25 -3.796875q1.265625 -1.34375 3.265625 -1.34375q1.9374847 0 3.1562347 1.328125q1.234375 1.3125 1.234375 3.703125q0 0.15625 0 0.4375l-7.2187347 0q0.09375 1.59375 0.90625 2.453125q0.8125 0.84375 2.015625 0.84375q0.90625 0 1.546875 -0.46875q0.64060974 -0.484375 1.0156097 -1.515625zm-5.3906097 -2.65625l5.4062347 0q-0.109375 -1.21875 -0.625 -1.828125q-0.78123474 -0.953125 -2.0312347 -0.953125q-1.125 0 -1.90625 0.765625q-0.765625 0.75 -0.84375 2.015625zm9.141342 9.46875l0 -13.375l1.484375 0l0 1.25q0.53125 -0.734375 1.1875 -1.09375q0.671875 -0.375 1.625 -0.375q1.234375 0 2.171875 0.640625q0.953125 0.625 1.4375 1.796875q0.484375 1.15625 0.484375 2.546875q0 1.484375 -0.53125 2.671875q-0.53125 1.1875 -1.546875 1.828125q-1.015625 0.625 -2.140625 0.625q-0.8125 0 -1.46875 -0.34375q-0.65625 -0.34375 -1.0625 -0.875l0 4.703125l-1.640625 0zm1.484375 -8.484375q0 1.859375 0.75 2.765625q0.765625 0.890625 1.828125 0.890625q1.09375 0 1.875 -0.921875q0.78125 -0.9375 0.78125 -2.875q0 -1.84375 -0.765625 -2.765625q-0.75 -0.921875 -1.8125 -0.921875q-1.046875 0 -1.859375 0.984375q-0.796875 0.96875 -0.796875 2.84375zm12.469452 3.3125l0.234375 1.453125q-0.6875 0.140625 -1.234375 0.140625q-0.890625 0 -1.390625 -0.28125q-0.484375 -0.28125 -0.6875 -0.734375q-0.203125 -0.46875 -0.203125 -1.9375l0 -5.578125l-1.203125 0l0 -1.265625l1.203125 0l0 -2.390625l1.625 -0.984375l0 3.375l1.65625 0l0 1.265625l-1.65625 0l0 5.671875q0 0.6875 0.078125 0.890625q0.09375 0.203125 0.28125 0.328125q0.203125 0.109375 0.578125 0.109375q0.265625 0 0.71875 -0.0625zm8.230194 -1.640625l1.6875 0.203125q-0.40625 1.484375 -1.484375 2.3125q-1.078125 0.8125 -2.765625 0.8125q-2.125 0 -3.375 -1.296875q-1.234375 -1.3125 -1.234375 -3.671875q0 -2.453125 1.25 -3.796875q1.265625 -1.34375 3.265625 -1.34375q1.9375 0 3.15625 1.328125q1.234375 1.3125 1.234375 3.703125q0 0.15625 0 0.4375l-7.21875 0q0.09375 1.59375 0.90625 2.453125q0.8125 0.84375 2.015625 0.84375q0.90625 0 1.546875 -0.46875q0.640625 -0.484375 1.015625 -1.515625zm-5.390625 -2.65625l5.40625 0q-0.109375 -1.21875 -0.625 -1.828125q-0.78125 -0.953125 -2.03125 -0.953125q-1.125 0 -1.90625 0.765625q-0.765625 0.75 -0.84375 2.015625zm15.406952 5.765625l0 -1.21875q-0.90625 1.4375 -2.703125 1.4375q-1.15625 0 -2.125 -0.640625q-0.96875 -0.640625 -1.5 -1.78125q-0.53125 -1.140625 -0.53125 -2.625q0 -1.453125 0.484375 -2.625q0.484375 -1.1875 1.4375 -1.8125q0.96875 -0.625 2.171875 -0.625q0.875 0 1.546875 0.375q0.6875 0.359375 1.109375 0.953125l0 -4.796875l1.640625 0l0 13.359375l-1.53125 0zm-5.171875 -4.828125q0 1.859375 0.78125 2.78125q0.78125 0.921875 1.84375 0.921875q1.078125 0 1.828125 -0.875q0.75 -0.890625 0.75 -2.6875q0 -1.984375 -0.765625 -2.90625q-0.765625 -0.9375 -1.890625 -0.9375q-1.078125 0 -1.8125 0.890625q-0.734375 0.890625 -0.734375 2.8125zm15.965271 4.828125l-1.515625 0l0 -13.359375l1.640625 0l0 4.765625q1.046875 -1.296875 2.65625 -1.296875q0.890625 0 1.6875 0.359375q0.796875 0.359375 1.3125 1.015625q0.515625 0.640625 0.796875 1.5625q0.296875 0.921875 0.296875 1.96875q0 2.484375 -1.234375 3.84375q-1.21875 1.359375 -2.953125 1.359375q-1.703125 0 -2.6875 -1.4375l0 1.21875zm-0.015625 -4.90625q0 1.734375 0.484375 2.515625q0.765625 1.265625 2.09375 1.265625q1.078125 0 1.859375 -0.9375q0.78125 -0.9375 0.78125 -2.78125q0 -1.890625 -0.75 -2.796875q-0.75 -0.90625 -1.828125 -0.90625q-1.0625 0 -1.859375 0.9375q-0.78125 0.9375 -0.78125 2.703125zm8.813232 8.625l-0.1875 -1.53125q0.546875 0.140625 0.9375 0.140625q0.546875 0 0.875 -0.1875q0.328125 -0.171875 0.546875 -0.5q0.15625 -0.25 0.5 -1.21875q0.046875 -0.140625 0.140625 -0.40625l-3.671875 -9.6875l1.765625 0l2.015625 5.59375q0.390625 1.078125 0.703125 2.25q0.28125 -1.125 0.671875 -2.203125l2.078125 -5.640625l1.640625 0l-3.6875 9.828125q-0.59375 1.609375 -0.921875 2.203125q-0.4375 0.8125 -1.0 1.1875q-0.5625 0.375 -1.34375 0.375q-0.484375 0 -1.0625 -0.203125z" fill-rule="nonzero"/><path fill="#000000" d="m227.5075 134.59622l1.609375 0.21875q-0.265625 1.65625 -1.359375 2.609375q-1.078125 0.9375 -2.671875 0.9375q-1.984375 0 -3.1875 -1.296875q-1.203125 -1.296875 -1.203125 -3.71875q0 -1.578125 0.515625 -2.75q0.515625 -1.171875 1.578125 -1.75q1.0625 -0.59375 2.3125 -0.59375q1.578125 0 2.578125 0.796875q1.0 0.796875 1.28125 2.265625l-1.59375 0.234375q-0.234375 -0.96875 -0.8125 -1.453125q-0.578125 -0.5 -1.390625 -0.5q-1.234375 0 -2.015625 0.890625q-0.78125 0.890625 -0.78125 2.8125q0 1.953125 0.75 2.84375q0.75 0.875 1.953125 0.875q0.96875 0 1.609375 -0.59375q0.65625 -0.59375 0.828125 -1.828125zm3.0 3.546875l0 -9.671875l1.46875 0l0 1.46875q0.5625 -1.03125 1.03125 -1.359375q0.484375 -0.328125 1.0625 -0.328125q0.828125 0 1.6875 0.53125l-0.5625 1.515625q-0.609375 -0.359375 -1.203125 -0.359375q-0.546875 0 -0.96875 0.328125q-0.421875 0.328125 -0.609375 0.890625q-0.28125 0.875 -0.28125 1.921875l0 5.0625l-1.625 0zm12.853302 -3.109375l1.6875 0.203125q-0.40625 1.484375 -1.484375 2.3125q-1.078125 0.8125 -2.765625 0.8125q-2.125 0 -3.375 -1.296875q-1.234375 -1.3125 -1.234375 -3.671875q0 -2.453125 1.25 -3.796875q1.265625 -1.34375 3.265625 -1.34375q1.9375 0 3.15625 1.328125q1.234375 1.3125 1.234375 3.703125q0 0.15625 0 0.4375l-7.21875 0q0.09375 1.59375 0.90625 2.453125q0.8125 0.84375 2.015625 0.84375q0.90625 0 1.546875 -0.46875q0.640625 -0.484375 1.015625 -1.515625zm-5.390625 -2.65625l5.40625 0q-0.109375 -1.21875 -0.625 -1.828125q-0.78125 -0.953125 -2.03125 -0.953125q-1.125 0 -1.90625 0.765625q-0.765625 0.75 -0.84375 2.015625zm15.453842 4.578125q-0.921875 0.765625 -1.765625 1.09375q-0.828125 0.3125 -1.796875 0.3125q-1.59375 0 -2.453125 -0.78125q-0.859375 -0.78125 -0.859375 -1.984375q0 -0.71875 0.328125 -1.296875q0.328125 -0.59375 0.84375 -0.9375q0.53125 -0.359375 1.1875 -0.546875q0.46875 -0.125 1.453125 -0.25q1.984375 -0.234375 2.921875 -0.5625q0.015625 -0.34375 0.015625 -0.421875q0 -1.0 -0.46875 -1.421875q-0.625 -0.546875 -1.875 -0.546875q-1.15625 0 -1.703125 0.40625q-0.546875 0.40625 -0.8125 1.421875l-1.609375 -0.21875q0.21875 -1.015625 0.71875 -1.640625q0.5 -0.640625 1.453125 -0.984375q0.953125 -0.34375 2.1875 -0.34375q1.25 0 2.015625 0.296875q0.78125 0.28125 1.140625 0.734375q0.375 0.4375 0.515625 1.109375q0.078125 0.421875 0.078125 1.515625l0 2.1875q0 2.28125 0.109375 2.890625q0.109375 0.59375 0.40625 1.15625l-1.703125 0q-0.265625 -0.515625 -0.328125 -1.1875zm-0.140625 -3.671875q-0.890625 0.375 -2.671875 0.625q-1.015625 0.140625 -1.4375 0.328125q-0.421875 0.1875 -0.65625 0.53125q-0.21875 0.34375 -0.21875 0.78125q0 0.65625 0.5 1.09375q0.5 0.4375 1.453125 0.4375q0.9375 0 1.671875 -0.40625q0.75 -0.421875 1.09375 -1.140625q0.265625 -0.5625 0.265625 -1.640625l0 -0.609375zm7.781967 3.390625l0.234375 1.453125q-0.6875 0.140625 -1.234375 0.140625q-0.890625 0 -1.390625 -0.28125q-0.484375 -0.28125 -0.6875 -0.734375q-0.203125 -0.46875 -0.203125 -1.9375l0 -5.578125l-1.203125 0l0 -1.265625l1.203125 0l0 -2.390625l1.625 -0.984375l0 3.375l1.65625 0l0 1.265625l-1.65625 0l0 5.671875q0 0.6875 0.078125 0.890625q0.09375 0.203125 0.28125 0.328125q0.203125 0.109375 0.578125 0.109375q0.265625 0 0.71875 -0.0625zm0.9957886 -3.375q0 -2.6875 1.484375 -3.96875q1.25 -1.078125 3.046875 -1.078125q2.0 0 3.265625 1.3125q1.265625 1.296875 1.265625 3.609375q0 1.859375 -0.5625 2.9375q-0.5625 1.0625 -1.640625 1.65625q-1.0625 0.59375 -2.328125 0.59375q-2.03125 0 -3.28125 -1.296875q-1.25 -1.3125 -1.25 -3.765625zm1.6875 0q0 1.859375 0.796875 2.796875q0.8125 0.921875 2.046875 0.921875q1.21875 0 2.03125 -0.921875q0.8125 -0.9375 0.8125 -2.84375q0 -1.796875 -0.8125 -2.71875q-0.8125 -0.921875 -2.03125 -0.921875q-1.234375 0 -2.046875 0.921875q-0.796875 0.90625 -0.796875 2.765625zm9.281982 4.84375l0 -9.671875l1.46875 0l0 1.46875q0.5625 -1.03125 1.03125 -1.359375q0.484375 -0.328125 1.0625 -0.328125q0.828125 0 1.6875 0.53125l-0.5625 1.515625q-0.609375 -0.359375 -1.203125 -0.359375q-0.546875 0 -0.96875 0.328125q-0.421875 0.328125 -0.609375 0.890625q-0.28125 0.875 -0.28125 1.921875l0 5.0625l-1.625 0z" fill-rule="nonzero"/><path fill="#000000" fill-opacity="0.0" d="m461.61417 75.89501l81.22836 0l0 58.645668l-81.22836 0z" fill-rule="evenodd"/><path fill="#000000" d="m471.53604 103.611885l1.59375 0.234375q0.109375 0.75 0.5625 1.078125q0.609375 0.453125 1.671875 0.453125q1.140625 0 1.75 -0.453125q0.625 -0.453125 0.84375 -1.265625q0.125 -0.5 0.109375 -2.109375q-1.0625 1.265625 -2.671875 1.265625q-2.0 0 -3.09375 -1.4375q-1.09375 -1.4375 -1.09375 -3.453125q0 -1.390625 0.5 -2.5625q0.515625 -1.171875 1.453125 -1.796875q0.953125 -0.640625 2.25 -0.640625q1.703125 0 2.8125 1.375l0 -1.15625l1.515625 0l0 8.359375q0 2.265625 -0.46875 3.203125q-0.453125 0.9375 -1.453125 1.484375q-0.984375 0.546875 -2.453125 0.546875q-1.71875 0 -2.796875 -0.78125q-1.0625 -0.765625 -1.03125 -2.34375zm1.359375 -5.8125q0 1.90625 0.75 2.78125q0.765625 0.875 1.90625 0.875q1.125 0 1.890625 -0.859375q0.765625 -0.875 0.765625 -2.734375q0 -1.78125 -0.796875 -2.671875q-0.78125 -0.90625 -1.890625 -0.90625q-1.09375 0 -1.859375 0.890625q-0.765625 0.875 -0.765625 2.625zm8.719482 0.171875q0 -2.6875 1.484375 -3.96875q1.25 -1.078125 3.046875 -1.078125q2.0 0 3.265625 1.3125q1.265625 1.296875 1.265625 3.609375q0 1.859375 -0.5625 2.9375q-0.5625 1.0625 -1.640625 1.65625q-1.0625 0.59375 -2.328125 0.59375q-2.03125 0 -3.28125 -1.296875q-1.25 -1.3125 -1.25 -3.765625zm1.6875 0q0 1.859375 0.796875 2.796875q0.8125 0.921875 2.046875 0.921875q1.21875 0 2.03125 -0.921875q0.8125 -0.9375 0.8125 -2.84375q0 -1.796875 -0.8125 -2.71875q-0.8125 -0.921875 -2.03125 -0.921875q-1.234375 0 -2.046875 0.921875q-0.796875 0.90625 -0.796875 2.765625zm12.875702 3.375l0.234375 1.453125q-0.6875 0.140625 -1.234375 0.140625q-0.890625 0 -1.390625 -0.28125q-0.484375 -0.28125 -0.6875 -0.734375q-0.203125 -0.46875 -0.203125 -1.9375l0 -5.578125l-1.203125 0l0 -1.265625l1.203125 0l0 -2.390625l1.625 -0.984375l0 3.375l1.65625 0l0 1.265625l-1.65625 0l0 5.671875q0 0.6875 0.078125 0.890625q0.09375 0.203125 0.28125 0.328125q0.203125 0.109375 0.578125 0.109375q0.265625 0 0.71875 -0.0625z" fill-rule="nonzero"/><path fill="#000000" d="m471.84854 124.81501l0 -13.359375l1.640625 0l0 7.625l3.890625 -3.9375l2.109375 0l-3.6875 3.59375l4.0625 6.078125l-2.015625 0l-3.203125 -4.953125l-1.15625 1.125l0 3.828125l-1.640625 0zm9.328125 -11.46875l0 -1.890625l1.640625 0l0 1.890625l-1.640625 0zm0 11.46875l0 -9.671875l1.640625 0l0 9.671875l-1.640625 0zm4.0979614 0l0 -13.359375l1.640625 0l0 13.359375l-1.640625 0zm4.144806 0l0 -13.359375l1.640625 0l0 13.359375l-1.640625 0zm10.816711 -3.109375l1.6875 0.203125q-0.40625 1.484375 -1.484375 2.3125q-1.078125 0.8125 -2.765625 0.8125q-2.125 0 -3.375 -1.296875q-1.234375 -1.3125 -1.234375 -3.671875q0 -2.453125 1.25 -3.796875q1.265625 -1.34375 3.265625 -1.34375q1.9375 0 3.15625 1.328125q1.234375 1.3125 1.234375 3.703125q0 0.15625 0 0.4375l-7.21875 0q0.09375 1.59375 0.90625 2.453125q0.8125 0.84375 2.015625 0.84375q0.90625 0 1.546875 -0.46875q0.640625 -0.484375 1.015625 -1.515625zm-5.390625 -2.65625l5.40625 0q-0.109375 -1.21875 -0.625 -1.828125q-0.78125 -0.953125 -2.03125 -0.953125q-1.125 0 -1.90625 0.765625q-0.765625 0.75 -0.84375 2.015625zm15.406952 5.765625l0 -1.21875q-0.90625 1.4375 -2.703125 1.4375q-1.15625 0 -2.125 -0.640625q-0.96875 -0.640625 -1.5 -1.78125q-0.53125 -1.140625 -0.53125 -2.625q0 -1.453125 0.484375 -2.625q0.484375 -1.1875 1.4375 -1.8125q0.96875 -0.625 2.171875 -0.625q0.875 0 1.546875 0.375q0.6875 0.359375 1.109375 0.953125l0 -4.796875l1.640625 0l0 13.359375l-1.53125 0zm-5.171875 -4.828125q0 1.859375 0.78125 2.78125q0.78125 0.921875 1.84375 0.921875q1.078125 0 1.828125 -0.875q0.75 -0.890625 0.75 -2.6875q0 -1.984375 -0.765625 -2.90625q-0.765625 -0.9375 -1.890625 -0.9375q-1.078125 0 -1.8125 0.890625q-0.734375 0.890625 -0.734375 2.8125z" fill-rule="nonzero"/><path fill="#000000" fill-opacity="0.0" d="m454.66403 60.728348l84.6929 -0.15748215" fill-rule="evenodd"/><path stroke="#000000" stroke-width="4.0" stroke-linejoin="round" stroke-linecap="butt" d="m454.66403 60.728348l60.692963 -0.11285782" fill-rule="evenodd"/><path fill="#000000" stroke="#000000" stroke-width="4.0" stroke-linecap="butt" d="m515.36926 67.22241l18.140076 -6.6406746l-18.164612 -6.573162z" fill-rule="evenodd"/><path fill="#000000" fill-opacity="0.0" d="m316.99225 163.92844l154.4567 -0.06298828l0 46.393692l-154.4567 0.06300354z" fill-rule="evenodd"/><path fill="#000000" d="m337.19797 190.8402l0 -13.359375l1.640625 -6.713867E-4l0 7.625l3.890625 -3.939087l2.109375 -8.544922E-4l-3.6875 3.5952454l4.0625 6.076477l-2.015625 8.239746E-4l-3.203125 -4.951828l-1.15625 1.125473l0 3.828125l-1.640625 6.713867E-4zm9.328125 -11.472549l0 -1.890625l1.640625 -6.713867E-4l0 1.890625l-1.640625 6.713867E-4zm0 11.46875l0 -9.671875l1.640625 -6.713867E-4l0 9.671875l-1.640625 6.713867E-4zm4.0979614 -0.0016784668l0 -13.359375l1.640625 -6.713867E-4l0 13.359375l-1.640625 6.713867E-4zm4.144806 -0.0016937256l0 -13.359375l1.640625 -6.5612793E-4l0 13.359375l-1.640625 6.5612793E-4zm10.816681 -3.1137848l1.6875 0.20243835q-0.40625 1.4845428 -1.484375 2.3131104q-1.078125 0.8129425 -2.765625 0.81362915q-2.125 8.69751E-4 -3.375 -1.2955017q-1.234375 -1.3119965 -1.234375 -3.6713715q0 -2.453125 1.25 -3.7973785q1.265625 -1.3442688 3.265625 -1.3450928q1.9375 -7.9345703E-4 3.15625 1.3268433q1.234375 1.3119965 1.234375 3.7026215q0 0.15625 0 0.4375l-7.21875 0.0029449463q0.09375 1.5937042 0.90625 2.4527588q0.8125 0.8434143 2.015625 0.842926q0.90625 -3.6621094E-4 1.546875 -0.46939087q0.640625 -0.4846344 1.015625 -1.516037zm-5.390625 -2.6540527l5.40625 -0.0021972656q-0.109375 -1.2187042 -0.625 -1.8278656q-0.78125 -0.9528198 -2.03125 -0.952301q-1.125 4.5776367E-4 -1.90625 0.7664032q-0.765625 0.7503052 -0.84375 2.0159607zm15.406982 5.7593536l0 -1.21875q-0.90625 1.4378662 -2.703125 1.4385986q-1.15625 4.7302246E-4 -2.125 -0.63975525q-0.96875 -0.6402283 -1.5 -1.7806396q-0.53125 -1.1404114 -0.53125 -2.6247864q0 -1.453125 0.484375 -2.6251984q0.484375 -1.1876984 1.4375 -1.8130798q0.96875 -0.6253967 2.171875 -0.62590027q0.875 -3.5095215E-4 1.546875 0.3743744q0.6875 0.35910034 1.109375 0.95266724l0 -4.796875l1.640625 -6.5612793E-4l0 13.359375l-1.53125 6.2561035E-4zm-5.171875 -4.8260193q0 1.859375 0.78125 2.7809296q0.78125 0.92155457 1.84375 0.9211273q1.078125 -4.4250488E-4 1.828125 -0.8757477q0.75 -0.8909302 0.75 -2.6878052q0 -1.984375 -0.765625 -2.9059448q-0.765625 -0.93717957 -1.890625 -0.9367218q-1.078125 4.4250488E-4 -1.8125 0.8913574q-0.734375 0.8909302 -0.734375 2.8128052zm18.043396 3.3520203l0.234375 1.4530182q-0.6875 0.14091492 -1.234375 0.14112854q-0.890625 3.6621094E-4 -1.390625 -0.28068542q-0.484375 -0.28105164 -0.6875 -0.7340851q-0.203125 -0.4686737 -0.203125 -1.9374237l0 -5.578125l-1.203125 4.8828125E-4l0 -1.265625l1.203125 -4.8828125E-4l0 -2.390625l1.625 -0.9850311l0 3.375l1.65625 -6.713867E-4l0 1.265625l-1.65625 6.713867E-4l0 5.671875q0 0.6875 0.078125 0.8905945q0.09375 0.20307922 0.28125 0.32800293q0.203125 0.109298706 0.578125 0.10914612q0.265625 -1.0681152E-4 0.71875 -0.06278992zm1.6051636 1.4680939l0 -13.359375l1.640625 -6.713867E-4l0 4.796875q1.140625 -1.328598 2.890625 -1.3292999q1.078125 -4.4250488E-4 1.859375 0.42111206q0.796875 0.42155457 1.140625 1.171402q0.34375 0.7498627 0.34375 2.1717377l0 6.125l-1.640625 6.713867E-4l0 -6.125q0 -1.234375 -0.53125 -1.7966614q-0.53125 -0.5622864 -1.515625 -0.5618744q-0.71875 2.89917E-4 -1.359375 0.39117432q-0.640625 0.3752594 -0.921875 1.0160065q-0.265625 0.6407318 -0.265625 1.7813568l0 5.296875l-1.640625 6.713867E-4zm17.000732 -3.1163177l1.6875 0.20243835q-0.40625 1.4845428 -1.484375 2.3131104q-1.078125 0.8129425 -2.765625 0.81362915q-2.125 8.69751E-4 -3.375 -1.2955017q-1.234375 -1.3119965 -1.234375 -3.6713715q0 -2.453125 1.25 -3.7973785q1.265625 -1.3442688 3.265625 -1.3450928q1.9375 -7.9345703E-4 3.15625 1.3268433q1.234375 1.3119965 1.234375 3.7026215q0 0.15625 0 0.4375l-7.21875 0.0029449463q0.09375 1.5937042 0.90625 2.4527588q0.8125 0.8434143 2.015625 0.842926q0.90625 -3.6621094E-4 1.546875 -0.46939087q0.640625 -0.4846344 1.015625 -1.516037zm-5.390625 -2.6540527l5.40625 -0.0021972656q-0.109375 -1.2187042 -0.625 -1.8278656q-0.78125 -0.9528198 -2.03125 -0.952301q-1.125 4.5776367E-4 -1.90625 0.7664032q-0.765625 0.7503052 -0.84375 2.0159607zm17.012146 5.7586975l-3.6875 -9.67038l1.734375 -7.019043E-4l2.078125 5.7960205q0.328125 0.9373779 0.625 1.9372559q0.203125 -0.76571655 0.609375 -1.8283844l2.140625 -5.9071198l1.6875 -6.866455E-4l-3.65625 9.67337l-1.53125 6.2561035E-4zm6.640625 -11.471466l0 -1.890625l1.640625 -6.713867E-4l0 1.890625l-1.640625 6.713867E-4zm0 11.46875l0 -9.671875l1.640625 -6.713867E-4l0 9.671875l-1.640625 6.713867E-4zm10.457306 -3.5511322l1.609375 0.21809387q-0.265625 1.6563568 -1.359375 2.6099243q-1.078125 0.9379425 -2.671875 0.9385834q-1.984375 8.087158E-4 -3.1875 -1.2955627q-1.203125 -1.2963867 -1.203125 -3.7182617q0 -1.578125 0.515625 -2.7502136q0.515625 -1.1720886 1.578125 -1.7506409q1.0625 -0.5941925 2.3125 -0.59469604q1.578125 -6.4086914E-4 2.578125 0.79582214q1.0 0.796463 1.28125 2.2651062l-1.59375 0.23501587q-0.234375 -0.9686432 -0.8125 -1.4527893q-0.578125 -0.49975586 -1.390625 -0.49943542q-1.234375 5.0354004E-4 -2.015625 0.891449q-0.78125 0.89094543 -0.78125 2.8128204q0 1.953125 0.75 2.8434448q0.75 0.8746948 1.953125 0.87420654q0.96875 -3.9672852E-4 1.609375 -0.5944061q0.65625 -0.59402466 0.828125 -1.8284607zm6.59375 2.0754242l0.234375 1.4530334q-0.6875 0.14091492 -1.234375 0.14112854q-0.890625 3.6621094E-4 -1.390625 -0.28068542q-0.484375 -0.28105164 -0.6875 -0.7340851q-0.203125 -0.4686737 -0.203125 -1.9374237l0 -5.578125l-1.203125 4.8828125E-4l0 -1.265625l1.203125 -4.8828125E-4l0 -2.390625l1.625 -0.9850311l0 3.375l1.65625 -6.866455E-4l0 1.265625l-1.65625 6.866455E-4l0 5.671875q0 0.6875 0.078125 0.8905945q0.09375 0.20307922 0.28125 0.32800293q0.203125 0.109298706 0.578125 0.10914612q0.265625 -1.0681152E-4 0.71875 -0.062805176zm1.6051941 -10.000656l0 -1.890625l1.640625 -6.5612793E-4l0 1.890625l-1.640625 6.5612793E-4zm0 11.468765l0 -9.671875l1.640625 -6.713867E-4l0 9.671875l-1.640625 6.713867E-4zm4.144806 -0.0016937256l0 -9.671875l1.46875 -6.1035156E-4l0 1.359375q0.453125 -0.7189331 1.203125 -1.1411133q0.765625 -0.43780518 1.71875 -0.4382019q1.078125 -4.272461E-4 1.765625 0.45240784q0.6875 0.43722534 0.96875 1.2339783q1.15625 -1.687973 2.984375 -1.6887054q1.453125 -5.950928E-4 2.21875 0.7959595q0.78125 0.79655457 0.78125 2.4528046l0 6.640625l-1.640625 6.713867E-4l0 -6.09375q0 -0.984375 -0.15625 -1.406189q-0.15625 -0.4374237 -0.578125 -0.70288086q-0.421875 -0.26545715 -0.984375 -0.26522827q-1.015625 4.119873E-4 -1.6875 0.68818665q-0.671875 0.67214966 -0.671875 2.1565247l0 5.625l-1.640625 6.713867E-4l0 -6.28125q0 -1.09375 -0.40625 -1.6404572q-0.40625 -0.54670715 -1.3125 -0.54634094q-0.6875 2.746582E-4 -1.28125 0.3598938q-0.59375 0.35961914 -0.859375 1.062851q-0.25 0.7032318 -0.25 2.0313568l0 5.015625l-1.640625 6.713867E-4z" fill-rule="nonzero"/><path fill="#000000" fill-opacity="0.0" d="m659.3517 60.577427l71.77954 0" fill-rule="evenodd"/><path stroke="#000000" stroke-width="4.0" stroke-linejoin="round" stroke-linecap="butt" d="m659.3517 60.577427l47.77954 0" fill-rule="evenodd"/><path fill="#000000" stroke="#000000" stroke-width="4.0" stroke-linecap="butt" d="m707.1312 67.18436l18.152405 -6.60693l-18.152405 -6.60693z" fill-rule="evenodd"/><path fill="#000000" fill-opacity="0.0" d="m645.7319 73.362755l120.59839 -0.03149414l0 46.3937l-120.59839 0.03150177z" fill-rule="evenodd"/><path fill="#000000" d="m662.27875 96.73156l1.609375 0.21833038q-0.265625 1.6563187 -1.359375 2.6097336q-1.078125 0.93777466 -2.671875 0.9381943q-1.984375 5.187988E-4 -3.1875 -1.2960434q-1.203125 -1.2965622 -1.203125 -3.7184372q0 -1.578125 0.515625 -2.7501297q0.515625 -1.1720123 1.578125 -1.750412q1.0625 -0.5940323 2.3125 -0.59436035q1.578125 -4.119873E-4 2.578125 0.7962036q1.0 0.7966156 1.28125 2.2652893l-1.59375 0.23479462q-0.234375 -0.96868896 -0.8125 -1.4529114q-0.578125 -0.49985504 -1.390625 -0.49964142q-1.234375 3.2806396E-4 -2.015625 0.8911514q-0.78125 0.890831 -0.78125 2.812706q0 1.953125 0.75 2.8435516q0.75 0.87480927 1.953125 0.87449646q0.96875 -2.593994E-4 1.609375 -0.59417725q0.65625 -0.59391785 0.828125 -1.8283386zm2.40625 -1.2975006q0 -2.6875 1.484375 -3.969139q1.25 -1.0784531 3.046875 -1.0789185q2.0 -5.264282E-4 3.265625 1.3116455q1.265625 1.2965393 1.265625 3.609047q0 1.859375 -0.5625 2.937645q-0.5625 1.062645 -1.640625 1.6566772q-1.0625 0.59402466 -2.328125 0.59436035q-2.03125 5.264282E-4 -3.28125 -1.2960205q-1.25 -1.3121719 -1.25 -3.765297zm1.6875 -4.4250488E-4q0 1.859375 0.796875 2.796669q0.8125 0.9216614 2.046875 0.92134094q1.21875 -3.2043457E-4 2.03125 -0.92240906q0.8125 -0.9377136 0.8125 -2.8439636q0 -1.796875 -0.8125 -2.7185364q-0.8125 -0.9216614 -2.03125 -0.92134094q-1.234375 3.2043457E-4 -2.046875 0.92240906q-0.796875 0.906456 -0.796875 2.765831zm9.297607 4.841324l0 -9.671875l1.46875 -3.8909912E-4l0 1.375q1.0625 -1.5940247 3.078125 -1.5945511q0.875 -2.2888184E-4 1.609375 0.31208038q0.734375 0.31230927 1.09375 0.8278351q0.375 0.49990845 0.515625 1.2029953q0.09375 0.4531021 0.09375 1.5937271l0 5.953125l-1.640625 4.272461E-4l0 -5.890625q0 -1.0 -0.203125 -1.4843216q-0.1875 -0.49995422 -0.671875 -0.7966995q-0.484375 -0.29675293 -1.140625 -0.29657745q-1.046875 2.746582E-4 -1.8125 0.672348q-0.75 0.65644836 -0.75 2.5158234l0 5.28125l-1.640625 4.272461E-4zm10.766296 -0.0028152466l0 -8.40625l-1.453125 3.8146973E-4l0 -1.265625l1.453125 -3.8146973E-4l0 -1.03125q0 -0.96875 0.171875 -1.4531708q0.234375 -0.64068604 0.828125 -1.0314636q0.59375 -0.3907776 1.671875 -0.39105988q0.6875 -1.8310547E-4 1.53125 0.15584564l-0.25 1.4375687q-0.5 -0.0936203 -0.953125 -0.09350586q-0.75 1.9836426E-4 -1.0625 0.3284073q-0.3125 0.3125763 -0.3125 1.1875763l0 0.890625l1.890625 -4.8828125E-4l0 1.265625l-1.890625 4.9591064E-4l0 8.40625l-1.625 4.196167E-4zm4.7927246 -11.470001l0 -1.890625l1.640625 -4.272461E-4l0 1.890625l-1.640625 4.272461E-4zm0 11.46875l0 -9.671875l1.640625 -4.272461E-4l0 9.671875l-1.640625 4.272461E-4zm4.1291504 -0.0010757446l0 -9.671875l1.46875 -3.8909912E-4l0 1.46875q0.5625 -1.031395 1.03125 -1.359642q0.484375 -0.32824707 1.0625 -0.32839966q0.828125 -2.2125244E-4 1.6875 0.5308075l-0.5625 1.51577q-0.609375 -0.35921478 -1.203125 -0.3590622q-0.546875 1.449585E-4 -0.96875 0.3283844q-0.421875 0.3282318 -0.609375 0.8907776q-0.28125 0.8750763 -0.28125 1.9219513l0 5.0625l-1.625 4.272461E-4zm6.2283325 -0.001625061l0 -9.671875l1.46875 -3.8909912E-4l0 1.359375q0.453125 -0.71886444 1.203125 -1.1409378q0.765625 -0.43769836 1.71875 -0.43795013q1.078125 -2.822876E-4 1.765625 0.45266724q0.6875 0.4373169 0.96875 1.2341232q1.15625 -1.6878052 2.984375 -1.6882858q1.453125 -3.7384033E-4 2.21875 0.7963028q0.78125 0.796669 0.78125 2.452919l0 6.640625l-1.640625 4.272461E-4l0 -6.09375q0 -0.984375 -0.15625 -1.4062119q-0.15625 -0.43745422 -0.578125 -0.7029724q-0.421875 -0.26551056 -0.984375 -0.2653656q-1.015625 2.670288E-4 -1.6875 0.6879425q-0.671875 0.6720505 -0.671875 2.1564255l0 5.625l-1.640625 4.272461E-4l0 -6.28125q0 -1.09375 -0.40625 -1.6405182q-0.40625 -0.5467758 -1.3125 -0.5465317q-0.6875 1.7547607E-4 -1.28125 0.35970306q-0.59375 0.35953522 -0.859375 1.0627289q-0.25 0.70318604 -0.25 2.031311l0 5.015625l-1.640625 4.348755E-4zm22.165771 -3.1151657l1.6875 0.2026825q-0.40625 1.4844818 -1.484375 2.312889q-1.078125 0.8127823 -2.765625 0.8132248q-2.125 5.493164E-4 -3.375 -1.2959976q-1.234375 -1.3121796 -1.234375 -3.6715546q0 -2.453125 1.25 -3.797203q1.265625 -1.3440781 3.265625 -1.3445969q1.9375 -5.1116943E-4 3.15625 1.327301q1.234375 1.3121719 1.234375 3.702797q0 0.15625 0 0.4375l-7.21875 0.0018920898q0.09375 1.5937195 0.90625 2.4528809q0.8125 0.843544 2.015625 0.8432236q0.90625 -2.3651123E-4 1.546875 -0.46914673q0.640625 -0.48454285 1.015625 -1.515892zm-5.390625 -2.6548462l5.40625 -0.001411438q-0.109375 -1.2187195 -0.625 -1.8279572q-0.78125 -0.95292664 -2.03125 -0.9525986q-1.125 2.975464E-4 -1.90625 0.7661209q-0.765625 0.750206 -0.84375 2.0158463zm15.406982 5.7616043l0 -1.21875q-0.90625 1.4377365 -2.703125 1.4382019q-1.15625 3.0517578E-4 -2.125 -0.64006805q-0.96875 -0.64037323 -1.5 -1.7808533q-0.53125 -1.1404877 -0.53125 -2.6248627q0 -1.453125 0.484375 -2.6251297q0.484375 -1.1876221 1.4375 -1.8128738q0.96875 -0.62525177 2.171875 -0.6255646q0.875 -2.2888184E-4 1.546875 0.37459564q0.6875 0.3591919 1.109375 0.9528351l0 -4.796875l1.640625 -4.348755E-4l0 13.359375l-1.53125 4.043579E-4zm-5.171875 -4.8267746q0 1.859375 0.78125 2.781044q0.78125 0.921669 1.84375 0.92139435q1.078125 -2.822876E-4 1.828125 -0.875473q0.75 -0.89082336 0.75 -2.6876984q0 -1.984375 -0.765625 -2.9060516q-0.765625 -0.93730164 -1.890625 -0.9370041q-1.078125 2.822876E-4 -1.8125 0.891098q-0.734375 0.89081573 -0.734375 2.8126907z" fill-rule="nonzero"/><path fill="#000000" d="m662.2319 122.27845l0 -1.21875q-0.90625 1.4377365 -2.703125 1.4382019q-1.15625 3.0517578E-4 -2.125 -0.64006805q-0.96875 -0.64037323 -1.5 -1.7808609q-0.53125 -1.14048 -0.53125 -2.624855q0 -1.453125 0.484375 -2.6251297q0.484375 -1.1876297 1.4375 -1.8128738q0.96875 -0.62525177 2.171875 -0.6255722q0.875 -2.2888184E-4 1.546875 0.37459564q0.6875 0.35919952 1.109375 0.9528427l0 -4.796875l1.640625 -4.348755E-4l0 13.359375l-1.53125 4.043579E-4zm-5.171875 -4.8267746q0 1.859375 0.78125 2.781044q0.78125 0.921669 1.84375 0.92139435q1.078125 -2.822876E-4 1.828125 -0.87548065q0.75 -0.89081573 0.75 -2.6876907q0 -1.984375 -0.765625 -2.9060516q-0.765625 -0.93730164 -1.890625 -0.9370041q-1.078125 2.822876E-4 -1.8125 0.891098q-0.734375 0.89081573 -0.734375 2.8126907zm15.906982 1.714592l1.6875 0.20269012q-0.40625 1.4844742 -1.484375 2.3128815q-1.078125 0.8127823 -2.765625 0.8132248q-2.125 5.569458E-4 -3.375 -1.29599q-1.234375 -1.3121796 -1.234375 -3.6715546q0 -2.453125 1.25 -3.797203q1.265625 -1.3440781 3.265625 -1.3446045q1.9375 -5.0354004E-4 3.15625 1.327301q1.234375 1.3121796 1.234375 3.7028046q0 0.15625 0 0.4375l-7.21875 0.0018844604q0.09375 1.5937271 0.90625 2.4528885q0.8125 0.8435364 2.015625 0.8432236q0.90625 -2.3651123E-4 1.546875 -0.46915436q0.640625 -0.48454285 1.015625 -1.515892zm-5.390625 -2.6548386l5.40625 -0.001411438q-0.109375 -1.2187195 -0.625 -1.8279648q-0.78125 -0.952919 -2.03125 -0.95259094q-1.125 2.89917E-4 -1.90625 0.7661209q-0.765625 0.75019836 -0.84375 2.0158463zm15.453796 4.574089q-0.921875 0.7658615 -1.765625 1.0942078q-0.828125 0.31272125 -1.796875 0.31297302q-1.59375 4.119873E-4 -2.453125 -0.78060913q-0.859375 -0.78102875 -0.859375 -1.9841537q0 -0.71875 0.328125 -1.2969589q0.328125 -0.5938339 0.84375 -0.93772125q0.53125 -0.35951233 1.1875 -0.5471878q0.46875 -0.12512207 1.453125 -0.25037384q1.984375 -0.2348938 2.921875 -0.56326294q0.015625 -0.34375763 0.015625 -0.42188263q0 -1.0 -0.46875 -1.4217529q-0.625 -0.54670715 -1.875 -0.5463867q-1.15625 3.0517578E-4 -1.703125 0.40670013q-0.546875 0.40638733 -0.8125 1.422081l-1.609375 -0.21832275q0.21875 -1.015686 0.71875 -1.6408157q0.5 -0.6407547 1.453125 -0.98475647q0.953125 -0.34399414 2.1875 -0.3443222q1.25 -3.2043457E-4 2.015625 0.29634857q0.78125 0.28105164 1.140625 0.73407745q0.375 0.43740082 0.515625 1.1092453q0.078125 0.4218521 0.078125 1.5156021l0 2.1875q0 2.28125 0.109375 2.8905945q0.109375 0.5937195 0.40625 1.1561432l-1.703125 4.5013428E-4q-0.265625 -0.51555634 -0.328125 -1.1874161zm-0.140625 -3.6718369q-0.890625 0.37522888 -2.671875 0.6256943q-1.015625 0.14089203 -1.4375 0.32849884q-0.421875 0.18761444 -0.65625 0.5314255q-0.21875 0.3438034 -0.21875 0.7813034q0 0.65625 0.5 1.0936203q0.5 0.4373703 1.453125 0.43711853q0.9375 -2.4414062E-4 1.671875 -0.40668488q0.75 -0.42206573 1.09375 -1.1409073q0.265625 -0.56256866 0.265625 -1.6406937l0 -0.609375zm7.7819824 3.388588l0.234375 1.453064q-0.6875 0.1408081 -1.234375 0.14095306q-0.890625 2.2888184E-4 -1.390625 -0.28089142q-0.484375 -0.2811203 -0.6875 -0.7341919q-0.203125 -0.4686966 -0.203125 -1.9374466l0 -5.578125l-1.203125 3.1280518E-4l0 -1.265625l1.203125 -3.1280518E-4l0 -2.390625l1.625 -0.98480225l0 3.375l1.65625 -4.348755E-4l0 1.265625l-1.65625 4.348755E-4l0 5.671875q0 0.6875 0.078125 0.8906021q0.09375 0.20310211 0.28125 0.32805634q0.203125 0.109321594 0.578125 0.10922241q0.265625 -6.866455E-5 0.71875 -0.062690735zm1.6051636 1.4683304l0 -13.359375l1.640625 -4.272461E-4l0 4.796875q1.140625 -1.3284225 2.890625 -1.3288803q1.078125 -2.822876E-4 1.859375 0.42139435q0.796875 0.42166138 1.140625 1.1715698q0.34375 0.7499161 0.34375 2.171791l0 6.125l-1.640625 4.272461E-4l0 -6.125q0 -1.234375 -0.53125 -1.7967377q-0.53125 -0.5623627 -1.515625 -0.5621033q-0.71875 1.9073486E-4 -1.359375 0.39097595q-0.640625 0.37516785 -0.921875 1.0158691q-0.265625 0.64069366 -0.265625 1.7813187l0 5.296875l-1.640625 4.272461E-4z" fill-rule="nonzero"/><path fill="#000000" d="m412.86615 105.70079l0 39.018402l0 0c0 10.805054 -8.759216 19.56427 -19.56427 19.56427l-6.6989746 0l0 0c-5.188751 0 -10.165009 -2.0612335 -13.834015 -5.73024c-3.6690063 -3.6690063 -5.730255 -8.645264 -5.730255 -13.83403l0 -21.1296l-12.881165 0l14.645691 -17.888802l14.64566 17.888802l-12.881165 0l0 21.1296c0 8.856018 7.1792297 16.035248 16.035248 16.035248l6.6989746 0l0 0c8.856018 0 16.035248 -7.1792297 16.035248 -16.035248l0 -39.018402z" fill-rule="evenodd"/></g></svg>